solid Buildlog 2
facet normal 1.0 -1.603999781216442e-16 0.0
outer loop
vertex 32.5 6.0 0.010888447612569274
vertex 32.58518543427733 5.352952387243698 20.000000000000004
vertex 32.58518543427733 5.352952387243698 0.010888447612569274
endloop
endfacet
facet normal 0.9659258262890681 0.25881904510252224 0.0
outer loop
vertex 32.58518543427733 5.352952387243698 20.000000000000004
vertex 32.5 6.0 0.010888447612569274
vertex 32.5 6.0 20.000000000000004
endloop
endfacet
facet normal 0.8660254037844369 0.5000000000000032 0.0
outer loop
vertex 32.83493649053891 4.749999999999999 0.010888447612569274
vertex 33.23223304703364 4.23223304703363 20.000000000000004
vertex 33.23223304703364 4.23223304703363 0.010888447612569274
endloop
endfacet
facet normal 0.7071067811865475 0.7071067811865477 0.0
outer loop
vertex 33.23223304703364 4.23223304703363 20.000000000000004
vertex 32.83493649053891 4.749999999999999 0.010888447612569274
vertex 32.83493649053891 4.749999999999999 20.000000000000004
endloop
endfacet
facet normal 0.2588190451025205 -0.9659258262890684 0.0
outer loop
vertex 34.352952387243704 8.414814565722672 20.000000000000004
vertex 33.75 8.165063509461097 0.010888447612569274
vertex 34.352952387243704 8.414814565722672 0.010888447612569274
endloop
endfacet
facet normal 0.49999999999999917 -0.8660254037844393 0.0
outer loop
vertex 33.75 8.165063509461097 0.010888447612569274
vertex 34.352952387243704 8.414814565722672 20.000000000000004
vertex 33.75 8.165063509461097 20.000000000000004
endloop
endfacet
facet normal -0.2588190451025196 0.9659258262890688 0.0
outer loop
vertex 35.6470476127563 3.5851854342773284 20.000000000000004
vertex 36.25000000000001 3.8349364905389023 0.010888447612569274
vertex 35.6470476127563 3.5851854342773284 0.010888447612569274
endloop
endfacet
facet normal -0.5000000000000012 0.8660254037844379 0.0
outer loop
vertex 36.25000000000001 3.8349364905389023 0.010888447612569274
vertex 35.6470476127563 3.5851854342773284 20.000000000000004
vertex 36.25000000000001 3.8349364905389023 20.000000000000004
endloop
endfacet
facet normal 0.0 1.0 0.0
outer loop
vertex 35.0 3.499999999999999 20.000000000000004
vertex 35.6470476127563 3.5851854342773284 0.010888447612569274
vertex 35.0 3.499999999999999 0.010888447612569274
endloop
endfacet
facet normal -0.2588190451025196 0.9659258262890688 0.0
outer loop
vertex 35.6470476127563 3.5851854342773284 0.010888447612569274
vertex 35.0 3.499999999999999 20.000000000000004
vertex 35.6470476127563 3.5851854342773284 20.000000000000004
endloop
endfacet
facet normal -0.8660254037844369 0.5000000000000032 0.0
outer loop
vertex 37.1650635094611 4.75 20.000000000000004
vertex 36.76776695296637 4.232233047033631 0.010888447612569274
vertex 36.76776695296637 4.232233047033631 20.000000000000004
endloop
endfacet
facet normal -0.7071067811865496 0.7071067811865456 0.0
outer loop
vertex 36.76776695296637 4.232233047033631 0.010888447612569274
vertex 37.1650635094611 4.75 20.000000000000004
vertex 37.1650635094611 4.75 0.010888447612569274
endloop
endfacet
facet normal 0.5 0.8660254037844387 0.0
outer loop
vertex 33.75000000000001 3.8349364905389023 20.000000000000004
vertex 34.352952387243704 3.5851854342773284 0.010888447612569274
vertex 33.75000000000001 3.8349364905389023 0.010888447612569274
endloop
endfacet
facet normal 0.25881904510252113 0.9659258262890682 0.0
outer loop
vertex 34.352952387243704 3.5851854342773284 0.010888447612569274
vertex 33.75000000000001 3.8349364905389023 20.000000000000004
vertex 34.352952387243704 3.5851854342773284 20.000000000000004
endloop
endfacet
facet normal -0.9659258262890679 0.25881904510252224 0.0
outer loop
vertex 37.41481456572268 5.352952387243699 20.000000000000004
vertex 37.1650635094611 4.75 0.010888447612569274
vertex 37.1650635094611 4.75 20.000000000000004
endloop
endfacet
facet normal -0.8660254037844369 0.5000000000000032 0.0
outer loop
vertex 37.1650635094611 4.75 0.010888447612569274
vertex 37.41481456572268 5.352952387243699 20.000000000000004
vertex 37.41481456572268 5.352952387243699 0.010888447612569274
endloop
endfacet
facet normal -0.707106781186547 -0.707106781186548 0.0
outer loop
vertex 36.76776695296637 7.767766952966371 20.000000000000004
vertex 36.25 8.165063509461099 0.010888447612569274
vertex 36.76776695296637 7.767766952966371 0.010888447612569274
endloop
endfacet
facet normal -0.4999999999999997 -0.8660254037844389 0.0
outer loop
vertex 36.25 8.165063509461099 0.010888447612569274
vertex 36.76776695296637 7.767766952966371 20.000000000000004
vertex 36.25 8.165063509461099 20.000000000000004
endloop
endfacet
facet normal -0.8660254037844388 -0.4999999999999999 0.0
outer loop
vertex 37.1650635094611 7.250000000000003 20.000000000000004
vertex 37.41481456572267 6.647047612756304 0.010888447612569274
vertex 37.41481456572267 6.647047612756304 20.000000000000004
endloop
endfacet
facet normal -0.965925826289068 -0.25881904510252257 0.0
outer loop
vertex 37.41481456572267 6.647047612756304 0.010888447612569274
vertex 37.1650635094611 7.250000000000003 20.000000000000004
vertex 37.1650635094611 7.250000000000003 0.010888447612569274
endloop
endfacet
facet normal 0.7071067811865495 -0.7071067811865456 0.0
outer loop
vertex 33.23223304703363 7.767766952966369 0.010888447612569274
vertex 32.83493649053891 7.250000000000001 20.000000000000004
vertex 32.83493649053891 7.250000000000001 0.010888447612569274
endloop
endfacet
facet normal 0.8660254037844388 -0.5000000000000001 0.0
outer loop
vertex 32.83493649053891 7.250000000000001 20.000000000000004
vertex 33.23223304703363 7.767766952966369 0.010888447612569274
vertex 33.23223304703363 7.767766952966369 20.000000000000004
endloop
endfacet
facet normal 0.25881904510252113 0.9659258262890682 0.0
outer loop
vertex 34.352952387243704 3.5851854342773284 20.000000000000004
vertex 35.0 3.499999999999999 0.010888447612569274
vertex 34.352952387243704 3.5851854342773284 0.010888447612569274
endloop
endfacet
facet normal 0.0 1.0 0.0
outer loop
vertex 35.0 3.499999999999999 0.010888447612569274
vertex 34.352952387243704 3.5851854342773284 20.000000000000004
vertex 35.0 3.499999999999999 20.000000000000004
endloop
endfacet
facet normal -0.25881904510252113 -0.9659258262890682 0.0
outer loop
vertex 35.6470476127563 8.414814565722672 20.000000000000004
vertex 35.0 8.500000000000002 0.010888447612569274
vertex 35.6470476127563 8.414814565722672 0.010888447612569274
endloop
endfacet
facet normal 0.0 -1.0 0.0
outer loop
vertex 35.0 8.500000000000002 0.010888447612569274
vertex 35.6470476127563 8.414814565722672 20.000000000000004
vertex 35.0 8.500000000000002 20.000000000000004
endloop
endfacet
facet normal -0.5000000000000012 0.8660254037844379 0.0
outer loop
vertex 36.25000000000001 3.8349364905389023 20.000000000000004
vertex 36.76776695296637 4.232233047033631 0.010888447612569274
vertex 36.25000000000001 3.8349364905389023 0.010888447612569274
endloop
endfacet
facet normal -0.7071067811865496 0.7071067811865456 0.0
outer loop
vertex 36.76776695296637 4.232233047033631 0.010888447612569274
vertex 36.25000000000001 3.8349364905389023 20.000000000000004
vertex 36.76776695296637 4.232233047033631 20.000000000000004
endloop
endfacet
facet normal -0.707106781186547 -0.707106781186548 0.0
outer loop
vertex 36.76776695296637 7.767766952966371 20.000000000000004
vertex 37.1650635094611 7.250000000000003 0.010888447612569274
vertex 37.1650635094611 7.250000000000003 20.000000000000004
endloop
endfacet
facet normal -0.8660254037844388 -0.4999999999999999 0.0
outer loop
vertex 37.1650635094611 7.250000000000003 0.010888447612569274
vertex 36.76776695296637 7.767766952966371 20.000000000000004
vertex 36.76776695296637 7.767766952966371 0.010888447612569274
endloop
endfacet
facet normal 0.9659258262890681 0.25881904510252224 0.0
outer loop
vertex 32.58518543427733 5.352952387243698 0.010888447612569274
vertex 32.83493649053891 4.749999999999999 20.000000000000004
vertex 32.83493649053891 4.749999999999999 0.010888447612569274
endloop
endfacet
facet normal 0.8660254037844369 0.5000000000000032 0.0
outer loop
vertex 32.83493649053891 4.749999999999999 20.000000000000004
vertex 32.58518543427733 5.352952387243698 0.010888447612569274
vertex 32.58518543427733 5.352952387243698 20.000000000000004
endloop
endfacet
facet normal -1.0 -4.090199442101929e-15 0.0
outer loop
vertex 37.50000000000001 6.0 20.000000000000004
vertex 37.41481456572268 5.352952387243699 0.010888447612569274
vertex 37.41481456572268 5.352952387243699 20.000000000000004
endloop
endfacet
facet normal -0.9659258262890679 0.25881904510252224 0.0
outer loop
vertex 37.41481456572268 5.352952387243699 0.010888447612569274
vertex 37.50000000000001 6.0 20.000000000000004
vertex 37.50000000000001 6.0 0.010888447612569274
endloop
endfacet
facet normal -0.4999999999999997 -0.8660254037844389 0.0
outer loop
vertex 36.25 8.165063509461099 20.000000000000004
vertex 35.6470476127563 8.414814565722672 0.010888447612569274
vertex 36.25 8.165063509461099 0.010888447612569274
endloop
endfacet
facet normal -0.25881904510252113 -0.9659258262890682 0.0
outer loop
vertex 35.6470476127563 8.414814565722672 0.010888447612569274
vertex 36.25 8.165063509461099 20.000000000000004
vertex 35.6470476127563 8.414814565722672 20.000000000000004
endloop
endfacet
facet normal -0.965925826289068 -0.25881904510252257 0.0
outer loop
vertex 37.41481456572267 6.647047612756304 20.000000000000004
vertex 37.50000000000001 6.0 0.010888447612569274
vertex 37.50000000000001 6.0 20.000000000000004
endloop
endfacet
facet normal -1.0 -4.090199442101929e-15 0.0
outer loop
vertex 37.50000000000001 6.0 0.010888447612569274
vertex 37.41481456572267 6.647047612756304 20.000000000000004
vertex 37.41481456572267 6.647047612756304 0.010888447612569274
endloop
endfacet
facet normal 0.9659258262890681 -0.2588190451025222 0.0
outer loop
vertex 32.58518543427733 6.647047612756301 0.010888447612569274
vertex 32.5 6.0 20.000000000000004
vertex 32.5 6.0 0.010888447612569274
endloop
endfacet
facet normal 1.0 -1.603999781216442e-16 0.0
outer loop
vertex 32.5 6.0 20.000000000000004
vertex 32.58518543427733 6.647047612756301 0.010888447612569274
vertex 32.58518543427733 6.647047612756301 20.000000000000004
endloop
endfacet
facet normal 0.8660254037844388 -0.5000000000000001 0.0
outer loop
vertex 32.83493649053891 7.250000000000001 0.010888447612569274
vertex 32.58518543427733 6.647047612756301 20.000000000000004
vertex 32.58518543427733 6.647047612756301 0.010888447612569274
endloop
endfacet
facet normal 0.9659258262890681 -0.2588190451025222 0.0
outer loop
vertex 32.58518543427733 6.647047612756301 20.000000000000004
vertex 32.83493649053891 7.250000000000001 0.010888447612569274
vertex 32.83493649053891 7.250000000000001 20.000000000000004
endloop
endfacet
facet normal 0.49999999999999917 -0.8660254037844393 0.0
outer loop
vertex 33.75 8.165063509461097 20.000000000000004
vertex 33.23223304703363 7.767766952966369 0.010888447612569274
vertex 33.75 8.165063509461097 0.010888447612569274
endloop
endfacet
facet normal 0.7071067811865495 -0.7071067811865456 0.0
outer loop
vertex 33.23223304703363 7.767766952966369 0.010888447612569274
vertex 33.75 8.165063509461097 20.000000000000004
vertex 33.23223304703363 7.767766952966369 20.000000000000004
endloop
endfacet
facet normal 0.7071067811865475 0.7071067811865477 0.0
outer loop
vertex 33.23223304703364 4.23223304703363 20.000000000000004
vertex 33.75000000000001 3.8349364905389023 0.010888447612569274
vertex 33.23223304703364 4.23223304703363 0.010888447612569274
endloop
endfacet
facet normal 0.5 0.8660254037844387 0.0
outer loop
vertex 33.75000000000001 3.8349364905389023 0.010888447612569274
vertex 33.23223304703364 4.23223304703363 20.000000000000004
vertex 33.75000000000001 3.8349364905389023 20.000000000000004
endloop
endfacet
facet normal 0.0 -1.0 0.0
outer loop
vertex 35.0 8.500000000000002 20.000000000000004
vertex 34.352952387243704 8.414814565722672 0.010888447612569274
vertex 35.0 8.500000000000002 0.010888447612569274
endloop
endfacet
facet normal 0.2588190451025205 -0.9659258262890684 0.0
outer loop
vertex 34.352952387243704 8.414814565722672 0.010888447612569274
vertex 35.0 8.500000000000002 20.000000000000004
vertex 34.352952387243704 8.414814565722672 20.000000000000004
endloop
endfacet
facet normal 0.0 -1.0 0.0
outer loop
vertex 95.54587632247733 0.0 7.0206971896151895
vertex 85.64704761275631 0.0 7.585185434277335
vertex 85.0 0.0 7.500000000000006
endloop
endfacet
facet normal 0.0 -1.0 0.0
outer loop
vertex 85.64704761275631 0.0 7.585185434277335
vertex 95.54587632247733 0.0 7.0206971896151895
vertex 95.99390827019096 0.0 9.651005032974998
endloop
endfacet
facet normal 0.0 -1.0 0.0
outer loop
vertex 85.64704761275631 0.0 7.585185434277335
vertex 95.99390827019096 0.0 9.651005032974998
vertex 86.25 0.0 7.834936490538909
endloop
endfacet
facet normal 0.0 -1.0 0.0
outer loop
vertex 86.25 0.0 7.834936490538909
vertex 95.99390827019096 0.0 9.651005032974998
vertex 86.76776695296637 0.0 8.232233047033636
endloop
endfacet
facet normal 0.0 -1.0 0.0
outer loop
vertex 86.76776695296637 0.0 8.232233047033636
vertex 95.99390827019096 0.0 9.651005032974998
vertex 87.16506350946109 0.0 8.750000000000004
endloop
endfacet
facet normal 0.0 -1.0 0.0
outer loop
vertex 87.16506350946109 0.0 8.750000000000004
vertex 95.99390827019096 0.0 9.651005032974998
vertex 87.41481456572266 0.0 9.3529523872437
endloop
endfacet
facet normal 0.0 -1.0 0.0
outer loop
vertex 87.41481456572266 0.0 9.3529523872437
vertex 95.99390827019096 0.0 9.651005032974998
vertex 87.5 0.0 10.000000000000002
endloop
endfacet
facet normal 0.0 -1.0 0.0
outer loop
vertex 87.5 0.0 10.000000000000002
vertex 95.99390827019096 0.0 9.651005032974998
vertex 95.73044870579824 0.0 12.306158707424409
endloop
endfacet
facet normal 0.0 -1.0 0.0
outer loop
vertex 87.5 0.0 10.000000000000002
vertex 95.73044870579824 0.0 12.306158707424409
vertex 87.41481456572266 0.0 10.647047612756305
endloop
endfacet
facet normal 0.0 -1.0 0.0
outer loop
vertex 87.41481456572266 0.0 10.647047612756305
vertex 95.73044870579824 0.0 12.306158707424409
vertex 87.16506350946109 0.0 11.25
endloop
endfacet
facet normal 0.0 -1.0 0.0
outer loop
vertex 87.16506350946109 0.0 11.25
vertex 95.73044870579824 0.0 12.306158707424409
vertex 86.76776695296637 0.0 11.767766952966367
endloop
endfacet
facet normal 0.0 -1.0 0.0
outer loop
vertex 86.76776695296637 0.0 11.767766952966367
vertex 95.73044870579824 0.0 12.306158707424409
vertex 86.25 0.0 12.165063509461095
endloop
endfacet
facet normal 0.0 -1.0 0.0
outer loop
vertex 86.25 0.0 12.165063509461095
vertex 95.73044870579824 0.0 12.306158707424409
vertex 85.64704761275631 0.0 12.414814565722667
endloop
endfacet
facet normal 0.0 -1.0 0.0
outer loop
vertex 85.64704761275631 0.0 12.414814565722667
vertex 95.73044870579824 0.0 12.306158707424409
vertex 94.77425397954582 0.0 14.797131132502468
endloop
endfacet
facet normal 0.0 -1.0 0.0
outer loop
vertex 85.64704761275631 0.0 12.414814565722667
vertex 94.77425397954582 0.0 14.797131132502468
vertex 85.0 0.0 12.499999999999996
endloop
endfacet
facet normal 0.0 -1.0 0.0
outer loop
vertex 85.0 0.0 12.499999999999996
vertex 94.77425397954582 0.0 14.797131132502468
vertex 0.34074173710931754 0.0 12.588190451025211
endloop
endfacet
facet normal 0.0 -1.0 0.0
outer loop
vertex 0.34074173710931754 0.0 12.588190451025211
vertex 94.77425397954582 0.0 14.797131132502468
vertex 0.7612046748871323 0.0 13.826834323650901
endloop
endfacet
facet normal 0.0 -1.0 0.0
outer loop
vertex 0.7612046748871323 0.0 13.826834323650901
vertex 94.77425397954582 0.0 14.797131132502468
vertex 1.339745962155614 0.0 15.000000000000004
endloop
endfacet
facet normal 0.0 -1.0 0.0
outer loop
vertex 1.339745962155614 0.0 15.000000000000004
vertex 94.77425397954582 0.0 14.797131132502468
vertex 93.1933980033865 0.0 16.946583704589976
endloop
endfacet
facet normal 0.0 -1.0 0.0
outer loop
vertex 1.339745962155614 0.0 15.000000000000004
vertex 93.1933980033865 0.0 16.946583704589976
vertex 2.0664665970876506 0.0 16.08761429008721
endloop
endfacet
facet normal 0.0 -1.0 0.0
outer loop
vertex 2.0664665970876506 0.0 16.08761429008721
vertex 93.1933980033865 0.0 16.946583704589976
vertex 2.9289321881345267 0.0 17.07106781186548
endloop
endfacet
facet normal 0.0 -1.0 0.0
outer loop
vertex 2.9289321881345267 0.0 17.07106781186548
vertex 93.1933980033865 0.0 16.946583704589976
vertex 91.10042589765675 0.0 18.60149147895366
endloop
endfacet
facet normal 0.0 -1.0 0.0
outer loop
vertex 2.9289321881345267 0.0 17.07106781186548
vertex 91.10042589765675 0.0 18.60149147895366
vertex 3.9123857099127965 0.0 17.933533402912357
endloop
endfacet
facet normal 0.0 -1.0 0.0
outer loop
vertex 3.9123857099127965 0.0 17.933533402912357
vertex 91.10042589765675 0.0 18.60149147895366
vertex 5.000000000000003 0.0 18.66025403784439
endloop
endfacet
facet normal 0.0 -1.0 0.0
outer loop
vertex 5.000000000000003 0.0 18.66025403784439
vertex 91.10042589765675 0.0 18.60149147895366
vertex 88.64434162037202 0.0 19.64403740114939
endloop
endfacet
facet normal 0.0 -1.0 0.0
outer loop
vertex 5.000000000000003 0.0 18.66025403784439
vertex 88.64434162037202 0.0 19.64403740114939
vertex 6.1731656763491065 0.0 19.23879532511287
endloop
endfacet
facet normal 0.0 -1.0 0.0
outer loop
vertex 6.1731656763491065 0.0 19.23879532511287
vertex 88.64434162037202 0.0 19.64403740114939
vertex 7.411809548974798 0.0 19.659258262890685
endloop
endfacet
facet normal 0.0 -1.0 0.0
outer loop
vertex 7.411809548974798 0.0 19.659258262890685
vertex 88.64434162037202 0.0 19.64403740114939
vertex 86.0 0.0 20.000000000000004
endloop
endfacet
facet normal 0.0 -1.0 0.0
outer loop
vertex 7.411809548974798 0.0 19.659258262890685
vertex 86.0 0.0 20.000000000000004
vertex 8.694738077799492 0.0 19.914448613738106
endloop
endfacet
facet normal 0.0 -1.0 0.0
outer loop
vertex 8.694738077799492 0.0 19.914448613738106
vertex 86.0 0.0 20.000000000000004
vertex 10.000000000000007 0.0 20.000000000000004
endloop
endfacet
facet normal 0.0 -1.0 0.0
outer loop
vertex 85.30243526255875 0.0 0.024359497401757302
vertex 0.0 0.0 10.000000000000002
vertex 0.0 0.0 0.0
endloop
endfacet
facet normal 0.0 -1.0 0.0
outer loop
vertex 0.0 0.0 10.000000000000002
vertex 85.30243526255875 0.0 0.024359497401757302
vertex 87.9651660953283 0.0 0.19499504244020796
endloop
endfacet
facet normal 0.0 -1.0 0.0
outer loop
vertex 0.0 0.0 10.000000000000002
vertex 87.9651660953283 0.0 0.19499504244020796
vertex 90.48799180200463 0.0 1.0636735967658806
endloop
endfacet
facet normal 0.0 -1.0 0.0
outer loop
vertex 0.0 0.0 10.000000000000002
vertex 90.48799180200463 0.0 1.0636735967658806
vertex 92.69130606358858 0.0 2.568551745226062
endloop
endfacet
facet normal 0.0 -1.0 0.0
outer loop
vertex 0.0 0.0 10.000000000000002
vertex 92.69130606358858 0.0 2.568551745226062
vertex 94.41824938595258 0.0 4.602493420484878
endloop
endfacet
facet normal 0.0 -1.0 0.0
outer loop
vertex 0.0 0.0 10.000000000000002
vertex 94.41824938595258 0.0 4.602493420484878
vertex 95.54587632247733 0.0 7.0206971896151895
endloop
endfacet
facet normal 0.0 -1.0 0.0
outer loop
vertex 0.0 0.0 10.000000000000002
vertex 95.54587632247733 0.0 7.0206971896151895
vertex 85.0 0.0 7.500000000000006
endloop
endfacet
facet normal 0.0 -1.0 0.0
outer loop
vertex 0.0 0.0 10.000000000000002
vertex 85.0 0.0 7.500000000000006
vertex 84.3529523872437 0.0 7.585185434277335
endloop
endfacet
facet normal 0.0 -1.0 0.0
outer loop
vertex 0.0 0.0 10.000000000000002
vertex 84.3529523872437 0.0 7.585185434277335
vertex 83.75 0.0 7.834936490538909
endloop
endfacet
facet normal 0.0 -1.0 0.0
outer loop
vertex 0.0 0.0 10.000000000000002
vertex 83.75 0.0 7.834936490538909
vertex 83.23223304703365 0.0 8.232233047033635
endloop
endfacet
facet normal 0.0 -1.0 0.0
outer loop
vertex 0.0 0.0 10.000000000000002
vertex 83.23223304703365 0.0 8.232233047033635
vertex 82.83493649053891 0.0 8.750000000000002
endloop
endfacet
facet normal 0.0 -1.0 0.0
outer loop
vertex 0.0 0.0 10.000000000000002
vertex 82.83493649053891 0.0 8.750000000000002
vertex 82.58518543427734 0.0 9.3529523872437
endloop
endfacet
facet normal 0.0 -1.0 0.0
outer loop
vertex 0.0 0.0 10.000000000000002
vertex 82.58518543427734 0.0 9.3529523872437
vertex 82.5 0.0 10.000000000000002
endloop
endfacet
facet normal 0.0 -1.0 0.0
outer loop
vertex 0.0 0.0 10.000000000000002
vertex 82.5 0.0 10.000000000000002
vertex 82.58518543427734 0.0 10.647047612756301
endloop
endfacet
facet normal 0.0 -1.0 0.0
outer loop
vertex 0.0 0.0 10.000000000000002
vertex 82.58518543427734 0.0 10.647047612756301
vertex 0.085551386261896 0.0 11.305261922200518
endloop
endfacet
facet normal 0.0 -1.0 0.0
outer loop
vertex 0.085551386261896 0.0 11.305261922200518
vertex 82.58518543427734 0.0 10.647047612756301
vertex 82.83493649053891 0.0 11.25
endloop
endfacet
facet normal 0.0 -1.0 0.0
outer loop
vertex 0.085551386261896 0.0 11.305261922200518
vertex 82.83493649053891 0.0 11.25
vertex 83.23223304703365 0.0 11.767766952966365
endloop
endfacet
facet normal 0.0 -1.0 0.0
outer loop
vertex 0.085551386261896 0.0 11.305261922200518
vertex 83.23223304703365 0.0 11.767766952966365
vertex 0.34074173710931754 0.0 12.588190451025211
endloop
endfacet
facet normal 0.0 -1.0 0.0
outer loop
vertex 0.34074173710931754 0.0 12.588190451025211
vertex 83.23223304703365 0.0 11.767766952966365
vertex 83.75 0.0 12.165063509461094
endloop
endfacet
facet normal 0.0 -1.0 0.0
outer loop
vertex 0.34074173710931754 0.0 12.588190451025211
vertex 83.75 0.0 12.165063509461094
vertex 84.3529523872437 0.0 12.414814565722667
endloop
endfacet
facet normal 0.0 -1.0 0.0
outer loop
vertex 0.34074173710931754 0.0 12.588190451025211
vertex 84.3529523872437 0.0 12.414814565722667
vertex 85.0 0.0 12.499999999999996
endloop
endfacet
facet normal -0.13052619222005157 0.0 0.9914448613738105
outer loop
vertex 8.694738077799492 0.0 19.914448613738106
vertex 7.411809548974798 12.0 19.659258262890685
vertex 7.411809548974798 0.0 19.659258262890685
endloop
endfacet
facet normal -0.2588190451025204 0.0 0.9659258262890684
outer loop
vertex 7.411809548974798 12.0 19.659258262890685
vertex 8.694738077799492 0.0 19.914448613738106
vertex 8.694738077799492 12.0 19.914448613738106
endloop
endfacet
facet normal 0.25881904510252113 0.0 -0.9659258262890682
outer loop
vertex 84.3529523872437 12.0 12.414814565722667
vertex 83.75 0.0 12.165063509461094
vertex 83.75 12.0 12.165063509461094
endloop
endfacet
facet normal 0.500000000000002 0.0 -0.8660254037844377
outer loop
vertex 83.75 0.0 12.165063509461094
vertex 84.3529523872437 12.0 12.414814565722667
vertex 84.3529523872437 0.0 12.414814565722667
endloop
endfacet
facet normal -0.49999999999999883 0.0 0.8660254037844394
outer loop
vertex 5.000000000000003 0.0 18.66025403784439
vertex 3.9123857099127965 12.0 17.933533402912357
vertex 3.9123857099127965 0.0 17.933533402912357
endloop
endfacet
facet normal -0.6087614290087202 0.0 0.7933533402912356
outer loop
vertex 3.9123857099127965 12.0 17.933533402912357
vertex 5.000000000000003 0.0 18.66025403784439
vertex 5.000000000000003 12.0 18.66025403784439
endloop
endfacet
facet normal -0.9914448613738105 0.0 0.13052619222005166
outer loop
vertex 0.085551386261896 12.0 11.305261922200518
vertex 0.0 0.0 10.000000000000002
vertex 0.085551386261896 0.0 11.305261922200518
endloop
endfacet
facet normal -0.9978589232386036 0.0 0.0654031292301431
outer loop
vertex 0.0 0.0 10.000000000000002
vertex 0.085551386261896 12.0 11.305261922200518
vertex 0.0 12.0 10.000000000000002
endloop
endfacet
facet normal -0.8660254037844385 0.0 0.5000000000000003
outer loop
vertex 87.16506350946109 12.0 8.750000000000004
vertex 86.76776695296637 0.0 8.232233047033636
vertex 87.16506350946109 0.0 8.750000000000004
endloop
endfacet
facet normal -0.707106781186546 0.0 0.7071067811865491
outer loop
vertex 86.76776695296637 0.0 8.232233047033636
vertex 87.16506350946109 12.0 8.750000000000004
vertex 86.76776695296637 12.0 8.232233047033636
endloop
endfacet
facet normal 0.8774253979545819 0.0 0.4797131132502464
outer loop
vertex 94.77425397954582 12.0 14.797131132502468
vertex 93.1933980033865 0.0 16.946583704589976
vertex 94.77425397954582 0.0 14.797131132502468
endloop
endfacet
facet normal 0.7193398003386515 0.0 0.6946583704589969
outer loop
vertex 93.1933980033865 0.0 16.946583704589976
vertex 94.77425397954582 12.0 14.797131132502468
vertex 93.1933980033865 12.0 16.946583704589976
endloop
endfacet
facet normal 0.0 0.0 -1.0
outer loop
vertex 85.0 12.0 12.499999999999996
vertex 84.3529523872437 0.0 12.414814565722667
vertex 84.3529523872437 12.0 12.414814565722667
endloop
endfacet
facet normal 0.25881904510252113 0.0 -0.9659258262890682
outer loop
vertex 84.3529523872437 0.0 12.414814565722667
vertex 85.0 12.0 12.499999999999996
vertex 85.0 0.0 12.499999999999996
endloop
endfacet
facet normal 0.9993908270190959 0.0 -0.0348994967024988
outer loop
vertex 95.99390827019096 12.0 9.651005032974998
vertex 95.73044870579824 0.0 12.306158707424409
vertex 95.99390827019096 0.0 9.651005032974998
endloop
endfacet
facet normal 0.9730448705798236 0.0 0.23061587074244164
outer loop
vertex 95.73044870579824 0.0 12.306158707424409
vertex 95.99390827019096 12.0 9.651005032974998
vertex 95.73044870579824 12.0 12.306158707424409
endloop
endfacet
facet normal -0.8660254037844388 -0.4999999999999999 0.0
outer loop
vertex 16.165063509461106 7.250000000000003 20.000000000000004
vertex 16.41481456572268 6.647047612756304 0.005229651020295023
vertex 16.41481456572268 6.647047612756304 20.000000000000004
endloop
endfacet
facet normal -0.9659258262890685 -0.25881904510252046 0.0
outer loop
vertex 16.41481456572268 6.647047612756304 0.005229651020295023
vertex 16.165063509461106 7.250000000000003 20.000000000000004
vertex 16.165063509461106 7.250000000000003 0.005229651020295023
endloop
endfacet
facet normal -0.7071067811865462 -0.7071067811865489 0.0
outer loop
vertex 15.767766952966378 7.767766952966371 20.000000000000004
vertex 16.165063509461106 7.250000000000003 0.005229651020295023
vertex 16.165063509461106 7.250000000000003 20.000000000000004
endloop
endfacet
facet normal -0.8660254037844388 -0.4999999999999999 0.0
outer loop
vertex 16.165063509461106 7.250000000000003 0.005229651020295023
vertex 15.767766952966378 7.767766952966371 20.000000000000004
vertex 15.767766952966378 7.767766952966371 0.005229651020295023
endloop
endfacet
facet normal -0.25881904510252113 -0.9659258262890682 0.0
outer loop
vertex 14.64704761275631 8.414814565722672 20.000000000000004
vertex 14.000000000000009 8.500000000000002 0.005229651020295023
vertex 14.64704761275631 8.414814565722672 0.005229651020295023
endloop
endfacet
facet normal -2.940666265563479e-16 -1.0 0.0
outer loop
vertex 14.000000000000009 8.500000000000002 0.005229651020295023
vertex 14.64704761275631 8.414814565722672 20.000000000000004
vertex 14.000000000000009 8.500000000000002 20.000000000000004
endloop
endfacet
facet normal 0.2588190451025219 -0.9659258262890681 0.0
outer loop
vertex 13.352952387243704 8.414814565722672 20.000000000000004
vertex 12.750000000000007 8.165063509461097 0.005229651020295023
vertex 13.352952387243704 8.414814565722672 0.005229651020295023
endloop
endfacet
facet normal 0.5000000000000004 -0.8660254037844384 0.0
outer loop
vertex 12.750000000000007 8.165063509461097 0.005229651020295023
vertex 13.352952387243704 8.414814565722672 20.000000000000004
vertex 12.750000000000007 8.165063509461097 20.000000000000004
endloop
endfacet
facet normal 0.0 1.0 0.0
outer loop
vertex 14.000000000000009 3.499999999999999 20.000000000000004
vertex 14.64704761275631 3.5851854342773284 0.005229651020295023
vertex 14.000000000000009 3.499999999999999 0.005229651020295023
endloop
endfacet
facet normal -0.25881904510252035 0.9659258262890684 0.0
outer loop
vertex 14.64704761275631 3.5851854342773284 0.005229651020295023
vertex 14.000000000000009 3.499999999999999 20.000000000000004
vertex 14.64704761275631 3.5851854342773284 20.000000000000004
endloop
endfacet
facet normal 0.9659258262890684 -0.25881904510252035 0.0
outer loop
vertex 11.585185434277337 6.647047612756301 0.005229651020295023
vertex 11.500000000000007 6.0 20.000000000000004
vertex 11.500000000000007 6.0 0.005229651020295023
endloop
endfacet
facet normal 1.0 -1.514888682259974e-16 0.0
outer loop
vertex 11.500000000000007 6.0 20.000000000000004
vertex 11.585185434277337 6.647047612756301 0.005229651020295023
vertex 11.585185434277337 6.647047612756301 20.000000000000004
endloop
endfacet
facet normal 0.25881904510252035 0.9659258262890684 0.0
outer loop
vertex 13.352952387243707 3.5851854342773284 20.000000000000004
vertex 14.000000000000009 3.499999999999999 0.005229651020295023
vertex 13.352952387243707 3.5851854342773284 0.005229651020295023
endloop
endfacet
facet normal 0.0 1.0 0.0
outer loop
vertex 14.000000000000009 3.499999999999999 0.005229651020295023
vertex 13.352952387243707 3.5851854342773284 20.000000000000004
vertex 14.000000000000009 3.499999999999999 20.000000000000004
endloop
endfacet
facet normal 0.4999999999999999 0.8660254037844387 0.0
outer loop
vertex 12.750000000000007 3.8349364905389023 20.000000000000004
vertex 13.352952387243707 3.5851854342773284 0.005229651020295023
vertex 12.750000000000007 3.8349364905389023 0.005229651020295023
endloop
endfacet
facet normal 0.25881904510252035 0.9659258262890684 0.0
outer loop
vertex 13.352952387243707 3.5851854342773284 0.005229651020295023
vertex 12.750000000000007 3.8349364905389023 20.000000000000004
vertex 13.352952387243707 3.5851854342773284 20.000000000000004
endloop
endfacet
facet normal 0.8660254037844384 0.5000000000000004 0.0
outer loop
vertex 11.83493649053891 4.749999999999999 0.005229651020295023
vertex 12.23223304703364 4.23223304703363 20.000000000000004
vertex 12.23223304703364 4.23223304703363 0.005229651020295023
endloop
endfacet
facet normal 0.7071067811865472 0.7071067811865478 0.0
outer loop
vertex 12.23223304703364 4.23223304703363 20.000000000000004
vertex 11.83493649053891 4.749999999999999 0.005229651020295023
vertex 11.83493649053891 4.749999999999999 20.000000000000004
endloop
endfacet
facet normal 0.707106781186547 -0.707106781186548 0.0
outer loop
vertex 12.232233047033638 7.767766952966369 0.005229651020295023
vertex 11.83493649053891 7.250000000000001 20.000000000000004
vertex 11.83493649053891 7.250000000000001 0.005229651020295023
endloop
endfacet
facet normal 0.8660254037844389 -0.4999999999999995 0.0
outer loop
vertex 11.83493649053891 7.250000000000001 20.000000000000004
vertex 12.232233047033638 7.767766952966369 0.005229651020295023
vertex 12.232233047033638 7.767766952966369 20.000000000000004
endloop
endfacet
facet normal -0.4999999999999985 -0.8660254037844395 0.0
outer loop
vertex 15.250000000000005 8.165063509461099 20.000000000000004
vertex 14.64704761275631 8.414814565722672 0.005229651020295023
vertex 15.250000000000005 8.165063509461099 0.005229651020295023
endloop
endfacet
facet normal -0.25881904510252113 -0.9659258262890682 0.0
outer loop
vertex 14.64704761275631 8.414814565722672 0.005229651020295023
vertex 15.250000000000005 8.165063509461099 20.000000000000004
vertex 14.64704761275631 8.414814565722672 20.000000000000004
endloop
endfacet
facet normal 0.9659258262890684 0.2588190451025204 0.0
outer loop
vertex 11.585185434277337 5.352952387243698 0.005229651020295023
vertex 11.83493649053891 4.749999999999999 20.000000000000004
vertex 11.83493649053891 4.749999999999999 0.005229651020295023
endloop
endfacet
facet normal 0.8660254037844384 0.5000000000000004 0.0
outer loop
vertex 11.83493649053891 4.749999999999999 20.000000000000004
vertex 11.585185434277337 5.352952387243698 0.005229651020295023
vertex 11.585185434277337 5.352952387243698 20.000000000000004
endloop
endfacet
facet normal 0.8660254037844389 -0.4999999999999995 0.0
outer loop
vertex 11.83493649053891 7.250000000000001 0.005229651020295023
vertex 11.585185434277337 6.647047612756301 20.000000000000004
vertex 11.585185434277337 6.647047612756301 0.005229651020295023
endloop
endfacet
facet normal 0.9659258262890684 -0.25881904510252035 0.0
outer loop
vertex 11.585185434277337 6.647047612756301 20.000000000000004
vertex 11.83493649053891 7.250000000000001 0.005229651020295023
vertex 11.83493649053891 7.250000000000001 20.000000000000004
endloop
endfacet
facet normal 0.7071067811865472 0.7071067811865478 0.0
outer loop
vertex 12.23223304703364 4.23223304703363 20.000000000000004
vertex 12.750000000000007 3.8349364905389023 0.005229651020295023
vertex 12.23223304703364 4.23223304703363 0.005229651020295023
endloop
endfacet
facet normal 0.4999999999999999 0.8660254037844387 0.0
outer loop
vertex 12.750000000000007 3.8349364905389023 0.005229651020295023
vertex 12.23223304703364 4.23223304703363 20.000000000000004
vertex 12.750000000000007 3.8349364905389023 20.000000000000004
endloop
endfacet
facet normal 1.0 -1.514888682259974e-16 0.0
outer loop
vertex 11.500000000000007 6.0 0.005229651020295023
vertex 11.585185434277337 5.352952387243698 20.000000000000004
vertex 11.585185434277337 5.352952387243698 0.005229651020295023
endloop
endfacet
facet normal 0.9659258262890684 0.2588190451025204 0.0
outer loop
vertex 11.585185434277337 5.352952387243698 20.000000000000004
vertex 11.500000000000007 6.0 0.005229651020295023
vertex 11.500000000000007 6.0 20.000000000000004
endloop
endfacet
facet normal -1.0 2.2277774739117265e-16 0.0
outer loop
vertex 16.50000000000001 6.0 20.000000000000004
vertex 16.41481456572268 5.352952387243699 0.005229651020295023
vertex 16.41481456572268 5.352952387243699 20.000000000000004
endloop
endfacet
facet normal -0.9659258262890684 0.2588190451025205 0.0
outer loop
vertex 16.41481456572268 5.352952387243699 0.005229651020295023
vertex 16.50000000000001 6.0 20.000000000000004
vertex 16.50000000000001 6.0 0.005229651020295023
endloop
endfacet
facet normal -2.940666265563479e-16 -1.0 0.0
outer loop
vertex 14.000000000000009 8.500000000000002 20.000000000000004
vertex 13.352952387243704 8.414814565722672 0.005229651020295023
vertex 14.000000000000009 8.500000000000002 0.005229651020295023
endloop
endfacet
facet normal 0.2588190451025219 -0.9659258262890681 0.0
outer loop
vertex 13.352952387243704 8.414814565722672 0.005229651020295023
vertex 14.000000000000009 8.500000000000002 20.000000000000004
vertex 13.352952387243704 8.414814565722672 20.000000000000004
endloop
endfacet
facet normal 0.5000000000000004 -0.8660254037844384 0.0
outer loop
vertex 12.750000000000007 8.165063509461097 20.000000000000004
vertex 12.232233047033638 7.767766952966369 0.005229651020295023
vertex 12.750000000000007 8.165063509461097 0.005229651020295023
endloop
endfacet
facet normal 0.707106781186547 -0.707106781186548 0.0
outer loop
vertex 12.232233047033638 7.767766952966369 0.005229651020295023
vertex 12.750000000000007 8.165063509461097 20.000000000000004
vertex 12.232233047033638 7.767766952966369 20.000000000000004
endloop
endfacet
facet normal -0.9659258262890685 -0.25881904510252046 0.0
outer loop
vertex 16.41481456572268 6.647047612756304 20.000000000000004
vertex 16.50000000000001 6.0 0.005229651020295023
vertex 16.50000000000001 6.0 20.000000000000004
endloop
endfacet
facet normal -1.0 2.2277774739117265e-16 0.0
outer loop
vertex 16.50000000000001 6.0 0.005229651020295023
vertex 16.41481456572268 6.647047612756304 20.000000000000004
vertex 16.41481456572268 6.647047612756304 0.005229651020295023
endloop
endfacet
facet normal -0.7071067811865462 -0.7071067811865489 0.0
outer loop
vertex 15.767766952966378 7.767766952966371 20.000000000000004
vertex 15.250000000000005 8.165063509461099 0.005229651020295023
vertex 15.767766952966378 7.767766952966371 0.005229651020295023
endloop
endfacet
facet normal -0.4999999999999985 -0.8660254037844395 0.0
outer loop
vertex 15.250000000000005 8.165063509461099 0.005229651020295023
vertex 15.767766952966378 7.767766952966371 20.000000000000004
vertex 15.250000000000005 8.165063509461099 20.000000000000004
endloop
endfacet
facet normal -0.8660254037844389 0.4999999999999997 0.0
outer loop
vertex 16.165063509461106 4.75 20.000000000000004
vertex 15.767766952966378 4.232233047033631 0.005229651020295023
vertex 15.767766952966378 4.232233047033631 20.000000000000004
endloop
endfacet
facet normal -0.7071067811865477 0.7071067811865475 0.0
outer loop
vertex 15.767766952966378 4.232233047033631 0.005229651020295023
vertex 16.165063509461106 4.75 20.000000000000004
vertex 16.165063509461106 4.75 0.005229651020295023
endloop
endfacet
facet normal -0.9659258262890684 0.2588190451025205 0.0
outer loop
vertex 16.41481456572268 5.352952387243699 20.000000000000004
vertex 16.165063509461106 4.75 0.005229651020295023
vertex 16.165063509461106 4.75 20.000000000000004
endloop
endfacet
facet normal -0.8660254037844389 0.4999999999999997 0.0
outer loop
vertex 16.165063509461106 4.75 0.005229651020295023
vertex 16.41481456572268 5.352952387243699 20.000000000000004
vertex 16.41481456572268 5.352952387243699 0.005229651020295023
endloop
endfacet
facet normal -0.25881904510252035 0.9659258262890684 0.0
outer loop
vertex 14.64704761275631 3.5851854342773284 20.000000000000004
vertex 15.250000000000009 3.8349364905389023 0.005229651020295023
vertex 14.64704761275631 3.5851854342773284 0.005229651020295023
endloop
endfacet
facet normal -0.4999999999999997 0.8660254037844389 0.0
outer loop
vertex 15.250000000000009 3.8349364905389023 0.005229651020295023
vertex 14.64704761275631 3.5851854342773284 20.000000000000004
vertex 15.250000000000009 3.8349364905389023 20.000000000000004
endloop
endfacet
facet normal -0.4999999999999997 0.8660254037844389 0.0
outer loop
vertex 15.250000000000009 3.8349364905389023 20.000000000000004
vertex 15.767766952966378 4.232233047033631 0.005229651020295023
vertex 15.250000000000009 3.8349364905389023 0.005229651020295023
endloop
endfacet
facet normal -0.7071067811865477 0.7071067811865475 0.0
outer loop
vertex 15.767766952966378 4.232233047033631 0.005229651020295023
vertex 15.250000000000009 3.8349364905389023 20.000000000000004
vertex 15.767766952966378 4.232233047033631 20.000000000000004
endloop
endfacet
facet normal 0.2644341620372018 0.0 0.9644037401149391
outer loop
vertex 88.64434162037202 0.0 19.64403740114939
vertex 86.0 12.0 20.000000000000004
vertex 86.0 0.0 20.000000000000004
endloop
endfacet
facet normal 0.133409632120513 0.0 0.9910609820073987
outer loop
vertex 86.0 12.0 20.000000000000004
vertex 88.64434162037202 0.0 19.64403740114939
vertex 88.64434162037202 12.0 19.64403740114939
endloop
endfacet
facet normal 0.5100425897656752 0.0 0.8601491478953655
outer loop
vertex 91.10042589765675 0.0 18.60149147895366
vertex 88.64434162037202 12.0 19.64403740114939
vertex 88.64434162037202 0.0 19.64403740114939
endloop
endfacet
facet normal 0.2644341620372018 0.0 0.9644037401149391
outer loop
vertex 88.64434162037202 12.0 19.64403740114939
vertex 91.10042589765675 0.0 18.60149147895366
vertex 91.10042589765675 12.0 18.60149147895366
endloop
endfacet
facet normal 0.9659258262890688 0.0 -0.2588190451025191
outer loop
vertex 82.58518543427734 12.0 10.647047612756301
vertex 82.83493649053891 0.0 11.25
vertex 82.58518543427734 0.0 10.647047612756301
endloop
endfacet
facet normal 0.8660254037844386 0.0 -0.4999999999999999
outer loop
vertex 82.83493649053891 0.0 11.25
vertex 82.58518543427734 12.0 10.647047612756301
vertex 82.83493649053891 12.0 11.25
endloop
endfacet
facet normal 0.9730448705798236 0.0 0.23061587074244164
outer loop
vertex 95.73044870579824 12.0 12.306158707424409
vertex 94.77425397954582 0.0 14.797131132502468
vertex 95.73044870579824 0.0 12.306158707424409
endloop
endfacet
facet normal 0.8774253979545819 0.0 0.4797131132502464
outer loop
vertex 94.77425397954582 0.0 14.797131132502468
vertex 95.73044870579824 12.0 12.306158707424409
vertex 94.77425397954582 12.0 14.797131132502468
endloop
endfacet
facet normal 0.965925826289069 0.0 0.25881904510251896
outer loop
vertex 82.58518543427734 12.0 9.3529523872437
vertex 82.5 0.0 10.000000000000002
vertex 82.58518543427734 0.0 9.3529523872437
endloop
endfacet
facet normal 1.0 0.0 -1.4257775833035053e-16
outer loop
vertex 82.5 0.0 10.000000000000002
vertex 82.58518543427734 12.0 9.3529523872437
vertex 82.5 12.0 10.000000000000002
endloop
endfacet
facet normal 0.0 0.0 1.0
outer loop
vertex 10.000000000000007 0.0 20.000000000000004
vertex 11.585185434277337 5.352952387243698 20.000000000000004
vertex 10.000000000000007 12.0 20.000000000000004
endloop
endfacet
facet normal 0.0 0.0 1.0
outer loop
vertex 11.585185434277337 5.352952387243698 20.000000000000004
vertex 10.000000000000007 0.0 20.000000000000004
vertex 11.83493649053891 4.749999999999999 20.000000000000004
endloop
endfacet
facet normal 0.0 0.0 1.0
outer loop
vertex 11.83493649053891 4.749999999999999 20.000000000000004
vertex 10.000000000000007 0.0 20.000000000000004
vertex 12.23223304703364 4.23223304703363 20.000000000000004
endloop
endfacet
facet normal 0.0 0.0 1.0
outer loop
vertex 12.23223304703364 4.23223304703363 20.000000000000004
vertex 10.000000000000007 0.0 20.000000000000004
vertex 12.750000000000007 3.8349364905389023 20.000000000000004
endloop
endfacet
facet normal 0.0 0.0 1.0
outer loop
vertex 12.750000000000007 3.8349364905389023 20.000000000000004
vertex 10.000000000000007 0.0 20.000000000000004
vertex 13.352952387243707 3.5851854342773284 20.000000000000004
endloop
endfacet
facet normal 0.0 0.0 1.0
outer loop
vertex 13.352952387243707 3.5851854342773284 20.000000000000004
vertex 10.000000000000007 0.0 20.000000000000004
vertex 14.000000000000009 3.499999999999999 20.000000000000004
endloop
endfacet
facet normal 0.0 0.0 1.0
outer loop
vertex 14.000000000000009 3.499999999999999 20.000000000000004
vertex 10.000000000000007 0.0 20.000000000000004
vertex 86.0 0.0 20.000000000000004
endloop
endfacet
facet normal 0.0 0.0 1.0
outer loop
vertex 10.000000000000007 12.0 20.000000000000004
vertex 11.585185434277337 5.352952387243698 20.000000000000004
vertex 11.500000000000007 6.0 20.000000000000004
endloop
endfacet
facet normal 0.0 0.0 1.0
outer loop
vertex 14.000000000000009 3.499999999999999 20.000000000000004
vertex 86.0 0.0 20.000000000000004
vertex 14.64704761275631 3.5851854342773284 20.000000000000004
endloop
endfacet
facet normal 0.0 0.0 1.0
outer loop
vertex 14.64704761275631 3.5851854342773284 20.000000000000004
vertex 86.0 0.0 20.000000000000004
vertex 15.250000000000009 3.8349364905389023 20.000000000000004
endloop
endfacet
facet normal 0.0 0.0 1.0
outer loop
vertex 15.250000000000009 3.8349364905389023 20.000000000000004
vertex 86.0 0.0 20.000000000000004
vertex 15.767766952966378 4.232233047033631 20.000000000000004
endloop
endfacet
facet normal 0.0 0.0 1.0
outer loop
vertex 15.767766952966378 4.232233047033631 20.000000000000004
vertex 86.0 0.0 20.000000000000004
vertex 16.165063509461106 4.75 20.000000000000004
endloop
endfacet
facet normal 0.0 0.0 1.0
outer loop
vertex 16.165063509461106 4.75 20.000000000000004
vertex 86.0 0.0 20.000000000000004
vertex 35.0 3.499999999999999 20.000000000000004
endloop
endfacet
facet normal 0.0 0.0 1.0
outer loop
vertex 16.165063509461106 4.75 20.000000000000004
vertex 35.0 3.499999999999999 20.000000000000004
vertex 16.41481456572268 5.352952387243699 20.000000000000004
endloop
endfacet
facet normal 0.0 0.0 1.0
outer loop
vertex 16.41481456572268 5.352952387243699 20.000000000000004
vertex 35.0 3.499999999999999 20.000000000000004
vertex 34.352952387243704 3.5851854342773284 20.000000000000004
endloop
endfacet
facet normal 0.0 0.0 1.0
outer loop
vertex 16.41481456572268 5.352952387243699 20.000000000000004
vertex 34.352952387243704 3.5851854342773284 20.000000000000004
vertex 16.50000000000001 6.0 20.000000000000004
endloop
endfacet
facet normal 0.0 0.0 1.0
outer loop
vertex 16.50000000000001 6.0 20.000000000000004
vertex 34.352952387243704 3.5851854342773284 20.000000000000004
vertex 33.75000000000001 3.8349364905389023 20.000000000000004
endloop
endfacet
facet normal 0.0 0.0 1.0
outer loop
vertex 16.50000000000001 6.0 20.000000000000004
vertex 33.75000000000001 3.8349364905389023 20.000000000000004
vertex 33.23223304703364 4.23223304703363 20.000000000000004
endloop
endfacet
facet normal 0.0 0.0 1.0
outer loop
vertex 16.50000000000001 6.0 20.000000000000004
vertex 33.23223304703364 4.23223304703363 20.000000000000004
vertex 32.83493649053891 4.749999999999999 20.000000000000004
endloop
endfacet
facet normal 0.0 0.0 1.0
outer loop
vertex 16.50000000000001 6.0 20.000000000000004
vertex 32.83493649053891 4.749999999999999 20.000000000000004
vertex 32.58518543427733 5.352952387243698 20.000000000000004
endloop
endfacet
facet normal 0.0 0.0 1.0
outer loop
vertex 16.50000000000001 6.0 20.000000000000004
vertex 32.58518543427733 5.352952387243698 20.000000000000004
vertex 32.5 6.0 20.000000000000004
endloop
endfacet
facet normal 0.0 0.0 1.0
outer loop
vertex 35.0 3.499999999999999 20.000000000000004
vertex 86.0 0.0 20.000000000000004
vertex 35.6470476127563 3.5851854342773284 20.000000000000004
endloop
endfacet
facet normal 0.0 0.0 1.0
outer loop
vertex 35.6470476127563 3.5851854342773284 20.000000000000004
vertex 86.0 0.0 20.000000000000004
vertex 36.25000000000001 3.8349364905389023 20.000000000000004
endloop
endfacet
facet normal 0.0 0.0 1.0
outer loop
vertex 36.25000000000001 3.8349364905389023 20.000000000000004
vertex 86.0 0.0 20.000000000000004
vertex 36.76776695296637 4.232233047033631 20.000000000000004
endloop
endfacet
facet normal 0.0 0.0 1.0
outer loop
vertex 36.76776695296637 4.232233047033631 20.000000000000004
vertex 86.0 0.0 20.000000000000004
vertex 37.1650635094611 4.75 20.000000000000004
endloop
endfacet
facet normal 0.0 0.0 1.0
outer loop
vertex 37.1650635094611 4.75 20.000000000000004
vertex 86.0 0.0 20.000000000000004
vertex 37.41481456572268 5.352952387243699 20.000000000000004
endloop
endfacet
facet normal 0.0 0.0 1.0
outer loop
vertex 37.41481456572268 5.352952387243699 20.000000000000004
vertex 86.0 0.0 20.000000000000004
vertex 37.50000000000001 6.0 20.000000000000004
endloop
endfacet
facet normal 0.0 0.0 1.0
outer loop
vertex 10.000000000000007 12.0 20.000000000000004
vertex 14.000000000000009 8.500000000000002 20.000000000000004
vertex 86.0 12.0 20.000000000000004
endloop
endfacet
facet normal 0.0 0.0 1.0
outer loop
vertex 14.000000000000009 8.500000000000002 20.000000000000004
vertex 10.000000000000007 12.0 20.000000000000004
vertex 13.352952387243704 8.414814565722672 20.000000000000004
endloop
endfacet
facet normal 0.0 0.0 1.0
outer loop
vertex 13.352952387243704 8.414814565722672 20.000000000000004
vertex 10.000000000000007 12.0 20.000000000000004
vertex 12.750000000000007 8.165063509461097 20.000000000000004
endloop
endfacet
facet normal 0.0 0.0 1.0
outer loop
vertex 12.750000000000007 8.165063509461097 20.000000000000004
vertex 10.000000000000007 12.0 20.000000000000004
vertex 12.232233047033638 7.767766952966369 20.000000000000004
endloop
endfacet
facet normal 0.0 0.0 1.0
outer loop
vertex 12.232233047033638 7.767766952966369 20.000000000000004
vertex 10.000000000000007 12.0 20.000000000000004
vertex 11.83493649053891 7.250000000000001 20.000000000000004
endloop
endfacet
facet normal 0.0 0.0 1.0
outer loop
vertex 11.83493649053891 7.250000000000001 20.000000000000004
vertex 10.000000000000007 12.0 20.000000000000004
vertex 11.585185434277337 6.647047612756301 20.000000000000004
endloop
endfacet
facet normal 0.0 0.0 1.0
outer loop
vertex 11.585185434277337 6.647047612756301 20.000000000000004
vertex 10.000000000000007 12.0 20.000000000000004
vertex 11.500000000000007 6.0 20.000000000000004
endloop
endfacet
facet normal 0.0 0.0 1.0
outer loop
vertex 86.0 12.0 20.000000000000004
vertex 14.000000000000009 8.500000000000002 20.000000000000004
vertex 14.64704761275631 8.414814565722672 20.000000000000004
endloop
endfacet
facet normal 0.0 0.0 1.0
outer loop
vertex 86.0 12.0 20.000000000000004
vertex 14.64704761275631 8.414814565722672 20.000000000000004
vertex 15.250000000000005 8.165063509461099 20.000000000000004
endloop
endfacet
facet normal 0.0 0.0 1.0
outer loop
vertex 86.0 12.0 20.000000000000004
vertex 15.250000000000005 8.165063509461099 20.000000000000004
vertex 15.767766952966378 7.767766952966371 20.000000000000004
endloop
endfacet
facet normal 0.0 0.0 1.0
outer loop
vertex 86.0 12.0 20.000000000000004
vertex 15.767766952966378 7.767766952966371 20.000000000000004
vertex 16.165063509461106 7.250000000000003 20.000000000000004
endloop
endfacet
facet normal 0.0 0.0 1.0
outer loop
vertex 86.0 12.0 20.000000000000004
vertex 16.165063509461106 7.250000000000003 20.000000000000004
vertex 35.0 8.500000000000002 20.000000000000004
endloop
endfacet
facet normal 0.0 0.0 1.0
outer loop
vertex 35.0 8.500000000000002 20.000000000000004
vertex 16.165063509461106 7.250000000000003 20.000000000000004
vertex 16.41481456572268 6.647047612756304 20.000000000000004
endloop
endfacet
facet normal 0.0 0.0 1.0
outer loop
vertex 35.0 8.500000000000002 20.000000000000004
vertex 16.41481456572268 6.647047612756304 20.000000000000004
vertex 34.352952387243704 8.414814565722672 20.000000000000004
endloop
endfacet
facet normal 0.0 0.0 1.0
outer loop
vertex 34.352952387243704 8.414814565722672 20.000000000000004
vertex 16.41481456572268 6.647047612756304 20.000000000000004
vertex 16.50000000000001 6.0 20.000000000000004
endloop
endfacet
facet normal 0.0 0.0 1.0
outer loop
vertex 34.352952387243704 8.414814565722672 20.000000000000004
vertex 16.50000000000001 6.0 20.000000000000004
vertex 33.75 8.165063509461097 20.000000000000004
endloop
endfacet
facet normal 0.0 0.0 1.0
outer loop
vertex 33.75 8.165063509461097 20.000000000000004
vertex 16.50000000000001 6.0 20.000000000000004
vertex 33.23223304703363 7.767766952966369 20.000000000000004
endloop
endfacet
facet normal 0.0 0.0 1.0
outer loop
vertex 33.23223304703363 7.767766952966369 20.000000000000004
vertex 16.50000000000001 6.0 20.000000000000004
vertex 32.83493649053891 7.250000000000001 20.000000000000004
endloop
endfacet
facet normal 0.0 0.0 1.0
outer loop
vertex 32.83493649053891 7.250000000000001 20.000000000000004
vertex 16.50000000000001 6.0 20.000000000000004
vertex 32.58518543427733 6.647047612756301 20.000000000000004
endloop
endfacet
facet normal 0.0 0.0 1.0
outer loop
vertex 32.58518543427733 6.647047612756301 20.000000000000004
vertex 16.50000000000001 6.0 20.000000000000004
vertex 32.5 6.0 20.000000000000004
endloop
endfacet
facet normal 0.0 0.0 1.0
outer loop
vertex 86.0 12.0 20.000000000000004
vertex 35.0 8.500000000000002 20.000000000000004
vertex 35.6470476127563 8.414814565722672 20.000000000000004
endloop
endfacet
facet normal 0.0 0.0 1.0
outer loop
vertex 86.0 12.0 20.000000000000004
vertex 35.6470476127563 8.414814565722672 20.000000000000004
vertex 36.25 8.165063509461099 20.000000000000004
endloop
endfacet
facet normal 0.0 0.0 1.0
outer loop
vertex 86.0 12.0 20.000000000000004
vertex 36.25 8.165063509461099 20.000000000000004
vertex 36.76776695296637 7.767766952966371 20.000000000000004
endloop
endfacet
facet normal 0.0 0.0 1.0
outer loop
vertex 86.0 12.0 20.000000000000004
vertex 36.76776695296637 7.767766952966371 20.000000000000004
vertex 37.1650635094611 7.250000000000003 20.000000000000004
endloop
endfacet
facet normal 0.0 0.0 1.0
outer loop
vertex 86.0 12.0 20.000000000000004
vertex 37.1650635094611 7.250000000000003 20.000000000000004
vertex 37.41481456572267 6.647047612756304 20.000000000000004
endloop
endfacet
facet normal 0.0 0.0 1.0
outer loop
vertex 86.0 12.0 20.000000000000004
vertex 37.41481456572267 6.647047612756304 20.000000000000004
vertex 37.50000000000001 6.0 20.000000000000004
endloop
endfacet
facet normal 0.0 0.0 1.0
outer loop
vertex 86.0 12.0 20.000000000000004
vertex 37.50000000000001 6.0 20.000000000000004
vertex 86.0 0.0 20.000000000000004
endloop
endfacet
facet normal -0.06540312923014317 0.0 0.9978589232386036
outer loop
vertex 10.000000000000007 0.0 20.000000000000004
vertex 8.694738077799492 12.0 19.914448613738106
vertex 8.694738077799492 0.0 19.914448613738106
endloop
endfacet
facet normal -0.13052619222005157 0.0 0.9914448613738105
outer loop
vertex 8.694738077799492 12.0 19.914448613738106
vertex 10.000000000000007 0.0 20.000000000000004
vertex 10.000000000000007 12.0 20.000000000000004
endloop
endfacet
facet normal 0.7071067811865455 0.0 0.7071067811865496
outer loop
vertex 83.23223304703365 12.0 8.232233047033635
vertex 82.83493649053891 0.0 8.750000000000002
vertex 83.23223304703365 0.0 8.232233047033635
endloop
endfacet
facet normal 0.8660254037844386 0.0 0.4999999999999999
outer loop
vertex 82.83493649053891 0.0 8.750000000000002
vertex 83.23223304703365 12.0 8.232233047033635
vertex 82.83493649053891 12.0 8.750000000000002
endloop
endfacet
facet normal 0.0 1.0 0.0
outer loop
vertex 0.0 12.0 10.000000000000002
vertex 85.30243526255875 12.0 0.024359497401757302
vertex 0.0 12.0 0.0
endloop
endfacet
facet normal 0.0 1.0 0.0
outer loop
vertex 85.30243526255875 12.0 0.024359497401757302
vertex 0.0 12.0 10.000000000000002
vertex 87.9651660953283 12.0 0.19499504244020796
endloop
endfacet
facet normal 0.0 1.0 0.0
outer loop
vertex 87.9651660953283 12.0 0.19499504244020796
vertex 0.0 12.0 10.000000000000002
vertex 90.48799180200463 12.0 1.0636735967658806
endloop
endfacet
facet normal 0.0 1.0 0.0
outer loop
vertex 90.48799180200463 12.0 1.0636735967658806
vertex 0.0 12.0 10.000000000000002
vertex 92.69130606358858 12.0 2.568551745226062
endloop
endfacet
facet normal 0.0 1.0 0.0
outer loop
vertex 92.69130606358858 12.0 2.568551745226062
vertex 0.0 12.0 10.000000000000002
vertex 94.41824938595258 12.0 4.602493420484878
endloop
endfacet
facet normal 0.0 1.0 0.0
outer loop
vertex 94.41824938595258 12.0 4.602493420484878
vertex 0.0 12.0 10.000000000000002
vertex 95.54587632247733 12.0 7.0206971896151895
endloop
endfacet
facet normal 0.0 1.0 0.0
outer loop
vertex 95.54587632247733 12.0 7.0206971896151895
vertex 0.0 12.0 10.000000000000002
vertex 85.0 12.0 7.500000000000006
endloop
endfacet
facet normal 0.0 1.0 0.0
outer loop
vertex 85.0 12.0 7.500000000000006
vertex 0.0 12.0 10.000000000000002
vertex 84.3529523872437 12.0 7.585185434277335
endloop
endfacet
facet normal 0.0 1.0 0.0
outer loop
vertex 84.3529523872437 12.0 7.585185434277335
vertex 0.0 12.0 10.000000000000002
vertex 83.75 12.0 7.834936490538909
endloop
endfacet
facet normal 0.0 1.0 0.0
outer loop
vertex 83.75 12.0 7.834936490538909
vertex 0.0 12.0 10.000000000000002
vertex 83.23223304703365 12.0 8.232233047033635
endloop
endfacet
facet normal 0.0 1.0 0.0
outer loop
vertex 83.23223304703365 12.0 8.232233047033635
vertex 0.0 12.0 10.000000000000002
vertex 82.83493649053891 12.0 8.750000000000002
endloop
endfacet
facet normal 0.0 1.0 0.0
outer loop
vertex 82.83493649053891 12.0 8.750000000000002
vertex 0.0 12.0 10.000000000000002
vertex 82.58518543427734 12.0 9.3529523872437
endloop
endfacet
facet normal 0.0 1.0 0.0
outer loop
vertex 82.58518543427734 12.0 9.3529523872437
vertex 0.0 12.0 10.000000000000002
vertex 82.5 12.0 10.000000000000002
endloop
endfacet
facet normal 0.0 1.0 0.0
outer loop
vertex 82.5 12.0 10.000000000000002
vertex 0.0 12.0 10.000000000000002
vertex 0.085551386261896 12.0 11.305261922200518
endloop
endfacet
facet normal 0.0 1.0 0.0
outer loop
vertex 82.5 12.0 10.000000000000002
vertex 0.085551386261896 12.0 11.305261922200518
vertex 82.58518543427734 12.0 10.647047612756301
endloop
endfacet
facet normal 0.0 1.0 0.0
outer loop
vertex 82.58518543427734 12.0 10.647047612756301
vertex 0.085551386261896 12.0 11.305261922200518
vertex 82.83493649053891 12.0 11.25
endloop
endfacet
facet normal 0.0 1.0 0.0
outer loop
vertex 82.83493649053891 12.0 11.25
vertex 0.085551386261896 12.0 11.305261922200518
vertex 83.23223304703365 12.0 11.767766952966365
endloop
endfacet
facet normal 0.0 1.0 0.0
outer loop
vertex 83.23223304703365 12.0 11.767766952966365
vertex 0.085551386261896 12.0 11.305261922200518
vertex 0.34074173710931754 12.0 12.588190451025211
endloop
endfacet
facet normal 0.0 1.0 0.0
outer loop
vertex 83.23223304703365 12.0 11.767766952966365
vertex 0.34074173710931754 12.0 12.588190451025211
vertex 83.75 12.0 12.165063509461094
endloop
endfacet
facet normal 0.0 1.0 0.0
outer loop
vertex 83.75 12.0 12.165063509461094
vertex 0.34074173710931754 12.0 12.588190451025211
vertex 84.3529523872437 12.0 12.414814565722667
endloop
endfacet
facet normal 0.0 1.0 0.0
outer loop
vertex 84.3529523872437 12.0 12.414814565722667
vertex 0.34074173710931754 12.0 12.588190451025211
vertex 85.0 12.0 12.499999999999996
endloop
endfacet
facet normal 0.0 1.0 0.0
outer loop
vertex 95.54587632247733 12.0 7.0206971896151895
vertex 85.64704761275631 12.0 7.585185434277335
vertex 95.99390827019096 12.0 9.651005032974998
endloop
endfacet
facet normal 0.0 1.0 0.0
outer loop
vertex 85.64704761275631 12.0 7.585185434277335
vertex 95.54587632247733 12.0 7.0206971896151895
vertex 85.0 12.0 7.500000000000006
endloop
endfacet
facet normal 0.0 1.0 0.0
outer loop
vertex 95.99390827019096 12.0 9.651005032974998
vertex 85.64704761275631 12.0 7.585185434277335
vertex 86.25 12.0 7.834936490538909
endloop
endfacet
facet normal 0.0 1.0 0.0
outer loop
vertex 95.99390827019096 12.0 9.651005032974998
vertex 86.25 12.0 7.834936490538909
vertex 86.76776695296637 12.0 8.232233047033636
endloop
endfacet
facet normal 0.0 1.0 0.0
outer loop
vertex 95.99390827019096 12.0 9.651005032974998
vertex 86.76776695296637 12.0 8.232233047033636
vertex 87.16506350946109 12.0 8.750000000000004
endloop
endfacet
facet normal 0.0 1.0 0.0
outer loop
vertex 95.99390827019096 12.0 9.651005032974998
vertex 87.16506350946109 12.0 8.750000000000004
vertex 87.41481456572266 12.0 9.3529523872437
endloop
endfacet
facet normal 0.0 1.0 0.0
outer loop
vertex 95.99390827019096 12.0 9.651005032974998
vertex 87.41481456572266 12.0 9.3529523872437
vertex 87.5 12.0 10.000000000000002
endloop
endfacet
facet normal 0.0 1.0 0.0
outer loop
vertex 95.99390827019096 12.0 9.651005032974998
vertex 87.5 12.0 10.000000000000002
vertex 95.73044870579824 12.0 12.306158707424409
endloop
endfacet
facet normal 0.0 1.0 0.0
outer loop
vertex 95.73044870579824 12.0 12.306158707424409
vertex 87.5 12.0 10.000000000000002
vertex 87.41481456572266 12.0 10.647047612756305
endloop
endfacet
facet normal 0.0 1.0 0.0
outer loop
vertex 95.73044870579824 12.0 12.306158707424409
vertex 87.41481456572266 12.0 10.647047612756305
vertex 87.16506350946109 12.0 11.25
endloop
endfacet
facet normal 0.0 1.0 0.0
outer loop
vertex 95.73044870579824 12.0 12.306158707424409
vertex 87.16506350946109 12.0 11.25
vertex 86.76776695296637 12.0 11.767766952966367
endloop
endfacet
facet normal 0.0 1.0 0.0
outer loop
vertex 95.73044870579824 12.0 12.306158707424409
vertex 86.76776695296637 12.0 11.767766952966367
vertex 86.25 12.0 12.165063509461095
endloop
endfacet
facet normal 0.0 1.0 0.0
outer loop
vertex 95.73044870579824 12.0 12.306158707424409
vertex 86.25 12.0 12.165063509461095
vertex 85.64704761275631 12.0 12.414814565722667
endloop
endfacet
facet normal 0.0 1.0 0.0
outer loop
vertex 95.73044870579824 12.0 12.306158707424409
vertex 85.64704761275631 12.0 12.414814565722667
vertex 94.77425397954582 12.0 14.797131132502468
endloop
endfacet
facet normal 0.0 1.0 0.0
outer loop
vertex 94.77425397954582 12.0 14.797131132502468
vertex 85.64704761275631 12.0 12.414814565722667
vertex 85.0 12.0 12.499999999999996
endloop
endfacet
facet normal 0.0 1.0 0.0
outer loop
vertex 94.77425397954582 12.0 14.797131132502468
vertex 85.0 12.0 12.499999999999996
vertex 0.34074173710931754 12.0 12.588190451025211
endloop
endfacet
facet normal 0.0 1.0 0.0
outer loop
vertex 94.77425397954582 12.0 14.797131132502468
vertex 0.34074173710931754 12.0 12.588190451025211
vertex 0.7612046748871323 12.0 13.826834323650901
endloop
endfacet
facet normal 0.0 1.0 0.0
outer loop
vertex 94.77425397954582 12.0 14.797131132502468
vertex 0.7612046748871323 12.0 13.826834323650901
vertex 1.339745962155614 12.0 15.000000000000004
endloop
endfacet
facet normal 0.0 1.0 0.0
outer loop
vertex 94.77425397954582 12.0 14.797131132502468
vertex 1.339745962155614 12.0 15.000000000000004
vertex 93.1933980033865 12.0 16.946583704589976
endloop
endfacet
facet normal 0.0 1.0 0.0
outer loop
vertex 93.1933980033865 12.0 16.946583704589976
vertex 1.339745962155614 12.0 15.000000000000004
vertex 2.0664665970876506 12.0 16.08761429008721
endloop
endfacet
facet normal 0.0 1.0 0.0
outer loop
vertex 93.1933980033865 12.0 16.946583704589976
vertex 2.0664665970876506 12.0 16.08761429008721
vertex 2.9289321881345267 12.0 17.07106781186548
endloop
endfacet
facet normal 0.0 1.0 0.0
outer loop
vertex 93.1933980033865 12.0 16.946583704589976
vertex 2.9289321881345267 12.0 17.07106781186548
vertex 91.10042589765675 12.0 18.60149147895366
endloop
endfacet
facet normal 0.0 1.0 0.0
outer loop
vertex 91.10042589765675 12.0 18.60149147895366
vertex 2.9289321881345267 12.0 17.07106781186548
vertex 3.9123857099127965 12.0 17.933533402912357
endloop
endfacet
facet normal 0.0 1.0 0.0
outer loop
vertex 91.10042589765675 12.0 18.60149147895366
vertex 3.9123857099127965 12.0 17.933533402912357
vertex 5.000000000000003 12.0 18.66025403784439
endloop
endfacet
facet normal 0.0 1.0 0.0
outer loop
vertex 91.10042589765675 12.0 18.60149147895366
vertex 5.000000000000003 12.0 18.66025403784439
vertex 88.64434162037202 12.0 19.64403740114939
endloop
endfacet
facet normal 0.0 1.0 0.0
outer loop
vertex 88.64434162037202 12.0 19.64403740114939
vertex 5.000000000000003 12.0 18.66025403784439
vertex 6.1731656763491065 12.0 19.23879532511287
endloop
endfacet
facet normal 0.0 1.0 0.0
outer loop
vertex 88.64434162037202 12.0 19.64403740114939
vertex 6.1731656763491065 12.0 19.23879532511287
vertex 7.411809548974798 12.0 19.659258262890685
endloop
endfacet
facet normal 0.0 1.0 0.0
outer loop
vertex 88.64434162037202 12.0 19.64403740114939
vertex 7.411809548974798 12.0 19.659258262890685
vertex 86.0 12.0 20.000000000000004
endloop
endfacet
facet normal 0.0 1.0 0.0
outer loop
vertex 86.0 12.0 20.000000000000004
vertex 7.411809548974798 12.0 19.659258262890685
vertex 8.694738077799492 12.0 19.914448613738106
endloop
endfacet
facet normal 0.0 1.0 0.0
outer loop
vertex 86.0 12.0 20.000000000000004
vertex 8.694738077799492 12.0 19.914448613738106
vertex 10.000000000000007 12.0 20.000000000000004
endloop
endfacet
facet normal -0.9659258262890689 0.0 -0.25881904510251924
outer loop
vertex 87.41481456572266 12.0 10.647047612756305
vertex 87.5 0.0 10.000000000000002
vertex 87.41481456572266 0.0 10.647047612756305
endloop
endfacet
facet normal -1.0 0.0 1.4257775833035053e-16
outer loop
vertex 87.5 0.0 10.000000000000002
vertex 87.41481456572266 12.0 10.647047612756305
vertex 87.5 12.0 10.000000000000002
endloop
endfacet
facet normal -0.707106781186546 0.0 -0.7071067811865491
outer loop
vertex 86.76776695296637 12.0 11.767766952966367
vertex 87.16506350946109 0.0 11.25
vertex 86.76776695296637 0.0 11.767766952966367
endloop
endfacet
facet normal -0.8660254037844385 0.0 -0.5000000000000003
outer loop
vertex 87.16506350946109 0.0 11.25
vertex 86.76776695296637 12.0 11.767766952966367
vertex 87.16506350946109 12.0 11.25
endloop
endfacet
facet normal -1.0 0.0 1.4257775833035053e-16
outer loop
vertex 87.5 12.0 10.000000000000002
vertex 87.41481456572266 0.0 9.3529523872437
vertex 87.5 0.0 10.000000000000002
endloop
endfacet
facet normal -0.9659258262890689 0.0 0.25881904510251935
outer loop
vertex 87.41481456572266 0.0 9.3529523872437
vertex 87.5 12.0 10.000000000000002
vertex 87.41481456572266 12.0 9.3529523872437
endloop
endfacet
facet normal -0.7071067811865481 0.0 0.707106781186547
outer loop
vertex 2.9289321881345267 12.0 17.07106781186548
vertex 2.0664665970876506 0.0 16.08761429008721
vertex 2.9289321881345267 0.0 17.07106781186548
endloop
endfacet
facet normal -0.793353340291235 0.0 0.6087614290087208
outer loop
vertex 2.0664665970876506 0.0 16.08761429008721
vertex 2.9289321881345267 12.0 17.07106781186548
vertex 2.0664665970876506 12.0 16.08761429008721
endloop
endfacet
facet normal -0.707106781186546 0.0 -0.7071067811865491
outer loop
vertex 86.76776695296637 12.0 11.767766952966367
vertex 86.25 0.0 12.165063509461095
vertex 86.25 12.0 12.165063509461095
endloop
endfacet
facet normal -0.500000000000001 0.0 -0.8660254037844382
outer loop
vertex 86.25 0.0 12.165063509461095
vertex 86.76776695296637 12.0 11.767766952966367
vertex 86.76776695296637 0.0 11.767766952966367
endloop
endfacet
facet normal 0.5000000000000012 0.0 0.8660254037844379
outer loop
vertex 83.75 0.0 7.834936490538909
vertex 83.23223304703365 12.0 8.232233047033635
vertex 83.23223304703365 0.0 8.232233047033635
endloop
endfacet
facet normal 0.7071067811865455 0.0 0.7071067811865496
outer loop
vertex 83.23223304703365 12.0 8.232233047033635
vertex 83.75 0.0 7.834936490538909
vertex 83.75 12.0 7.834936490538909
endloop
endfacet
facet normal -1.0 -0.0 -0.0
outer loop
vertex 0.0 12.0 10.000000000000002
vertex 0.0 0.0 0.0
vertex 0.0 0.0 10.000000000000002
endloop
endfacet
facet normal -1.0 -0.0 -0.0
outer loop
vertex 0.0 0.0 0.0
vertex 0.0 12.0 10.000000000000002
vertex 0.0 12.0 0.0
endloop
endfacet
facet normal 1.0 0.0 -1.4257775833035053e-16
outer loop
vertex 82.5 12.0 10.000000000000002
vertex 82.58518543427734 0.0 10.647047612756301
vertex 82.5 0.0 10.000000000000002
endloop
endfacet
facet normal 0.9659258262890688 0.0 -0.2588190451025191
outer loop
vertex 82.58518543427734 0.0 10.647047612756301
vertex 82.5 12.0 10.000000000000002
vertex 82.58518543427734 12.0 10.647047612756301
endloop
endfacet
facet normal 0.8660254037844386 0.0 0.4999999999999999
outer loop
vertex 82.83493649053891 12.0 8.750000000000002
vertex 82.58518543427734 0.0 9.3529523872437
vertex 82.83493649053891 0.0 8.750000000000002
endloop
endfacet
facet normal 0.965925826289069 0.0 0.25881904510251896
outer loop
vertex 82.58518543427734 0.0 9.3529523872437
vertex 82.83493649053891 12.0 8.750000000000002
vertex 82.58518543427734 12.0 9.3529523872437
endloop
endfacet
facet normal -0.6087614290087202 0.0 0.7933533402912356
outer loop
vertex 3.9123857099127965 0.0 17.933533402912357
vertex 2.9289321881345267 12.0 17.07106781186548
vertex 2.9289321881345267 0.0 17.07106781186548
endloop
endfacet
facet normal -0.7071067811865481 0.0 0.707106781186547
outer loop
vertex 2.9289321881345267 12.0 17.07106781186548
vertex 3.9123857099127965 0.0 17.933533402912357
vertex 3.9123857099127965 12.0 17.933533402912357
endloop
endfacet
facet normal -0.25881904510252113 0.0 0.9659258262890682
outer loop
vertex 85.64704761275631 0.0 7.585185434277335
vertex 85.0 12.0 7.500000000000006
vertex 85.0 0.0 7.500000000000006
endloop
endfacet
facet normal 0.0 0.0 1.0
outer loop
vertex 85.0 12.0 7.500000000000006
vertex 85.64704761275631 0.0 7.585185434277335
vertex 85.64704761275631 12.0 7.585185434277335
endloop
endfacet
facet normal -0.707106781186546 0.0 0.7071067811865491
outer loop
vertex 86.76776695296637 0.0 8.232233047033636
vertex 86.25 12.0 7.834936490538909
vertex 86.25 0.0 7.834936490538909
endloop
endfacet
facet normal -0.500000000000002 0.0 0.8660254037844377
outer loop
vertex 86.25 12.0 7.834936490538909
vertex 86.76776695296637 0.0 8.232233047033636
vertex 86.76776695296637 12.0 8.232233047033636
endloop
endfacet
facet normal 0.0 0.0 1.0
outer loop
vertex 85.0 0.0 7.500000000000006
vertex 84.3529523872437 12.0 7.585185434277335
vertex 84.3529523872437 0.0 7.585185434277335
endloop
endfacet
facet normal 0.25881904510252113 0.0 0.9659258262890682
outer loop
vertex 84.3529523872437 12.0 7.585185434277335
vertex 85.0 0.0 7.500000000000006
vertex 85.0 12.0 7.500000000000006
endloop
endfacet
facet normal 0.8660254037844386 0.0 -0.4999999999999999
outer loop
vertex 82.83493649053891 12.0 11.25
vertex 83.23223304703365 0.0 11.767766952966365
vertex 82.83493649053891 0.0 11.25
endloop
endfacet
facet normal 0.707106781186546 0.0 -0.7071067811865491
outer loop
vertex 83.23223304703365 0.0 11.767766952966365
vertex 82.83493649053891 12.0 11.25
vertex 83.23223304703365 12.0 11.767766952966365
endloop
endfacet
facet normal 0.8418249385952576 0.0 -0.5397506579515127
outer loop
vertex 94.41824938595258 12.0 4.602493420484878
vertex 95.54587632247733 0.0 7.0206971896151895
vertex 94.41824938595258 0.0 4.602493420484878
endloop
endfacet
facet normal 0.9545876322477324 0.0 -0.29793028103848085
outer loop
vertex 95.54587632247733 0.0 7.0206971896151895
vertex 94.41824938595258 12.0 4.602493420484878
vertex 95.54587632247733 12.0 7.0206971896151895
endloop
endfacet
facet normal -0.793353340291235 0.0 0.6087614290087208
outer loop
vertex 2.0664665970876506 12.0 16.08761429008721
vertex 1.339745962155614 0.0 15.000000000000004
vertex 2.0664665970876506 0.0 16.08761429008721
endloop
endfacet
facet normal -0.8660254037844383 0.0 0.500000000000001
outer loop
vertex 1.339745962155614 0.0 15.000000000000004
vertex 2.0664665970876506 12.0 16.08761429008721
vertex 1.339745962155614 12.0 15.000000000000004
endloop
endfacet
facet normal -0.2588190451025204 0.0 0.9659258262890684
outer loop
vertex 7.411809548974798 0.0 19.659258262890685
vertex 6.1731656763491065 12.0 19.23879532511287
vertex 6.1731656763491065 0.0 19.23879532511287
endloop
endfacet
facet normal -0.38268343236508906 0.0 0.9238795325112872
outer loop
vertex 6.1731656763491065 12.0 19.23879532511287
vertex 7.411809548974798 0.0 19.659258262890685
vertex 7.411809548974798 12.0 19.659258262890685
endloop
endfacet
facet normal -0.500000000000001 0.0 -0.8660254037844382
outer loop
vertex 86.25 12.0 12.165063509461095
vertex 85.64704761275631 0.0 12.414814565722667
vertex 85.64704761275631 12.0 12.414814565722667
endloop
endfacet
facet normal -0.25881904510252024 0.0 -0.9659258262890685
outer loop
vertex 85.64704761275631 0.0 12.414814565722667
vertex 86.25 12.0 12.165063509461095
vertex 86.25 0.0 12.165063509461095
endloop
endfacet
facet normal -0.9238795325112868 0.0 0.3826834323650898
outer loop
vertex 0.7612046748871323 12.0 13.826834323650901
vertex 0.34074173710931754 0.0 12.588190451025211
vertex 0.7612046748871323 0.0 13.826834323650901
endloop
endfacet
facet normal -0.9659258262890684 0.0 0.2588190451025205
outer loop
vertex 0.34074173710931754 0.0 12.588190451025211
vertex 0.7612046748871323 12.0 13.826834323650901
vertex 0.34074173710931754 12.0 12.588190451025211
endloop
endfacet
facet normal 0.7193398003386515 0.0 0.6946583704589969
outer loop
vertex 93.1933980033865 0.0 16.946583704589976
vertex 91.10042589765675 12.0 18.60149147895366
vertex 91.10042589765675 0.0 18.60149147895366
endloop
endfacet
facet normal 0.5100425897656752 0.0 0.8601491478953655
outer loop
vertex 91.10042589765675 12.0 18.60149147895366
vertex 93.1933980033865 0.0 16.946583704589976
vertex 93.1933980033865 12.0 16.946583704589976
endloop
endfacet
facet normal -0.8660254037844383 0.0 0.500000000000001
outer loop
vertex 1.339745962155614 12.0 15.000000000000004
vertex 0.7612046748871323 0.0 13.826834323650901
vertex 1.339745962155614 0.0 15.000000000000004
endloop
endfacet
facet normal -0.9238795325112868 0.0 0.3826834323650898
outer loop
vertex 0.7612046748871323 0.0 13.826834323650901
vertex 1.339745962155614 12.0 15.000000000000004
vertex 0.7612046748871323 12.0 13.826834323650901
endloop
endfacet
facet normal 0.25881904510252113 0.0 0.9659258262890682
outer loop
vertex 84.3529523872437 0.0 7.585185434277335
vertex 83.75 12.0 7.834936490538909
vertex 83.75 0.0 7.834936490538909
endloop
endfacet
facet normal 0.5000000000000012 0.0 0.8660254037844379
outer loop
vertex 83.75 12.0 7.834936490538909
vertex 84.3529523872437 0.0 7.585185434277335
vertex 84.3529523872437 12.0 7.585185434277335
endloop
endfacet
facet normal 0.44879918020046267 0.0 -0.8936326403234122
outer loop
vertex 90.48799180200463 12.0 1.0636735967658806
vertex 87.9651660953283 0.0 0.19499504244020796
vertex 87.9651660953283 12.0 0.19499504244020796
endloop
endfacet
facet normal 0.1965166095328305 0.0 -0.9805004957559793
outer loop
vertex 87.9651660953283 0.0 0.19499504244020796
vertex 90.48799180200463 12.0 1.0636735967658806
vertex 90.48799180200463 0.0 1.0636735967658806
endloop
endfacet
facet normal -0.25881904510252024 0.0 -0.9659258262890685
outer loop
vertex 85.64704761275631 12.0 12.414814565722667
vertex 85.0 0.0 12.499999999999996
vertex 85.0 12.0 12.499999999999996
endloop
endfacet
facet normal 0.0 0.0 -1.0
outer loop
vertex 85.0 0.0 12.499999999999996
vertex 85.64704761275631 12.0 12.414814565722667
vertex 85.64704761275631 0.0 12.414814565722667
endloop
endfacet
facet normal 0.00028556624829694736 0.0 -0.9999999592259581
outer loop
vertex 0.0 12.0 0.0
vertex 12.750000000000007 8.165063509461097 0.005229651020295023
vertex 0.0 0.0 0.0
endloop
endfacet
facet normal 0.00028556624829694736 0.0 -0.9999999592259581
outer loop
vertex 12.750000000000007 8.165063509461097 0.005229651020295023
vertex 0.0 12.0 0.0
vertex 13.352952387243704 8.414814565722672 0.005229651020295023
endloop
endfacet
facet normal 0.00028556624829694736 0.0 -0.9999999592259581
outer loop
vertex 13.352952387243704 8.414814565722672 0.005229651020295023
vertex 0.0 12.0 0.0
vertex 14.000000000000009 8.500000000000002 0.005229651020295023
endloop
endfacet
facet normal 0.00028556624829694736 0.0 -0.9999999592259581
outer loop
vertex 14.000000000000009 8.500000000000002 0.005229651020295023
vertex 0.0 12.0 0.0
vertex 85.30243526255875 12.0 0.024359497401757302
endloop
endfacet
facet normal 0.00028556624829694736 0.0 -0.9999999592259581
outer loop
vertex 0.0 0.0 0.0
vertex 12.750000000000007 8.165063509461097 0.005229651020295023
vertex 12.232233047033638 7.767766952966369 0.005229651020295023
endloop
endfacet
facet normal 0.00028556624829694736 0.0 -0.9999999592259581
outer loop
vertex 0.0 0.0 0.0
vertex 12.232233047033638 7.767766952966369 0.005229651020295023
vertex 11.83493649053891 7.250000000000001 0.005229651020295023
endloop
endfacet
facet normal 0.00028556624829694736 0.0 -0.9999999592259581
outer loop
vertex 0.0 0.0 0.0
vertex 11.83493649053891 7.250000000000001 0.005229651020295023
vertex 11.585185434277337 6.647047612756301 0.005229651020295023
endloop
endfacet
facet normal 0.00028556624829694736 0.0 -0.9999999592259581
outer loop
vertex 0.0 0.0 0.0
vertex 11.585185434277337 6.647047612756301 0.005229651020295023
vertex 11.500000000000007 6.0 0.005229651020295023
endloop
endfacet
facet normal 0.00028556624829694736 0.0 -0.9999999592259581
outer loop
vertex 14.000000000000009 8.500000000000002 0.005229651020295023
vertex 85.30243526255875 12.0 0.024359497401757302
vertex 14.64704761275631 8.414814565722672 0.005229651020295023
endloop
endfacet
facet normal 0.00028556624829694736 0.0 -0.9999999592259581
outer loop
vertex 14.64704761275631 8.414814565722672 0.005229651020295023
vertex 85.30243526255875 12.0 0.024359497401757302
vertex 15.250000000000005 8.165063509461099 0.005229651020295023
endloop
endfacet
facet normal 0.00028556624829694736 0.0 -0.9999999592259581
outer loop
vertex 15.250000000000005 8.165063509461099 0.005229651020295023
vertex 85.30243526255875 12.0 0.024359497401757302
vertex 15.767766952966378 7.767766952966371 0.005229651020295023
endloop
endfacet
facet normal 0.00028556624829694736 0.0 -0.9999999592259581
outer loop
vertex 15.767766952966378 7.767766952966371 0.005229651020295023
vertex 85.30243526255875 12.0 0.024359497401757302
vertex 16.165063509461106 7.250000000000003 0.005229651020295023
endloop
endfacet
facet normal 0.00028556624829694736 0.0 -0.9999999592259581
outer loop
vertex 16.165063509461106 7.250000000000003 0.005229651020295023
vertex 85.30243526255875 12.0 0.024359497401757302
vertex 35.0 8.500000000000002 0.010888447612569274
endloop
endfacet
facet normal 0.00028556624829694736 0.0 -0.9999999592259581
outer loop
vertex 16.165063509461106 7.250000000000003 0.005229651020295023
vertex 35.0 8.500000000000002 0.010888447612569274
vertex 16.41481456572268 6.647047612756304 0.005229651020295023
endloop
endfacet
facet normal 0.00028556624829694736 0.0 -0.9999999592259581
outer loop
vertex 16.41481456572268 6.647047612756304 0.005229651020295023
vertex 35.0 8.500000000000002 0.010888447612569274
vertex 34.352952387243704 8.414814565722672 0.010888447612569274
endloop
endfacet
facet normal 0.00028556624829694736 0.0 -0.9999999592259581
outer loop
vertex 16.41481456572268 6.647047612756304 0.005229651020295023
vertex 34.352952387243704 8.414814565722672 0.010888447612569274
vertex 16.50000000000001 6.0 0.005229651020295023
endloop
endfacet
facet normal 0.00028556624829694736 0.0 -0.9999999592259581
outer loop
vertex 16.50000000000001 6.0 0.005229651020295023
vertex 34.352952387243704 8.414814565722672 0.010888447612569274
vertex 33.75 8.165063509461097 0.010888447612569274
endloop
endfacet
facet normal 0.00028556624829694736 0.0 -0.9999999592259581
outer loop
vertex 16.50000000000001 6.0 0.005229651020295023
vertex 33.75 8.165063509461097 0.010888447612569274
vertex 33.23223304703363 7.767766952966369 0.010888447612569274
endloop
endfacet
facet normal 0.00028556624829694736 0.0 -0.9999999592259581
outer loop
vertex 16.50000000000001 6.0 0.005229651020295023
vertex 33.23223304703363 7.767766952966369 0.010888447612569274
vertex 32.83493649053891 7.250000000000001 0.010888447612569274
endloop
endfacet
facet normal 0.00028556624829694736 0.0 -0.9999999592259581
outer loop
vertex 16.50000000000001 6.0 0.005229651020295023
vertex 32.83493649053891 7.250000000000001 0.010888447612569274
vertex 32.58518543427733 6.647047612756301 0.010888447612569274
endloop
endfacet
facet normal 0.00028556624829694736 0.0 -0.9999999592259581
outer loop
vertex 16.50000000000001 6.0 0.005229651020295023
vertex 32.58518543427733 6.647047612756301 0.010888447612569274
vertex 32.5 6.0 0.010888447612569274
endloop
endfacet
facet normal 0.00028556624829694736 0.0 -0.9999999592259581
outer loop
vertex 35.0 8.500000000000002 0.010888447612569274
vertex 85.30243526255875 12.0 0.024359497401757302
vertex 35.6470476127563 8.414814565722672 0.010888447612569274
endloop
endfacet
facet normal 0.00028556624829694736 0.0 -0.9999999592259581
outer loop
vertex 35.6470476127563 8.414814565722672 0.010888447612569274
vertex 85.30243526255875 12.0 0.024359497401757302
vertex 36.25 8.165063509461099 0.010888447612569274
endloop
endfacet
facet normal 0.00028556624829694736 0.0 -0.9999999592259581
outer loop
vertex 36.25 8.165063509461099 0.010888447612569274
vertex 85.30243526255875 12.0 0.024359497401757302
vertex 36.76776695296637 7.767766952966371 0.010888447612569274
endloop
endfacet
facet normal 0.00028556624829694736 0.0 -0.9999999592259581
outer loop
vertex 36.76776695296637 7.767766952966371 0.010888447612569274
vertex 85.30243526255875 12.0 0.024359497401757302
vertex 37.1650635094611 7.250000000000003 0.010888447612569274
endloop
endfacet
facet normal 0.00028556624829694736 0.0 -0.9999999592259581
outer loop
vertex 37.1650635094611 7.250000000000003 0.010888447612569274
vertex 85.30243526255875 12.0 0.024359497401757302
vertex 37.41481456572267 6.647047612756304 0.010888447612569274
endloop
endfacet
facet normal 0.00028556624829694736 0.0 -0.9999999592259581
outer loop
vertex 37.41481456572267 6.647047612756304 0.010888447612569274
vertex 85.30243526255875 12.0 0.024359497401757302
vertex 37.50000000000001 6.0 0.010888447612569274
endloop
endfacet
facet normal 0.00028556624829694736 0.0 -0.9999999592259581
outer loop
vertex 0.0 0.0 0.0
vertex 14.000000000000009 3.499999999999999 0.005229651020295023
vertex 85.30243526255875 0.0 0.024359497401757302
endloop
endfacet
facet normal 0.00028556624829694736 0.0 -0.9999999592259581
outer loop
vertex 14.000000000000009 3.499999999999999 0.005229651020295023
vertex 0.0 0.0 0.0
vertex 13.352952387243707 3.5851854342773284 0.005229651020295023
endloop
endfacet
facet normal 0.00028556624829694736 0.0 -0.9999999592259581
outer loop
vertex 13.352952387243707 3.5851854342773284 0.005229651020295023
vertex 0.0 0.0 0.0
vertex 12.750000000000007 3.8349364905389023 0.005229651020295023
endloop
endfacet
facet normal 0.00028556624829694736 0.0 -0.9999999592259581
outer loop
vertex 12.750000000000007 3.8349364905389023 0.005229651020295023
vertex 0.0 0.0 0.0
vertex 12.23223304703364 4.23223304703363 0.005229651020295023
endloop
endfacet
facet normal 0.00028556624829694736 0.0 -0.9999999592259581
outer loop
vertex 12.23223304703364 4.23223304703363 0.005229651020295023
vertex 0.0 0.0 0.0
vertex 11.83493649053891 4.749999999999999 0.005229651020295023
endloop
endfacet
facet normal 0.00028556624829694736 0.0 -0.9999999592259581
outer loop
vertex 11.83493649053891 4.749999999999999 0.005229651020295023
vertex 0.0 0.0 0.0
vertex 11.585185434277337 5.352952387243698 0.005229651020295023
endloop
endfacet
facet normal 0.00028556624829694736 0.0 -0.9999999592259581
outer loop
vertex 11.585185434277337 5.352952387243698 0.005229651020295023
vertex 0.0 0.0 0.0
vertex 11.500000000000007 6.0 0.005229651020295023
endloop
endfacet
facet normal 0.00028556624829694736 0.0 -0.9999999592259581
outer loop
vertex 85.30243526255875 0.0 0.024359497401757302
vertex 14.000000000000009 3.499999999999999 0.005229651020295023
vertex 14.64704761275631 3.5851854342773284 0.005229651020295023
endloop
endfacet
facet normal 0.00028556624829694736 0.0 -0.9999999592259581
outer loop
vertex 85.30243526255875 0.0 0.024359497401757302
vertex 14.64704761275631 3.5851854342773284 0.005229651020295023
vertex 15.250000000000009 3.8349364905389023 0.005229651020295023
endloop
endfacet
facet normal 0.00028556624829694736 0.0 -0.9999999592259581
outer loop
vertex 85.30243526255875 0.0 0.024359497401757302
vertex 15.250000000000009 3.8349364905389023 0.005229651020295023
vertex 15.767766952966378 4.232233047033631 0.005229651020295023
endloop
endfacet
facet normal 0.00028556624829694736 0.0 -0.9999999592259581
outer loop
vertex 85.30243526255875 0.0 0.024359497401757302
vertex 15.767766952966378 4.232233047033631 0.005229651020295023
vertex 16.165063509461106 4.75 0.005229651020295023
endloop
endfacet
facet normal 0.00028556624829694736 0.0 -0.9999999592259581
outer loop
vertex 85.30243526255875 0.0 0.024359497401757302
vertex 16.165063509461106 4.75 0.005229651020295023
vertex 35.0 3.499999999999999 0.010888447612569274
endloop
endfacet
facet normal 0.00028556624829694736 0.0 -0.9999999592259581
outer loop
vertex 35.0 3.499999999999999 0.010888447612569274
vertex 16.165063509461106 4.75 0.005229651020295023
vertex 16.41481456572268 5.352952387243699 0.005229651020295023
endloop
endfacet
facet normal 0.00028556624829694736 0.0 -0.9999999592259581
outer loop
vertex 35.0 3.499999999999999 0.010888447612569274
vertex 16.41481456572268 5.352952387243699 0.005229651020295023
vertex 34.352952387243704 3.5851854342773284 0.010888447612569274
endloop
endfacet
facet normal 0.00028556624829694736 0.0 -0.9999999592259581
outer loop
vertex 34.352952387243704 3.5851854342773284 0.010888447612569274
vertex 16.41481456572268 5.352952387243699 0.005229651020295023
vertex 16.50000000000001 6.0 0.005229651020295023
endloop
endfacet
facet normal 0.00028556624829694736 0.0 -0.9999999592259581
outer loop
vertex 34.352952387243704 3.5851854342773284 0.010888447612569274
vertex 16.50000000000001 6.0 0.005229651020295023
vertex 33.75000000000001 3.8349364905389023 0.010888447612569274
endloop
endfacet
facet normal 0.00028556624829694736 0.0 -0.9999999592259581
outer loop
vertex 33.75000000000001 3.8349364905389023 0.010888447612569274
vertex 16.50000000000001 6.0 0.005229651020295023
vertex 33.23223304703364 4.23223304703363 0.010888447612569274
endloop
endfacet
facet normal 0.00028556624829694736 0.0 -0.9999999592259581
outer loop
vertex 33.23223304703364 4.23223304703363 0.010888447612569274
vertex 16.50000000000001 6.0 0.005229651020295023
vertex 32.83493649053891 4.749999999999999 0.010888447612569274
endloop
endfacet
facet normal 0.00028556624829694736 0.0 -0.9999999592259581
outer loop
vertex 32.83493649053891 4.749999999999999 0.010888447612569274
vertex 16.50000000000001 6.0 0.005229651020295023
vertex 32.58518543427733 5.352952387243698 0.010888447612569274
endloop
endfacet
facet normal 0.00028556624829694736 0.0 -0.9999999592259581
outer loop
vertex 32.58518543427733 5.352952387243698 0.010888447612569274
vertex 16.50000000000001 6.0 0.005229651020295023
vertex 32.5 6.0 0.010888447612569274
endloop
endfacet
facet normal 0.00028556624829694736 0.0 -0.9999999592259581
outer loop
vertex 85.30243526255875 0.0 0.024359497401757302
vertex 35.0 3.499999999999999 0.010888447612569274
vertex 35.6470476127563 3.5851854342773284 0.010888447612569274
endloop
endfacet
facet normal 0.00028556624829694736 0.0 -0.9999999592259581
outer loop
vertex 85.30243526255875 0.0 0.024359497401757302
vertex 35.6470476127563 3.5851854342773284 0.010888447612569274
vertex 36.25000000000001 3.8349364905389023 0.010888447612569274
endloop
endfacet
facet normal 0.00028556624829694736 0.0 -0.9999999592259581
outer loop
vertex 85.30243526255875 0.0 0.024359497401757302
vertex 36.25000000000001 3.8349364905389023 0.010888447612569274
vertex 36.76776695296637 4.232233047033631 0.010888447612569274
endloop
endfacet
facet normal 0.00028556624829694736 0.0 -0.9999999592259581
outer loop
vertex 85.30243526255875 0.0 0.024359497401757302
vertex 36.76776695296637 4.232233047033631 0.010888447612569274
vertex 37.1650635094611 4.75 0.010888447612569274
endloop
endfacet
facet normal 0.00028556624829694736 0.0 -0.9999999592259581
outer loop
vertex 85.30243526255875 0.0 0.024359497401757302
vertex 37.1650635094611 4.75 0.010888447612569274
vertex 37.41481456572268 5.352952387243699 0.010888447612569274
endloop
endfacet
facet normal 0.00028556624829694736 0.0 -0.9999999592259581
outer loop
vertex 85.30243526255875 0.0 0.024359497401757302
vertex 37.41481456572268 5.352952387243699 0.010888447612569274
vertex 37.50000000000001 6.0 0.010888447612569274
endloop
endfacet
facet normal 0.00028556624829694736 0.0 -0.9999999592259581
outer loop
vertex 85.30243526255875 0.0 0.024359497401757302
vertex 37.50000000000001 6.0 0.010888447612569274
vertex 85.30243526255875 12.0 0.024359497401757302
endloop
endfacet
facet normal -0.500000000000002 0.0 0.8660254037844377
outer loop
vertex 86.25 0.0 7.834936490538909
vertex 85.64704761275631 12.0 7.585185434277335
vertex 85.64704761275631 0.0 7.585185434277335
endloop
endfacet
facet normal -0.25881904510252113 0.0 0.9659258262890682
outer loop
vertex 85.64704761275631 12.0 7.585185434277335
vertex 86.25 0.0 7.834936490538909
vertex 86.25 12.0 7.834936490538909
endloop
endfacet
facet normal 0.500000000000002 0.0 -0.8660254037844377
outer loop
vertex 83.75 12.0 12.165063509461094
vertex 83.23223304703365 0.0 11.767766952966365
vertex 83.23223304703365 12.0 11.767766952966365
endloop
endfacet
facet normal 0.707106781186546 0.0 -0.7071067811865491
outer loop
vertex 83.23223304703365 0.0 11.767766952966365
vertex 83.75 12.0 12.165063509461094
vertex 83.75 0.0 12.165063509461094
endloop
endfacet
facet normal 0.9545876322477324 0.0 -0.29793028103848085
outer loop
vertex 95.54587632247733 12.0 7.0206971896151895
vertex 95.99390827019096 0.0 9.651005032974998
vertex 95.54587632247733 0.0 7.0206971896151895
endloop
endfacet
facet normal 0.9993908270190959 0.0 -0.0348994967024988
outer loop
vertex 95.99390827019096 0.0 9.651005032974998
vertex 95.54587632247733 12.0 7.0206971896151895
vertex 95.99390827019096 12.0 9.651005032974998
endloop
endfacet
facet normal -0.8660254037844385 0.0 -0.5000000000000003
outer loop
vertex 87.16506350946109 12.0 11.25
vertex 87.41481456572266 0.0 10.647047612756305
vertex 87.16506350946109 0.0 11.25
endloop
endfacet
facet normal -0.9659258262890689 0.0 -0.25881904510251924
outer loop
vertex 87.41481456572266 0.0 10.647047612756305
vertex 87.16506350946109 12.0 11.25
vertex 87.41481456572266 12.0 10.647047612756305
endloop
endfacet
facet normal 0.1965166095328305 0.0 -0.9805004957559793
outer loop
vertex 87.9651660953283 12.0 0.19499504244020796
vertex 85.30243526255875 0.0 0.024359497401757302
vertex 85.30243526255875 12.0 0.024359497401757302
endloop
endfacet
facet normal 0.06395173359158604 0.0 -0.9979529927660076
outer loop
vertex 85.30243526255875 0.0 0.024359497401757302
vertex 87.9651660953283 12.0 0.19499504244020796
vertex 87.9651660953283 0.0 0.19499504244020796
endloop
endfacet
facet normal 0.6691306063588586 0.0 -0.743144825477394
outer loop
vertex 92.69130606358858 12.0 2.568551745226062
vertex 90.48799180200463 0.0 1.0636735967658806
vertex 90.48799180200463 12.0 1.0636735967658806
endloop
endfacet
facet normal 0.44879918020046267 0.0 -0.8936326403234122
outer loop
vertex 90.48799180200463 0.0 1.0636735967658806
vertex 92.69130606358858 12.0 2.568551745226062
vertex 92.69130606358858 0.0 2.568551745226062
endloop
endfacet
facet normal -0.9659258262890684 0.0 0.2588190451025205
outer loop
vertex 0.34074173710931754 12.0 12.588190451025211
vertex 0.085551386261896 0.0 11.305261922200518
vertex 0.34074173710931754 0.0 12.588190451025211
endloop
endfacet
facet normal -0.9914448613738105 0.0 0.13052619222005166
outer loop
vertex 0.085551386261896 0.0 11.305261922200518
vertex 0.34074173710931754 12.0 12.588190451025211
vertex 0.085551386261896 12.0 11.305261922200518
endloop
endfacet
facet normal 0.6691306063588586 0.0 -0.743144825477394
outer loop
vertex 92.69130606358858 12.0 2.568551745226062
vertex 94.41824938595258 0.0 4.602493420484878
vertex 92.69130606358858 0.0 2.568551745226062
endloop
endfacet
facet normal 0.8418249385952576 0.0 -0.5397506579515127
outer loop
vertex 94.41824938595258 0.0 4.602493420484878
vertex 92.69130606358858 12.0 2.568551745226062
vertex 94.41824938595258 12.0 4.602493420484878
endloop
endfacet
facet normal -0.9659258262890689 0.0 0.25881904510251935
outer loop
vertex 87.41481456572266 12.0 9.3529523872437
vertex 87.16506350946109 0.0 8.750000000000004
vertex 87.41481456572266 0.0 9.3529523872437
endloop
endfacet
facet normal -0.8660254037844385 0.0 0.5000000000000003
outer loop
vertex 87.16506350946109 0.0 8.750000000000004
vertex 87.41481456572266 12.0 9.3529523872437
vertex 87.16506350946109 12.0 8.750000000000004
endloop
endfacet
facet normal -0.38268343236508906 0.0 0.9238795325112872
outer loop
vertex 6.1731656763491065 0.0 19.23879532511287
vertex 5.000000000000003 12.0 18.66025403784439
vertex 5.000000000000003 0.0 18.66025403784439
endloop
endfacet
facet normal -0.49999999999999883 0.0 0.8660254037844394
outer loop
vertex 5.000000000000003 12.0 18.66025403784439
vertex 6.1731656763491065 0.0 19.23879532511287
vertex 6.1731656763491065 12.0 19.23879532511287
endloop
endfacet
endsolid Buildlog 2
