solid Buildlog 2
facet normal 0.9914448613738398 -0.1305261922198283 0.0
outer loop
vertex 301.83557143616105 13.534758340472555 12.7
vertex 301.9207568704382 14.181805953228906 0.0
vertex 301.9207568704382 14.181805953228906 12.7
endloop
endfacet
facet normal 0.9659258262891262 -0.25881904510230513 0.0
outer loop
vertex 301.9207568704382 14.181805953228906 0.0
vertex 301.83557143616105 13.534758340472555 12.7
vertex 301.83557143616105 13.534758340472555 0.0
endloop
endfacet
facet normal 0.9659258262891262 -0.25881904510230513 0.0
outer loop
vertex 301.9207568704382 14.181805953228906 12.7
vertex 302.1705079266996 14.78475834047266 0.0
vertex 302.1705079266996 14.78475834047266 12.7
endloop
endfacet
facet normal 0.8660254037845556 -0.49999999999979755 0.0
outer loop
vertex 302.1705079266996 14.78475834047266 0.0
vertex 301.9207568704382 14.181805953228906 12.7
vertex 301.9207568704382 14.181805953228906 0.0
endloop
endfacet
facet normal 0.8660254037845556 -0.49999999999979755 0.0
outer loop
vertex 302.1705079266996 14.78475834047266 12.7
vertex 302.56780448319427 15.302525293439114 0.0
vertex 302.56780448319427 15.302525293439114 12.7
endloop
endfacet
facet normal 0.7071067811867198 -0.7071067811863754 0.0
outer loop
vertex 302.56780448319427 15.302525293439114 0.0
vertex 302.1705079266996 14.78475834047266 12.7
vertex 302.1705079266996 14.78475834047266 0.0
endloop
endfacet
facet normal 0.5000000000001948 -0.8660254037843264 0.0
outer loop
vertex 303.0855714361605 15.699821849933931 12.7
vertex 302.56780448319427 15.302525293439114 0.0
vertex 303.0855714361605 15.699821849933931 0.0
endloop
endfacet
facet normal 0.7071067811867198 -0.7071067811863754 0.0
outer loop
vertex 302.56780448319427 15.302525293439114 0.0
vertex 303.0855714361605 15.699821849933931 12.7
vertex 302.56780448319427 15.302525293439114 12.7
endloop
endfacet
facet normal 0.258819045102736 -0.9659258262890107 0.0
outer loop
vertex 303.6885238234041 15.949572906195675 12.7
vertex 303.0855714361605 15.699821849933931 0.0
vertex 303.6885238234041 15.949572906195675 0.0
endloop
endfacet
facet normal 0.5000000000001948 -0.8660254037843264 0.0
outer loop
vertex 303.0855714361605 15.699821849933931 0.0
vertex 303.6885238234041 15.949572906195675 12.7
vertex 303.0855714361605 15.699821849933931 12.7
endloop
endfacet
facet normal 2.383430760216128e-13 -1.0 0.0
outer loop
vertex 304.3355714361605 16.034758340473154 12.7
vertex 303.6885238234041 15.949572906195675 0.0
vertex 304.3355714361605 16.034758340473154 0.0
endloop
endfacet
facet normal 0.258819045102736 -0.9659258262890107 0.0
outer loop
vertex 303.6885238234041 15.949572906195675 0.0
vertex 304.3355714361605 16.034758340473154 12.7
vertex 303.6885238234041 15.949572906195675 12.7
endloop
endfacet
facet normal -0.2588190451022979 -0.9659258262891282 0.0
outer loop
vertex 304.9826190489167 15.949572906195952 12.7
vertex 304.3355714361605 16.034758340473154 0.0
vertex 304.9826190489167 15.949572906195952 0.0
endloop
endfacet
facet normal 2.383430760216128e-13 -1.0 0.0
outer loop
vertex 304.3355714361605 16.034758340473154 0.0
vertex 304.9826190489167 15.949572906195952 12.7
vertex 304.3355714361605 16.034758340473154 12.7
endloop
endfacet
facet normal -0.49999999999980027 -0.8660254037845538 0.0
outer loop
vertex 305.5855714361606 15.699821849934507 12.7
vertex 304.9826190489167 15.949572906195952 0.0
vertex 305.5855714361606 15.699821849934507 0.0
endloop
endfacet
facet normal -0.2588190451022979 -0.9659258262891282 0.0
outer loop
vertex 304.9826190489167 15.949572906195952 0.0
vertex 305.5855714361606 15.699821849934507 12.7
vertex 304.9826190489167 15.949572906195952 12.7
endloop
endfacet
facet normal -0.7071067811863874 -0.7071067811867078 0.0
outer loop
vertex 306.103338389127 15.302525293439926 12.7
vertex 305.5855714361606 15.699821849934507 0.0
vertex 306.103338389127 15.302525293439926 0.0
endloop
endfacet
facet normal -0.49999999999980027 -0.8660254037845538 0.0
outer loop
vertex 305.5855714361606 15.699821849934507 0.0
vertex 306.103338389127 15.302525293439926 12.7
vertex 305.5855714361606 15.699821849934507 12.7
endloop
endfacet
facet normal -0.8660254037843258 -0.5000000000001955 0.0
outer loop
vertex 306.5006349456218 14.784758340473624 0.0
vertex 306.103338389127 15.302525293439926 12.7
vertex 306.103338389127 15.302525293439926 0.0
endloop
endfacet
facet normal -0.7071067811863874 -0.7071067811867078 0.0
outer loop
vertex 306.103338389127 15.302525293439926 12.7
vertex 306.5006349456218 14.784758340473624 0.0
vertex 306.5006349456218 14.784758340473624 12.7
endloop
endfacet
facet normal -0.9659258262890071 -0.258819045102749 0.0
outer loop
vertex 306.7503860018835 14.181805953229984 0.0
vertex 306.5006349456218 14.784758340473624 12.7
vertex 306.5006349456218 14.784758340473624 0.0
endloop
endfacet
facet normal -0.8660254037843258 -0.5000000000001955 0.0
outer loop
vertex 306.5006349456218 14.784758340473624 12.7
vertex 306.7503860018835 14.181805953229984 0.0
vertex 306.7503860018835 14.181805953229984 12.7
endloop
endfacet
facet normal -0.9914448613737799 -0.13052619222028394 0.0
outer loop
vertex 306.835571436161 13.534758340473733 0.0
vertex 306.7503860018835 14.181805953229984 12.7
vertex 306.7503860018835 14.181805953229984 0.0
endloop
endfacet
facet normal -0.9659258262890071 -0.258819045102749 0.0
outer loop
vertex 306.7503860018835 14.181805953229984 12.7
vertex 306.835571436161 13.534758340473733 0.0
vertex 306.835571436161 13.534758340473733 12.7
endloop
endfacet
facet normal -1.0 -2.297884105217918e-13 0.0
outer loop
vertex 306.8355714361622 8.534758340473731 0.0
vertex 306.835571436161 13.534758340473733 12.7
vertex 306.835571436161 13.534758340473733 0.0
endloop
endfacet
facet normal -1.0 -2.297884105217918e-13 0.0
outer loop
vertex 306.835571436161 13.534758340473733 12.7
vertex 306.8355714361622 8.534758340473731 0.0
vertex 306.8355714361622 8.534758340473731 12.7
endloop
endfacet
facet normal -0.9659258262891262 0.25881904510230513 0.0
outer loop
vertex 306.75038600188503 7.88771072771738 0.0
vertex 306.8355714361622 8.534758340473731 12.7
vertex 306.8355714361622 8.534758340473731 0.0
endloop
endfacet
facet normal -0.9914448613738398 0.1305261922198283 0.0
outer loop
vertex 306.8355714361622 8.534758340473731 12.7
vertex 306.75038600188503 7.88771072771738 0.0
vertex 306.75038600188503 7.88771072771738 12.7
endloop
endfacet
facet normal -0.8660254037845556 0.49999999999979755 0.0
outer loop
vertex 306.5006349456236 7.284758340473626 0.0
vertex 306.75038600188503 7.88771072771738 12.7
vertex 306.75038600188503 7.88771072771738 0.0
endloop
endfacet
facet normal -0.9659258262891262 0.25881904510230513 0.0
outer loop
vertex 306.75038600188503 7.88771072771738 12.7
vertex 306.5006349456236 7.284758340473626 0.0
vertex 306.5006349456236 7.284758340473626 12.7
endloop
endfacet
facet normal 0.9914448613737803 0.1305261922202802 0.0
outer loop
vertex 434.33557143615207 53.034758340503004 12.7
vertex 434.165200567597 54.328853566015574 0.0
vertex 434.165200567597 54.328853566015574 12.7
endloop
endfacet
facet normal 0.9659258262890087 0.2588190451027437 0.0
outer loop
vertex 434.165200567597 54.328853566015574 0.0
vertex 434.33557143615207 53.034758340503004 12.7
vertex 434.33557143615207 53.034758340503004 0.0
endloop
endfacet
facet normal 0.0 0.0 1.0
outer loop
vertex 279.3355714361508 58.0347583404674 6.35
vertex 428.0414762106382 57.8643874719469 6.35
vertex 429.3355714361508 58.03475834050186 6.35
endloop
endfacet
facet normal 0.0 0.0 1.0
outer loop
vertex 428.0414762106382 57.8643874719469 6.35
vertex 279.3355714361508 58.0347583404674 6.35
vertex 426.83557143615104 57.36488535942347 6.35
endloop
endfacet
facet normal 0.0 0.0 1.0
outer loop
vertex 426.83557143615104 57.36488535942347 6.35
vertex 279.3355714361508 58.0347583404674 6.35
vertex 425.8000375302185 56.57029224643378 6.35
endloop
endfacet
facet normal 0.0 0.0 1.0
outer loop
vertex 425.8000375302185 56.57029224643378 6.35
vertex 279.3355714361508 58.0347583404674 6.35
vertex 425.00544441722917 55.53475834050086 6.35
endloop
endfacet
facet normal 0.0 0.0 1.0
outer loop
vertex 425.00544441722917 55.53475834050086 6.35
vertex 279.3355714361508 58.0347583404674 6.35
vertex 424.50594230470637 54.32885356601334 6.35
endloop
endfacet
facet normal 0.0 0.0 1.0
outer loop
vertex 424.50594230470637 54.32885356601334 6.35
vertex 279.3355714361508 58.0347583404674 6.35
vertex 424.33557143615207 53.0347583405007 6.35
endloop
endfacet
facet normal 0.0 0.0 1.0
outer loop
vertex 424.33557143615207 53.0347583405007 6.35
vertex 279.3355714361508 58.0347583404674 6.35
vertex 424.33557143615377 45.13475834057667 6.35
endloop
endfacet
facet normal 0.0 0.0 1.0
outer loop
vertex 424.33557143615377 45.13475834057667 6.35
vertex 279.3355714361508 58.0347583404674 6.35
vertex 280.6296666616635 57.86438747191304 6.35
endloop
endfacet
facet normal 0.0 0.0 1.0
outer loop
vertex 424.33557143615377 45.13475834057667 6.35
vertex 280.6296666616635 57.86438747191304 6.35
vertex 281.835571436151 57.36488535939017 6.35
endloop
endfacet
facet normal 0.0 0.0 1.0
outer loop
vertex 424.33557143615377 45.13475834057667 6.35
vertex 281.835571436151 57.36488535939017 6.35
vertex 282.8711053420839 56.570292246400946 6.35
endloop
endfacet
facet normal 0.0 0.0 1.0
outer loop
vertex 424.33557143615377 45.13475834057667 6.35
vertex 282.8711053420839 56.570292246400946 6.35
vertex 283.6656984550736 55.53475834046839 6.35
endloop
endfacet
facet normal 0.0 0.0 1.0
outer loop
vertex 424.33557143615377 45.13475834057667 6.35
vertex 283.6656984550736 55.53475834046839 6.35
vertex 284.1652005675971 54.328853565981106 6.35
endloop
endfacet
facet normal 0.0 0.0 1.0
outer loop
vertex 424.33557143615377 45.13475834057667 6.35
vertex 284.1652005675971 54.328853565981106 6.35
vertex 284.33557143615207 53.034758340468535 6.35
endloop
endfacet
facet normal 0.0 0.0 1.0
outer loop
vertex 284.3355714361538 45.134758340544494 6.35
vertex 424.33557143615377 45.13475834057667 6.35
vertex 284.33557143615207 53.034758340468535 6.35
endloop
endfacet
facet normal -0.25881904510274356 0.9659258262890088 0.0
outer loop
vertex 278.0414762106383 57.86438747191245 12.7
vertex 279.3355714361508 58.0347583404674 0.0
vertex 278.0414762106383 57.86438747191245 0.0
endloop
endfacet
facet normal -0.13052619222027917 0.9914448613737805 0.0
outer loop
vertex 279.3355714361508 58.0347583404674 0.0
vertex 278.0414762106383 57.86438747191245 12.7
vertex 279.3355714361508 58.0347583404674 6.35
endloop
endfacet
facet normal -0.13052619222027917 0.9914448613737805 0.0
outer loop
vertex 279.3355714361508 58.0347583404674 6.35
vertex 278.0414762106383 57.86438747191245 12.7
vertex 279.3355714361508 58.0347583404674 12.7
endloop
endfacet
facet normal -0.5000000000001967 0.8660254037843251 0.0
outer loop
vertex 405.5855714361627 6.369694831035281 12.7
vertex 406.10333838912896 6.766991387530138 0.0
vertex 405.5855714361627 6.369694831035281 0.0
endloop
endfacet
facet normal -0.7071067811867144 0.7071067811863806 0.0
outer loop
vertex 406.10333838912896 6.766991387530138 0.0
vertex 405.5855714361627 6.369694831035281 12.7
vertex 406.10333838912896 6.766991387530138 12.7
endloop
endfacet
facet normal -0.8660254037843207 -0.5000000000002044 0.0
outer loop
vertex 406.5006349456218 14.784758340496602 0.0
vertex 406.103338389127 15.302525293462875 12.7
vertex 406.103338389127 15.302525293462875 0.0
endloop
endfacet
facet normal -0.7071067811863856 -0.7071067811867094 0.0
outer loop
vertex 406.103338389127 15.302525293462875 12.7
vertex 406.5006349456218 14.784758340496602 0.0
vertex 406.5006349456218 14.784758340496602 12.7
endloop
endfacet
facet normal -2.296752637184797e-13 1.0 2.7755575615628914e-16
outer loop
vertex 279.3355714361508 58.0347583404674 6.35
vertex 429.3355714361508 58.03475834050186 0.0
vertex 279.3355714361508 58.0347583404674 0.0
endloop
endfacet
facet normal -2.296752637184797e-13 1.0 2.7755575615628914e-16
outer loop
vertex 429.3355714361508 58.03475834050186 0.0
vertex 279.3355714361508 58.0347583404674 6.35
vertex 429.3355714361508 58.03475834050186 6.35
endloop
endfacet
facet normal 0.9914448613738409 -0.13052619221981981 0.0
outer loop
vertex 401.835571436161 13.534758340495532 12.7
vertex 401.9207568704382 14.181805953251883 0.0
vertex 401.9207568704382 14.181805953251883 12.7
endloop
endfacet
facet normal 0.9659258262891272 -0.258819045102301 0.0
outer loop
vertex 401.9207568704382 14.181805953251883 0.0
vertex 401.835571436161 13.534758340495532 12.7
vertex 401.835571436161 13.534758340495532 0.0
endloop
endfacet
facet normal -0.25881904510273973 0.9659258262890096 0.0
outer loop
vertex 404.98261904891905 6.119943774773577 12.7
vertex 405.5855714361627 6.369694831035281 0.0
vertex 404.98261904891905 6.119943774773577 0.0
endloop
endfacet
facet normal -0.5000000000001967 0.8660254037843251 0.0
outer loop
vertex 405.5855714361627 6.369694831035281 0.0
vertex 404.98261904891905 6.119943774773577 12.7
vertex 405.5855714361627 6.369694831035281 12.7
endloop
endfacet
facet normal -0.9659258262891272 0.25881904510230125 0.0
outer loop
vertex 406.75038600188503 7.887710727740356 0.0
vertex 406.8355714361622 8.53475834049668 12.7
vertex 406.8355714361622 8.53475834049668 0.0
endloop
endfacet
facet normal -0.9914448613738398 0.1305261922198283 0.0
outer loop
vertex 406.8355714361622 8.53475834049668 12.7
vertex 406.75038600188503 7.887710727740356 0.0
vertex 406.75038600188503 7.887710727740356 12.7
endloop
endfacet
facet normal 0.2588190451022958 0.9659258262891286 0.0
outer loop
vertex 403.68852382340646 6.119943774773318 12.7
vertex 404.33557143616275 6.034758340496098 0.0
vertex 403.68852382340646 6.119943774773318 0.0
endloop
endfacet
facet normal -2.297884105217918e-13 1.0 0.0
outer loop
vertex 404.33557143616275 6.034758340496098 0.0
vertex 403.68852382340646 6.119943774773318 12.7
vertex 404.33557143616275 6.034758340496098 12.7
endloop
endfacet
facet normal 2.297884105217918e-13 -1.0 0.0
outer loop
vertex 404.3355714361604 16.034758340496115 12.7
vertex 403.6885238234042 15.949572906218663 0.0
vertex 404.3355714361604 16.034758340496115 0.0
endloop
endfacet
facet normal 0.25881904510274745 -0.9659258262890077 0.0
outer loop
vertex 403.6885238234042 15.949572906218663 0.0
vertex 404.3355714361604 16.034758340496115 12.7
vertex 403.6885238234042 15.949572906218663 12.7
endloop
endfacet
facet normal -1.0 -2.2774586449529706e-13 0.0
outer loop
vertex 274.33557143616156 11.03475834046627 0.0
vertex 274.33557143615195 53.03475834046625 12.7
vertex 274.33557143615195 53.03475834046625 0.0
endloop
endfacet
facet normal -1.0 -2.2774586449529706e-13 0.0
outer loop
vertex 274.33557143615195 53.03475834046625 12.7
vertex 274.33557143616156 11.03475834046627 0.0
vertex 274.33557143616156 11.03475834046627 12.7
endloop
endfacet
facet normal -0.9659258262890084 -0.25881904510274495 0.0
outer loop
vertex 406.75038600188356 14.181805953252962 0.0
vertex 406.5006349456218 14.784758340496602 12.7
vertex 406.5006349456218 14.784758340496602 0.0
endloop
endfacet
facet normal -0.8660254037843207 -0.5000000000002044 0.0
outer loop
vertex 406.5006349456218 14.784758340496602 12.7
vertex 406.75038600188356 14.181805953252962 0.0
vertex 406.75038600188356 14.181805953252962 12.7
endloop
endfacet
facet normal 1.0 2.2720872802243053e-13 0.0
outer loop
vertex 434.3355714361615 11.034758340503004 12.7
vertex 434.33557143615207 53.034758340503004 0.0
vertex 434.33557143615207 53.034758340503004 12.7
endloop
endfacet
facet normal 1.0 2.2720872802243053e-13 0.0
outer loop
vertex 434.33557143615207 53.034758340503004 0.0
vertex 434.3355714361615 11.034758340503004 12.7
vertex 434.3355714361615 11.034758340503004 0.0
endloop
endfacet
facet normal 0.8660254037843254 0.5000000000001964 0.0
outer loop
vertex 402.17050792670136 7.284758340495639 12.7
vertex 401.9207568704397 7.88771072773928 0.0
vertex 401.9207568704397 7.88771072773928 12.7
endloop
endfacet
facet normal 0.9659258262890081 0.25881904510274517 0.0
outer loop
vertex 401.9207568704397 7.88771072773928 0.0
vertex 402.17050792670136 7.284758340495639 12.7
vertex 402.17050792670136 7.284758340495639 0.0
endloop
endfacet
facet normal 0.9659258262891272 -0.258819045102301 0.0
outer loop
vertex 401.9207568704382 14.181805953251883 12.7
vertex 402.1705079266996 14.784758340495637 0.0
vertex 402.1705079266996 14.784758340495637 12.7
endloop
endfacet
facet normal 0.8660254037845505 -0.49999999999980643 0.0
outer loop
vertex 402.1705079266996 14.784758340495637 0.0
vertex 401.9207568704382 14.181805953251883 12.7
vertex 401.9207568704382 14.181805953251883 0.0
endloop
endfacet
facet normal 0.7071067811863894 0.7071067811867057 0.0
outer loop
vertex 402.5678044831962 6.766991387529326 12.7
vertex 402.17050792670136 7.284758340495639 0.0
vertex 402.17050792670136 7.284758340495639 12.7
endloop
endfacet
facet normal 0.8660254037843254 0.5000000000001964 0.0
outer loop
vertex 402.17050792670136 7.284758340495639 0.0
vertex 402.5678044831962 6.766991387529326 12.7
vertex 402.5678044831962 6.766991387529326 0.0
endloop
endfacet
facet normal 1.0 2.2866042392877263e-13 0.0
outer loop
vertex 401.8355714361622 8.53475834049553 12.7
vertex 401.835571436161 13.534758340495532 0.0
vertex 401.835571436161 13.534758340495532 12.7
endloop
endfacet
facet normal 1.0 2.2866042392877263e-13 0.0
outer loop
vertex 401.835571436161 13.534758340495532 0.0
vertex 401.8355714361622 8.53475834049553 12.7
vertex 401.8355714361622 8.53475834049553 0.0
endloop
endfacet
facet normal 0.9659258262890087 0.2588190451027437 0.0
outer loop
vertex 434.165200567597 54.328853566015574 12.7
vertex 433.6656984550736 55.534758340502854 0.0
vertex 433.6656984550736 55.534758340502854 12.7
endloop
endfacet
facet normal 0.8660254037843232 0.5000000000002001 0.0
outer loop
vertex 433.6656984550736 55.534758340502854 0.0
vertex 434.165200567597 54.328853566015574 12.7
vertex 434.165200567597 54.328853566015574 0.0
endloop
endfacet
facet normal -0.99144486137384 0.13052619221982784 0.0
outer loop
vertex 274.33557143615195 53.03475834046625 0.0
vertex 274.50594230470637 54.32885356597888 12.7
vertex 274.50594230470637 54.32885356597888 0.0
endloop
endfacet
facet normal -0.9659258262891286 0.2588190451022962 0.0
outer loop
vertex 274.50594230470637 54.32885356597888 12.7
vertex 274.33557143615195 53.03475834046625 0.0
vertex 274.33557143615195 53.03475834046625 12.7
endloop
endfacet
facet normal -3.667947849237111e-33 -1.7696539833534027e-33 1.0
outer loop
vertex 434.165200567597 54.328853566015574 12.7
vertex 434.3355714361615 11.034758340503004 12.7
vertex 434.33557143615207 53.034758340503004 12.7
endloop
endfacet
facet normal -3.667947849237111e-33 -1.7696539833534027e-33 1.0
outer loop
vertex 434.3355714361615 11.034758340503004 12.7
vertex 434.165200567597 54.328853566015574 12.7
vertex 434.2500200499 9.72949641830247 12.7
endloop
endfacet
facet normal -3.667947849237111e-33 -1.7696539833534027e-33 1.0
outer loop
vertex 434.2500200499 9.72949641830247 12.7
vertex 434.165200567597 54.328853566015574 12.7
vertex 433.9948296990529 8.44656788947771 12.7
endloop
endfacet
facet normal -3.667947849237111e-33 -1.7696539833534027e-33 1.0
outer loop
vertex 433.9948296990529 8.44656788947771 12.7
vertex 434.165200567597 54.328853566015574 12.7
vertex 433.6656984550736 55.534758340502854 12.7
endloop
endfacet
facet normal -3.667947849237111e-33 -1.7696539833534027e-33 1.0
outer loop
vertex 433.9948296990529 8.44656788947771 12.7
vertex 433.6656984550736 55.534758340502854 12.7
vertex 433.57436676127526 7.207924016851925 12.7
endloop
endfacet
facet normal -3.667947849237111e-33 -1.7696539833534027e-33 1.0
outer loop
vertex 433.57436676127526 7.207924016851925 12.7
vertex 433.6656984550736 55.534758340502854 12.7
vertex 432.87110534208387 56.5702922464354 12.7
endloop
endfacet
facet normal -3.667947849237111e-33 -1.7696539833534027e-33 1.0
outer loop
vertex 433.57436676127526 7.207924016851925 12.7
vertex 432.87110534208387 56.5702922464354 12.7
vertex 432.9958254740071 6.034758340502731 12.7
endloop
endfacet
facet normal -3.667947849237111e-33 -1.7696539833534027e-33 1.0
outer loop
vertex 432.9958254740071 6.034758340502731 12.7
vertex 432.87110534208387 56.5702922464354 12.7
vertex 432.2691048390753 4.947144050415325 12.7
endloop
endfacet
facet normal -3.667947849237111e-33 -1.7696539833534027e-33 1.0
outer loop
vertex 432.2691048390753 4.947144050415325 12.7
vertex 432.87110534208387 56.5702922464354 12.7
vertex 431.835571436151 57.36488535942462 12.7
endloop
endfacet
facet normal -3.667947849237111e-33 -1.7696539833534027e-33 1.0
outer loop
vertex 432.2691048390753 4.947144050415325 12.7
vertex 431.835571436151 57.36488535942462 12.7
vertex 431.4066392480286 3.9636905286368456 12.7
endloop
endfacet
facet normal -3.667947849237111e-33 -1.7696539833534027e-33 1.0
outer loop
vertex 431.4066392480286 3.9636905286368456 12.7
vertex 431.835571436151 57.36488535942462 12.7
vertex 430.6296666616635 57.864387471947495 12.7
endloop
endfacet
facet normal -3.667947849237111e-33 -1.7696539833534027e-33 1.0
outer loop
vertex 431.4066392480286 3.9636905286368456 12.7
vertex 430.6296666616635 57.864387471947495 12.7
vertex 430.4231857262506 3.1012249375897536 12.7
endloop
endfacet
facet normal -3.667947849237111e-33 -1.7696539833534027e-33 1.0
outer loop
vertex 430.4231857262506 3.1012249375897536 12.7
vertex 430.6296666616635 57.864387471947495 12.7
vertex 429.3355714361508 58.03475834050186 12.7
endloop
endfacet
facet normal -3.667947849237111e-33 -1.7696539833534027e-33 1.0
outer loop
vertex 430.4231857262506 3.1012249375897536 12.7
vertex 429.3355714361508 58.03475834050186 12.7
vertex 429.33557143616355 2.3745043026574617 12.7
endloop
endfacet
facet normal -3.667947849237111e-33 -1.7696539833534027e-33 1.0
outer loop
vertex 429.33557143616355 2.3745043026574617 12.7
vertex 429.3355714361508 58.03475834050186 12.7
vertex 428.0414762106382 57.8643874719469 12.7
endloop
endfacet
facet normal -3.667947849237111e-33 -1.7696539833534027e-33 1.0
outer loop
vertex 429.33557143616355 2.3745043026574617 12.7
vertex 428.0414762106382 57.8643874719469 12.7
vertex 428.1624057598146 1.795963015388705 12.7
endloop
endfacet
facet normal -3.667947849237111e-33 -1.7696539833534027e-33 1.0
outer loop
vertex 428.1624057598146 1.795963015388705 12.7
vertex 428.0414762106382 57.8643874719469 12.7
vertex 426.923761887189 1.3755000776106139 12.7
endloop
endfacet
facet normal -3.667947849237111e-33 -1.7696539833534027e-33 1.0
outer loop
vertex 426.923761887189 1.3755000776106139 12.7
vertex 428.0414762106382 57.8643874719469 12.7
vertex 426.83557143615104 57.36488535942347 12.7
endloop
endfacet
facet normal -3.667947849237111e-33 -1.7696539833534027e-33 1.0
outer loop
vertex 426.923761887189 1.3755000776106139 12.7
vertex 426.83557143615104 57.36488535942347 12.7
vertex 425.6408333583643 1.1203097267629047 12.7
endloop
endfacet
facet normal -3.667947849237111e-33 -1.7696539833534027e-33 1.0
outer loop
vertex 425.6408333583643 1.1203097267629047 12.7
vertex 426.83557143615104 57.36488535942347 12.7
vertex 425.8000375302185 56.57029224643378 12.7
endloop
endfacet
facet normal -3.667947849237111e-33 -1.7696539833534027e-33 1.0
outer loop
vertex 425.6408333583643 1.1203097267629047 12.7
vertex 425.8000375302185 56.57029224643378 12.7
vertex 425.00544441722917 55.53475834050086 12.7
endloop
endfacet
facet normal -3.667947849237111e-33 -1.7696539833534027e-33 1.0
outer loop
vertex 425.6408333583643 1.1203097267629047 12.7
vertex 425.00544441722917 55.53475834050086 12.7
vertex 424.3355714361639 1.0347583405006986 12.7
endloop
endfacet
facet normal -3.667947849237111e-33 -1.7696539833534027e-33 1.0
outer loop
vertex 424.3355714361639 1.0347583405006986 12.7
vertex 425.00544441722917 55.53475834050086 12.7
vertex 424.50594230470637 54.32885356601334 12.7
endloop
endfacet
facet normal -3.667947849237111e-33 -1.7696539833534027e-33 1.0
outer loop
vertex 424.3355714361639 1.0347583405006986 12.7
vertex 424.50594230470637 54.32885356601334 12.7
vertex 424.33557143615207 53.0347583405007 12.7
endloop
endfacet
facet normal -3.667947849237111e-33 -1.7696539833534027e-33 1.0
outer loop
vertex 424.3355714361639 1.0347583405006986 12.7
vertex 424.33557143615207 53.0347583405007 12.7
vertex 424.33557143615377 45.13475834057667 12.7
endloop
endfacet
facet normal -3.667947849237111e-33 -1.7696539833534027e-33 1.0
outer loop
vertex 424.3355714361639 1.0347583405006986 12.7
vertex 424.33557143615377 45.13475834057667 12.7
vertex 406.103338389127 15.302525293462875 12.7
endloop
endfacet
facet normal -3.667947849237111e-33 -1.7696539833534027e-33 1.0
outer loop
vertex 406.103338389127 15.302525293462875 12.7
vertex 424.33557143615377 45.13475834057667 12.7
vertex 405.58557143616054 15.69982184995749 12.7
endloop
endfacet
facet normal -3.667947849237111e-33 -1.7696539833534027e-33 1.0
outer loop
vertex 405.58557143616054 15.69982184995749 12.7
vertex 424.33557143615377 45.13475834057667 12.7
vertex 404.9826190489168 15.949572906218929 12.7
endloop
endfacet
facet normal -3.667947849237111e-33 -1.7696539833534027e-33 1.0
outer loop
vertex 404.9826190489168 15.949572906218929 12.7
vertex 424.33557143615377 45.13475834057667 12.7
vertex 284.3355714361538 45.134758340544494 12.7
endloop
endfacet
facet normal -3.667947849237111e-33 -1.7696539833534027e-33 1.0
outer loop
vertex 424.3355714361639 1.0347583405006986 12.7
vertex 406.103338389127 15.302525293462875 12.7
vertex 406.5006349456218 14.784758340496602 12.7
endloop
endfacet
facet normal -3.667947849237111e-33 -1.7696539833534027e-33 1.0
outer loop
vertex 424.3355714361639 1.0347583405006986 12.7
vertex 406.5006349456218 14.784758340496602 12.7
vertex 406.75038600188356 14.181805953252962 12.7
endloop
endfacet
facet normal -3.667947849237111e-33 -1.7696539833534027e-33 1.0
outer loop
vertex 424.3355714361639 1.0347583405006986 12.7
vertex 406.75038600188356 14.181805953252962 12.7
vertex 406.835571436161 13.534758340496683 12.7
endloop
endfacet
facet normal -3.667947849237111e-33 -1.7696539833534027e-33 1.0
outer loop
vertex 404.9826190489168 15.949572906218929 12.7
vertex 284.3355714361538 45.134758340544494 12.7
vertex 404.3355714361604 16.034758340496115 12.7
endloop
endfacet
facet normal -3.667947849237111e-33 -1.7696539833534027e-33 1.0
outer loop
vertex 404.3355714361604 16.034758340496115 12.7
vertex 284.3355714361538 45.134758340544494 12.7
vertex 403.6885238234042 15.949572906218663 12.7
endloop
endfacet
facet normal -3.667947849237111e-33 -1.7696539833534027e-33 1.0
outer loop
vertex 403.6885238234042 15.949572906218663 12.7
vertex 284.3355714361538 45.134758340544494 12.7
vertex 403.08557143616054 15.699821849956916 12.7
endloop
endfacet
facet normal -3.667947849237111e-33 -1.7696539833534027e-33 1.0
outer loop
vertex 403.08557143616054 15.699821849956916 12.7
vertex 284.3355714361538 45.134758340544494 12.7
vertex 402.56780448319427 15.302525293462063 12.7
endloop
endfacet
facet normal -3.667947849237111e-33 -1.7696539833534027e-33 1.0
outer loop
vertex 402.56780448319427 15.302525293462063 12.7
vertex 284.3355714361538 45.134758340544494 12.7
vertex 402.1705079266996 14.784758340495637 12.7
endloop
endfacet
facet normal -3.667947849237111e-33 -1.7696539833534027e-33 1.0
outer loop
vertex 402.1705079266996 14.784758340495637 12.7
vertex 284.3355714361538 45.134758340544494 12.7
vertex 401.9207568704382 14.181805953251883 12.7
endloop
endfacet
facet normal -3.667947849237111e-33 -1.7696539833534027e-33 1.0
outer loop
vertex 401.9207568704382 14.181805953251883 12.7
vertex 284.3355714361538 45.134758340544494 12.7
vertex 401.835571436161 13.534758340495532 12.7
endloop
endfacet
facet normal -3.667947849237111e-33 -1.7696539833534027e-33 1.0
outer loop
vertex 401.835571436161 13.534758340495532 12.7
vertex 284.3355714361538 45.134758340544494 12.7
vertex 401.8355714361622 8.53475834049553 12.7
endloop
endfacet
facet normal -3.667947849237111e-33 -1.7696539833534027e-33 1.0
outer loop
vertex 401.8355714361622 8.53475834049553 12.7
vertex 284.3355714361538 45.134758340544494 12.7
vertex 306.5006349456218 14.784758340473624 12.7
endloop
endfacet
facet normal -3.667947849237111e-33 -1.7696539833534027e-33 1.0
outer loop
vertex 401.8355714361622 8.53475834049553 12.7
vertex 306.5006349456218 14.784758340473624 12.7
vertex 306.7503860018835 14.181805953229984 12.7
endloop
endfacet
facet normal -3.667947849237111e-33 -1.7696539833534027e-33 1.0
outer loop
vertex 401.8355714361622 8.53475834049553 12.7
vertex 306.7503860018835 14.181805953229984 12.7
vertex 306.835571436161 13.534758340473733 12.7
endloop
endfacet
facet normal -3.667947849237111e-33 -1.7696539833534027e-33 1.0
outer loop
vertex 306.5006349456218 14.784758340473624 12.7
vertex 284.3355714361538 45.134758340544494 12.7
vertex 306.103338389127 15.302525293439926 12.7
endloop
endfacet
facet normal -3.667947849237111e-33 -1.7696539833534027e-33 1.0
outer loop
vertex 306.103338389127 15.302525293439926 12.7
vertex 284.3355714361538 45.134758340544494 12.7
vertex 305.5855714361606 15.699821849934507 12.7
endloop
endfacet
facet normal -3.667947849237111e-33 -1.7696539833534027e-33 1.0
outer loop
vertex 305.5855714361606 15.699821849934507 12.7
vertex 284.3355714361538 45.134758340544494 12.7
vertex 304.9826190489167 15.949572906195952 12.7
endloop
endfacet
facet normal -3.667947849237111e-33 -1.7696539833534027e-33 1.0
outer loop
vertex 304.9826190489167 15.949572906195952 12.7
vertex 284.3355714361538 45.134758340544494 12.7
vertex 304.3355714361605 16.034758340473154 12.7
endloop
endfacet
facet normal -3.667947849237111e-33 -1.7696539833534027e-33 1.0
outer loop
vertex 304.3355714361605 16.034758340473154 12.7
vertex 284.3355714361538 45.134758340544494 12.7
vertex 303.6885238234041 15.949572906195675 12.7
endloop
endfacet
facet normal -3.667947849237111e-33 -1.7696539833534027e-33 1.0
outer loop
vertex 303.6885238234041 15.949572906195675 12.7
vertex 284.3355714361538 45.134758340544494 12.7
vertex 303.0855714361605 15.699821849933931 12.7
endloop
endfacet
facet normal -3.667947849237111e-33 -1.7696539833534027e-33 1.0
outer loop
vertex 303.0855714361605 15.699821849933931 12.7
vertex 284.3355714361538 45.134758340544494 12.7
vertex 302.56780448319427 15.302525293439114 12.7
endloop
endfacet
facet normal -3.667947849237111e-33 -1.7696539833534027e-33 1.0
outer loop
vertex 302.56780448319427 15.302525293439114 12.7
vertex 284.3355714361538 45.134758340544494 12.7
vertex 302.1705079266996 14.78475834047266 12.7
endloop
endfacet
facet normal -3.667947849237111e-33 -1.7696539833534027e-33 1.0
outer loop
vertex 302.1705079266996 14.78475834047266 12.7
vertex 284.3355714361538 45.134758340544494 12.7
vertex 301.9207568704382 14.181805953228906 12.7
endloop
endfacet
facet normal -3.667947849237111e-33 -1.7696539833534027e-33 1.0
outer loop
vertex 301.9207568704382 14.181805953228906 12.7
vertex 284.3355714361538 45.134758340544494 12.7
vertex 301.83557143616105 13.534758340472555 12.7
endloop
endfacet
facet normal -3.667947849237111e-33 -1.7696539833534027e-33 1.0
outer loop
vertex 301.83557143616105 13.534758340472555 12.7
vertex 284.3355714361538 45.134758340544494 12.7
vertex 301.8355714361622 8.534758340472553 12.7
endloop
endfacet
facet normal -3.667947849237111e-33 -1.7696539833534027e-33 1.0
outer loop
vertex 284.1652005675971 54.328853565981106 12.7
vertex 284.3355714361538 45.134758340544494 12.7
vertex 284.33557143615207 53.034758340468535 12.7
endloop
endfacet
facet normal -3.667947849237111e-33 -1.7696539833534027e-33 1.0
outer loop
vertex 284.3355714361538 45.134758340544494 12.7
vertex 284.1652005675971 54.328853565981106 12.7
vertex 284.3355714361639 1.0347583404685283 12.7
endloop
endfacet
facet normal -3.667947849237111e-33 -1.7696539833534027e-33 1.0
outer loop
vertex 284.3355714361639 1.0347583404685283 12.7
vertex 284.1652005675971 54.328853565981106 12.7
vertex 283.03030951396335 1.1203097267301592 12.7
endloop
endfacet
facet normal -3.667947849237111e-33 -1.7696539833534027e-33 1.0
outer loop
vertex 283.03030951396335 1.1203097267301592 12.7
vertex 284.1652005675971 54.328853565981106 12.7
vertex 283.6656984550736 55.53475834046839 12.7
endloop
endfacet
facet normal -3.667947849237111e-33 -1.7696539833534027e-33 1.0
outer loop
vertex 283.03030951396335 1.1203097267301592 12.7
vertex 283.6656984550736 55.53475834046839 12.7
vertex 282.8711053420839 56.570292246400946 12.7
endloop
endfacet
facet normal -3.667947849237111e-33 -1.7696539833534027e-33 1.0
outer loop
vertex 283.03030951396335 1.1203097267301592 12.7
vertex 282.8711053420839 56.570292246400946 12.7
vertex 281.7473809851386 1.3755000775772819 12.7
endloop
endfacet
facet normal -3.667947849237111e-33 -1.7696539833534027e-33 1.0
outer loop
vertex 281.7473809851386 1.3755000775772819 12.7
vertex 282.8711053420839 56.570292246400946 12.7
vertex 281.835571436151 57.36488535939017 12.7
endloop
endfacet
facet normal -3.667947849237111e-33 -1.7696539833534027e-33 1.0
outer loop
vertex 281.7473809851386 1.3755000775772819 12.7
vertex 281.835571436151 57.36488535939017 12.7
vertex 280.6296666616635 57.86438747191304 12.7
endloop
endfacet
facet normal -3.667947849237111e-33 -1.7696539833534027e-33 1.0
outer loop
vertex 281.7473809851386 1.3755000775772819 12.7
vertex 280.6296666616635 57.86438747191304 12.7
vertex 280.50873711251285 1.7959630153547752 12.7
endloop
endfacet
facet normal -3.667947849237111e-33 -1.7696539833534027e-33 1.0
outer loop
vertex 280.50873711251285 1.7959630153547752 12.7
vertex 280.6296666616635 57.86438747191304 12.7
vertex 279.3355714361508 58.0347583404674 12.7
endloop
endfacet
facet normal -3.667947849237111e-33 -1.7696539833534027e-33 1.0
outer loop
vertex 280.50873711251285 1.7959630153547752 12.7
vertex 279.3355714361508 58.0347583404674 12.7
vertex 279.3355714361636 2.37450430262299 12.7
endloop
endfacet
facet normal -3.667947849237111e-33 -1.7696539833534027e-33 1.0
outer loop
vertex 279.3355714361636 2.37450430262299 12.7
vertex 279.3355714361508 58.0347583404674 12.7
vertex 278.0414762106383 57.86438747191245 12.7
endloop
endfacet
facet normal -3.667947849237111e-33 -1.7696539833534027e-33 1.0
outer loop
vertex 279.3355714361636 2.37450430262299 12.7
vertex 278.0414762106383 57.86438747191245 12.7
vertex 278.2479571460762 3.1012249375547745 12.7
endloop
endfacet
facet normal -3.667947849237111e-33 -1.7696539833534027e-33 1.0
outer loop
vertex 278.2479571460762 3.1012249375547745 12.7
vertex 278.0414762106383 57.86438747191245 12.7
vertex 277.26450362429773 3.963690528601427 12.7
endloop
endfacet
facet normal -3.667947849237111e-33 -1.7696539833534027e-33 1.0
outer loop
vertex 277.26450362429773 3.963690528601427 12.7
vertex 278.0414762106383 57.86438747191245 12.7
vertex 276.83557143615104 57.36488535938902 12.7
endloop
endfacet
facet normal -3.667947849237111e-33 -1.7696539833534027e-33 1.0
outer loop
vertex 277.26450362429773 3.963690528601427 12.7
vertex 276.83557143615104 57.36488535938902 12.7
vertex 276.4020380332506 4.947144050379534 12.7
endloop
endfacet
facet normal -3.667947849237111e-33 -1.7696539833534027e-33 1.0
outer loop
vertex 276.4020380332506 4.947144050379534 12.7
vertex 276.83557143615104 57.36488535938902 12.7
vertex 275.80003753021845 56.570292246399326 12.7
endloop
endfacet
facet normal -3.667947849237111e-33 -1.7696539833534027e-33 1.0
outer loop
vertex 276.4020380332506 4.947144050379534 12.7
vertex 275.80003753021845 56.570292246399326 12.7
vertex 275.6753173983183 6.034758340466545 12.7
endloop
endfacet
facet normal -3.667947849237111e-33 -1.7696539833534027e-33 1.0
outer loop
vertex 275.6753173983183 6.034758340466545 12.7
vertex 275.80003753021845 56.570292246399326 12.7
vertex 275.00544441722917 55.5347583404664 12.7
endloop
endfacet
facet normal -3.667947849237111e-33 -1.7696539833534027e-33 1.0
outer loop
vertex 275.6753173983183 6.034758340466545 12.7
vertex 275.00544441722917 55.5347583404664 12.7
vertex 275.09677611104956 7.2079240168155145 12.7
endloop
endfacet
facet normal -3.667947849237111e-33 -1.7696539833534027e-33 1.0
outer loop
vertex 275.09677611104956 7.2079240168155145 12.7
vertex 275.00544441722917 55.5347583404664 12.7
vertex 274.6763131732715 8.446567889441111 12.7
endloop
endfacet
facet normal -3.667947849237111e-33 -1.7696539833534027e-33 1.0
outer loop
vertex 274.6763131732715 8.446567889441111 12.7
vertex 275.00544441722917 55.5347583404664 12.7
vertex 274.50594230470637 54.32885356597888 12.7
endloop
endfacet
facet normal -3.667947849237111e-33 -1.7696539833534027e-33 1.0
outer loop
vertex 274.6763131732715 8.446567889441111 12.7
vertex 274.50594230470637 54.32885356597888 12.7
vertex 274.42112282242385 9.729496418265741 12.7
endloop
endfacet
facet normal -3.667947849237111e-33 -1.7696539833534027e-33 1.0
outer loop
vertex 274.42112282242385 9.729496418265741 12.7
vertex 274.50594230470637 54.32885356597888 12.7
vertex 274.33557143615195 53.03475834046625 12.7
endloop
endfacet
facet normal -3.667947849237111e-33 -1.7696539833534027e-33 1.0
outer loop
vertex 274.42112282242385 9.729496418265741 12.7
vertex 274.33557143615195 53.03475834046625 12.7
vertex 274.33557143616156 11.03475834046627 12.7
endloop
endfacet
facet normal -3.667947849237111e-33 -1.7696539833534027e-33 1.0
outer loop
vertex 424.3355714361639 1.0347583405006986 12.7
vertex 404.33557143616275 6.034758340496098 12.7
vertex 284.3355714361639 1.0347583404685283 12.7
endloop
endfacet
facet normal -3.667947849237111e-33 -1.7696539833534027e-33 1.0
outer loop
vertex 404.33557143616275 6.034758340496098 12.7
vertex 424.3355714361639 1.0347583405006986 12.7
vertex 404.98261904891905 6.119943774773577 12.7
endloop
endfacet
facet normal -3.667947849237111e-33 -1.7696539833534027e-33 1.0
outer loop
vertex 404.98261904891905 6.119943774773577 12.7
vertex 424.3355714361639 1.0347583405006986 12.7
vertex 405.5855714361627 6.369694831035281 12.7
endloop
endfacet
facet normal -3.667947849237111e-33 -1.7696539833534027e-33 1.0
outer loop
vertex 405.5855714361627 6.369694831035281 12.7
vertex 424.3355714361639 1.0347583405006986 12.7
vertex 406.10333838912896 6.766991387530138 12.7
endloop
endfacet
facet normal -3.667947849237111e-33 -1.7696539833534027e-33 1.0
outer loop
vertex 406.10333838912896 6.766991387530138 12.7
vertex 424.3355714361639 1.0347583405006986 12.7
vertex 406.50063494562363 7.284758340496603 12.7
endloop
endfacet
facet normal -3.667947849237111e-33 -1.7696539833534027e-33 1.0
outer loop
vertex 406.50063494562363 7.284758340496603 12.7
vertex 424.3355714361639 1.0347583405006986 12.7
vertex 406.75038600188503 7.887710727740356 12.7
endloop
endfacet
facet normal -3.667947849237111e-33 -1.7696539833534027e-33 1.0
outer loop
vertex 406.75038600188503 7.887710727740356 12.7
vertex 424.3355714361639 1.0347583405006986 12.7
vertex 406.8355714361622 8.53475834049668 12.7
endloop
endfacet
facet normal -3.667947849237111e-33 -1.7696539833534027e-33 1.0
outer loop
vertex 406.8355714361622 8.53475834049668 12.7
vertex 424.3355714361639 1.0347583405006986 12.7
vertex 406.835571436161 13.534758340496683 12.7
endloop
endfacet
facet normal -3.667947849237111e-33 -1.7696539833534027e-33 1.0
outer loop
vertex 284.3355714361639 1.0347583404685283 12.7
vertex 404.33557143616275 6.034758340496098 12.7
vertex 403.68852382340646 6.119943774773318 12.7
endloop
endfacet
facet normal -3.667947849237111e-33 -1.7696539833534027e-33 1.0
outer loop
vertex 284.3355714361639 1.0347583404685283 12.7
vertex 403.68852382340646 6.119943774773318 12.7
vertex 403.08557143616264 6.369694831034705 12.7
endloop
endfacet
facet normal -3.667947849237111e-33 -1.7696539833534027e-33 1.0
outer loop
vertex 284.3355714361639 1.0347583404685283 12.7
vertex 403.08557143616264 6.369694831034705 12.7
vertex 402.5678044831962 6.766991387529326 12.7
endloop
endfacet
facet normal -3.667947849237111e-33 -1.7696539833534027e-33 1.0
outer loop
vertex 284.3355714361639 1.0347583404685283 12.7
vertex 402.5678044831962 6.766991387529326 12.7
vertex 402.17050792670136 7.284758340495639 12.7
endloop
endfacet
facet normal -3.667947849237111e-33 -1.7696539833534027e-33 1.0
outer loop
vertex 284.3355714361639 1.0347583404685283 12.7
vertex 402.17050792670136 7.284758340495639 12.7
vertex 401.9207568704397 7.88771072773928 12.7
endloop
endfacet
facet normal -3.667947849237111e-33 -1.7696539833534027e-33 1.0
outer loop
vertex 284.3355714361639 1.0347583404685283 12.7
vertex 401.9207568704397 7.88771072773928 12.7
vertex 401.8355714361622 8.53475834049553 12.7
endloop
endfacet
facet normal -3.667947849237111e-33 -1.7696539833534027e-33 1.0
outer loop
vertex 284.3355714361639 1.0347583404685283 12.7
vertex 401.8355714361622 8.53475834049553 12.7
vertex 304.9826190489191 6.119943774750611 12.7
endloop
endfacet
facet normal -3.667947849237111e-33 -1.7696539833534027e-33 1.0
outer loop
vertex 304.9826190489191 6.119943774750611 12.7
vertex 401.8355714361622 8.53475834049553 12.7
vertex 305.58557143616264 6.369694831012315 12.7
endloop
endfacet
facet normal -3.667947849237111e-33 -1.7696539833534027e-33 1.0
outer loop
vertex 305.58557143616264 6.369694831012315 12.7
vertex 401.8355714361622 8.53475834049553 12.7
vertex 306.10333838912896 6.766991387507206 12.7
endloop
endfacet
facet normal -3.667947849237111e-33 -1.7696539833534027e-33 1.0
outer loop
vertex 306.10333838912896 6.766991387507206 12.7
vertex 401.8355714361622 8.53475834049553 12.7
vertex 306.5006349456236 7.284758340473626 12.7
endloop
endfacet
facet normal -3.667947849237111e-33 -1.7696539833534027e-33 1.0
outer loop
vertex 306.5006349456236 7.284758340473626 12.7
vertex 401.8355714361622 8.53475834049553 12.7
vertex 306.75038600188503 7.88771072771738 12.7
endloop
endfacet
facet normal -3.667947849237111e-33 -1.7696539833534027e-33 1.0
outer loop
vertex 306.75038600188503 7.88771072771738 12.7
vertex 401.8355714361622 8.53475834049553 12.7
vertex 306.8355714361622 8.534758340473731 12.7
endloop
endfacet
facet normal -3.667947849237111e-33 -1.7696539833534027e-33 1.0
outer loop
vertex 306.8355714361622 8.534758340473731 12.7
vertex 401.8355714361622 8.53475834049553 12.7
vertex 306.835571436161 13.534758340473733 12.7
endloop
endfacet
facet normal -3.667947849237111e-33 -1.7696539833534027e-33 1.0
outer loop
vertex 284.3355714361639 1.0347583404685283 12.7
vertex 304.9826190489191 6.119943774750611 12.7
vertex 304.33557143616275 6.034758340473166 12.7
endloop
endfacet
facet normal -3.667947849237111e-33 -1.7696539833534027e-33 1.0
outer loop
vertex 284.3355714361639 1.0347583404685283 12.7
vertex 304.33557143616275 6.034758340473166 12.7
vertex 303.6885238234065 6.119943774750352 12.7
endloop
endfacet
facet normal -3.667947849237111e-33 -1.7696539833534027e-33 1.0
outer loop
vertex 284.3355714361639 1.0347583404685283 12.7
vertex 303.6885238234065 6.119943774750352 12.7
vertex 303.0855714361627 6.369694831011739 12.7
endloop
endfacet
facet normal -3.667947849237111e-33 -1.7696539833534027e-33 1.0
outer loop
vertex 284.3355714361639 1.0347583404685283 12.7
vertex 303.0855714361627 6.369694831011739 12.7
vertex 302.5678044831962 6.766991387506394 12.7
endloop
endfacet
facet normal -3.667947849237111e-33 -1.7696539833534027e-33 1.0
outer loop
vertex 284.3355714361639 1.0347583404685283 12.7
vertex 302.5678044831962 6.766991387506394 12.7
vertex 302.1705079267014 7.284758340472663 12.7
endloop
endfacet
facet normal -3.667947849237111e-33 -1.7696539833534027e-33 1.0
outer loop
vertex 284.3355714361639 1.0347583404685283 12.7
vertex 302.1705079267014 7.284758340472663 12.7
vertex 301.9207568704397 7.8877107277163026 12.7
endloop
endfacet
facet normal -3.667947849237111e-33 -1.7696539833534027e-33 1.0
outer loop
vertex 284.3355714361639 1.0347583404685283 12.7
vertex 301.9207568704397 7.8877107277163026 12.7
vertex 301.8355714361622 8.534758340472553 12.7
endloop
endfacet
facet normal -3.667947849237111e-33 -1.7696539833534027e-33 1.0
outer loop
vertex 284.3355714361639 1.0347583404685283 12.7
vertex 301.8355714361622 8.534758340472553 12.7
vertex 284.3355714361538 45.134758340544494 12.7
endloop
endfacet
facet normal -1.0 -2.309163971148109e-13 0.0
outer loop
vertex 406.8355714361622 8.53475834049668 0.0
vertex 406.835571436161 13.534758340496683 12.7
vertex 406.835571436161 13.534758340496683 0.0
endloop
endfacet
facet normal -1.0 -2.309163971148109e-13 0.0
outer loop
vertex 406.835571436161 13.534758340496683 12.7
vertex 406.8355714361622 8.53475834049668 0.0
vertex 406.8355714361622 8.53475834049668 12.7
endloop
endfacet
facet normal 2.297884105217918e-13 -1.0 0.0
outer loop
vertex 424.3355714361639 1.0347583405006986 12.7
vertex 284.3355714361639 1.0347583404685283 0.0
vertex 424.3355714361639 1.0347583405006986 0.0
endloop
endfacet
facet normal 2.297884105217918e-13 -1.0 0.0
outer loop
vertex 284.3355714361639 1.0347583404685283 0.0
vertex 424.3355714361639 1.0347583405006986 12.7
vertex 284.3355714361639 1.0347583404685283 12.7
endloop
endfacet
facet normal -0.991444861373781 -0.13052619222027545 0.0
outer loop
vertex 406.835571436161 13.534758340496683 0.0
vertex 406.75038600188356 14.181805953252962 12.7
vertex 406.75038600188356 14.181805953252962 0.0
endloop
endfacet
facet normal -0.9659258262890084 -0.25881904510274495 0.0
outer loop
vertex 406.75038600188356 14.181805953252962 12.7
vertex 406.835571436161 13.534758340496683 0.0
vertex 406.835571436161 13.534758340496683 12.7
endloop
endfacet
facet normal 0.25881904510274745 -0.9659258262890077 0.0
outer loop
vertex 403.6885238234042 15.949572906218663 12.7
vertex 403.08557143616054 15.699821849956916 0.0
vertex 403.6885238234042 15.949572906218663 0.0
endloop
endfacet
facet normal 0.5000000000002058 -0.8660254037843199 0.0
outer loop
vertex 403.08557143616054 15.699821849956916 0.0
vertex 403.6885238234042 15.949572906218663 12.7
vertex 403.08557143616054 15.699821849956916 12.7
endloop
endfacet
facet normal -0.7071067811863856 -0.7071067811867094 0.0
outer loop
vertex 406.103338389127 15.302525293462875 12.7
vertex 405.58557143616054 15.69982184995749 0.0
vertex 406.103338389127 15.302525293462875 0.0
endloop
endfacet
facet normal -0.4999999999998072 -0.8660254037845502 0.0
outer loop
vertex 405.58557143616054 15.69982184995749 0.0
vertex 406.103338389127 15.302525293462875 12.7
vertex 405.58557143616054 15.69982184995749 12.7
endloop
endfacet
facet normal 0.0 0.0 -1.0
outer loop
vertex 424.3355714361639 1.0347583405006986 0.0
vertex 406.75038600188503 7.887710727740356 0.0
vertex 406.8355714361622 8.53475834049668 0.0
endloop
endfacet
facet normal 0.0 0.0 -1.0
outer loop
vertex 406.75038600188503 7.887710727740356 0.0
vertex 424.3355714361639 1.0347583405006986 0.0
vertex 406.50063494562363 7.284758340496603 0.0
endloop
endfacet
facet normal 0.0 0.0 -1.0
outer loop
vertex 406.50063494562363 7.284758340496603 0.0
vertex 424.3355714361639 1.0347583405006986 0.0
vertex 406.10333838912896 6.766991387530138 0.0
endloop
endfacet
facet normal 0.0 0.0 -1.0
outer loop
vertex 406.10333838912896 6.766991387530138 0.0
vertex 424.3355714361639 1.0347583405006986 0.0
vertex 405.5855714361627 6.369694831035281 0.0
endloop
endfacet
facet normal 0.0 0.0 -1.0
outer loop
vertex 405.5855714361627 6.369694831035281 0.0
vertex 424.3355714361639 1.0347583405006986 0.0
vertex 404.98261904891905 6.119943774773577 0.0
endloop
endfacet
facet normal 0.0 0.0 -1.0
outer loop
vertex 404.98261904891905 6.119943774773577 0.0
vertex 424.3355714361639 1.0347583405006986 0.0
vertex 404.33557143616275 6.034758340496098 0.0
endloop
endfacet
facet normal 0.0 0.0 -1.0
outer loop
vertex 404.33557143616275 6.034758340496098 0.0
vertex 424.3355714361639 1.0347583405006986 0.0
vertex 284.3355714361639 1.0347583404685283 0.0
endloop
endfacet
facet normal 0.0 0.0 -1.0
outer loop
vertex 404.33557143616275 6.034758340496098 0.0
vertex 284.3355714361639 1.0347583404685283 0.0
vertex 403.68852382340646 6.119943774773318 0.0
endloop
endfacet
facet normal 0.0 0.0 -1.0
outer loop
vertex 403.68852382340646 6.119943774773318 0.0
vertex 284.3355714361639 1.0347583404685283 0.0
vertex 403.08557143616264 6.369694831034705 0.0
endloop
endfacet
facet normal 0.0 0.0 -1.0
outer loop
vertex 403.08557143616264 6.369694831034705 0.0
vertex 284.3355714361639 1.0347583404685283 0.0
vertex 402.5678044831962 6.766991387529326 0.0
endloop
endfacet
facet normal 0.0 0.0 -1.0
outer loop
vertex 402.5678044831962 6.766991387529326 0.0
vertex 284.3355714361639 1.0347583404685283 0.0
vertex 402.17050792670136 7.284758340495639 0.0
endloop
endfacet
facet normal 0.0 0.0 -1.0
outer loop
vertex 402.17050792670136 7.284758340495639 0.0
vertex 284.3355714361639 1.0347583404685283 0.0
vertex 401.9207568704397 7.88771072773928 0.0
endloop
endfacet
facet normal 0.0 0.0 -1.0
outer loop
vertex 401.9207568704397 7.88771072773928 0.0
vertex 284.3355714361639 1.0347583404685283 0.0
vertex 401.8355714361622 8.53475834049553 0.0
endloop
endfacet
facet normal 0.0 0.0 -1.0
outer loop
vertex 401.8355714361622 8.53475834049553 0.0
vertex 284.3355714361639 1.0347583404685283 0.0
vertex 401.835571436161 13.534758340495532 0.0
endloop
endfacet
facet normal 0.0 0.0 -1.0
outer loop
vertex 401.835571436161 13.534758340495532 0.0
vertex 284.3355714361639 1.0347583404685283 0.0
vertex 304.9826190489191 6.119943774750611 0.0
endloop
endfacet
facet normal 0.0 0.0 -1.0
outer loop
vertex 401.835571436161 13.534758340495532 0.0
vertex 304.9826190489191 6.119943774750611 0.0
vertex 305.58557143616264 6.369694831012315 0.0
endloop
endfacet
facet normal 0.0 0.0 -1.0
outer loop
vertex 401.835571436161 13.534758340495532 0.0
vertex 305.58557143616264 6.369694831012315 0.0
vertex 306.10333838912896 6.766991387507206 0.0
endloop
endfacet
facet normal 0.0 0.0 -1.0
outer loop
vertex 401.835571436161 13.534758340495532 0.0
vertex 306.10333838912896 6.766991387507206 0.0
vertex 306.5006349456236 7.284758340473626 0.0
endloop
endfacet
facet normal 0.0 0.0 -1.0
outer loop
vertex 401.835571436161 13.534758340495532 0.0
vertex 306.5006349456236 7.284758340473626 0.0
vertex 306.75038600188503 7.88771072771738 0.0
endloop
endfacet
facet normal 0.0 0.0 -1.0
outer loop
vertex 401.835571436161 13.534758340495532 0.0
vertex 306.75038600188503 7.88771072771738 0.0
vertex 306.8355714361622 8.534758340473731 0.0
endloop
endfacet
facet normal 0.0 0.0 -1.0
outer loop
vertex 304.9826190489191 6.119943774750611 0.0
vertex 284.3355714361639 1.0347583404685283 0.0
vertex 304.33557143616275 6.034758340473166 0.0
endloop
endfacet
facet normal 0.0 0.0 -1.0
outer loop
vertex 304.33557143616275 6.034758340473166 0.0
vertex 284.3355714361639 1.0347583404685283 0.0
vertex 303.6885238234065 6.119943774750352 0.0
endloop
endfacet
facet normal 0.0 0.0 -1.0
outer loop
vertex 303.6885238234065 6.119943774750352 0.0
vertex 284.3355714361639 1.0347583404685283 0.0
vertex 303.0855714361627 6.369694831011739 0.0
endloop
endfacet
facet normal 0.0 0.0 -1.0
outer loop
vertex 303.0855714361627 6.369694831011739 0.0
vertex 284.3355714361639 1.0347583404685283 0.0
vertex 302.5678044831962 6.766991387506394 0.0
endloop
endfacet
facet normal 0.0 0.0 -1.0
outer loop
vertex 302.5678044831962 6.766991387506394 0.0
vertex 284.3355714361639 1.0347583404685283 0.0
vertex 302.1705079267014 7.284758340472663 0.0
endloop
endfacet
facet normal 0.0 0.0 -1.0
outer loop
vertex 302.1705079267014 7.284758340472663 0.0
vertex 284.3355714361639 1.0347583404685283 0.0
vertex 301.9207568704397 7.8877107277163026 0.0
endloop
endfacet
facet normal 0.0 0.0 -1.0
outer loop
vertex 301.9207568704397 7.8877107277163026 0.0
vertex 284.3355714361639 1.0347583404685283 0.0
vertex 301.8355714361622 8.534758340472553 0.0
endloop
endfacet
facet normal 0.0 0.0 -1.0
outer loop
vertex 301.8355714361622 8.534758340472553 0.0
vertex 284.3355714361639 1.0347583404685283 0.0
vertex 301.83557143616105 13.534758340472555 0.0
endloop
endfacet
facet normal 0.0 0.0 -1.0
outer loop
vertex 434.3355714361615 11.034758340503004 0.0
vertex 434.165200567597 54.328853566015574 0.0
vertex 434.33557143615207 53.034758340503004 0.0
endloop
endfacet
facet normal 0.0 0.0 -1.0
outer loop
vertex 434.165200567597 54.328853566015574 0.0
vertex 434.3355714361615 11.034758340503004 0.0
vertex 434.2500200499 9.72949641830247 0.0
endloop
endfacet
facet normal 0.0 0.0 -1.0
outer loop
vertex 434.165200567597 54.328853566015574 0.0
vertex 434.2500200499 9.72949641830247 0.0
vertex 433.9948296990529 8.44656788947771 0.0
endloop
endfacet
facet normal 0.0 0.0 -1.0
outer loop
vertex 434.165200567597 54.328853566015574 0.0
vertex 433.9948296990529 8.44656788947771 0.0
vertex 433.6656984550736 55.534758340502854 0.0
endloop
endfacet
facet normal 0.0 0.0 -1.0
outer loop
vertex 433.6656984550736 55.534758340502854 0.0
vertex 433.9948296990529 8.44656788947771 0.0
vertex 433.57436676127526 7.207924016851925 0.0
endloop
endfacet
facet normal 0.0 0.0 -1.0
outer loop
vertex 433.6656984550736 55.534758340502854 0.0
vertex 433.57436676127526 7.207924016851925 0.0
vertex 432.87110534208387 56.5702922464354 0.0
endloop
endfacet
facet normal 0.0 0.0 -1.0
outer loop
vertex 432.87110534208387 56.5702922464354 0.0
vertex 433.57436676127526 7.207924016851925 0.0
vertex 432.9958254740071 6.034758340502731 0.0
endloop
endfacet
facet normal 0.0 0.0 -1.0
outer loop
vertex 432.87110534208387 56.5702922464354 0.0
vertex 432.9958254740071 6.034758340502731 0.0
vertex 432.2691048390753 4.947144050415325 0.0
endloop
endfacet
facet normal 0.0 0.0 -1.0
outer loop
vertex 432.87110534208387 56.5702922464354 0.0
vertex 432.2691048390753 4.947144050415325 0.0
vertex 431.835571436151 57.36488535942462 0.0
endloop
endfacet
facet normal 0.0 0.0 -1.0
outer loop
vertex 431.835571436151 57.36488535942462 0.0
vertex 432.2691048390753 4.947144050415325 0.0
vertex 431.4066392480286 3.9636905286368456 0.0
endloop
endfacet
facet normal 0.0 0.0 -1.0
outer loop
vertex 431.835571436151 57.36488535942462 0.0
vertex 431.4066392480286 3.9636905286368456 0.0
vertex 430.6296666616635 57.864387471947495 0.0
endloop
endfacet
facet normal 0.0 0.0 -1.0
outer loop
vertex 430.6296666616635 57.864387471947495 0.0
vertex 431.4066392480286 3.9636905286368456 0.0
vertex 430.4231857262506 3.1012249375897536 0.0
endloop
endfacet
facet normal 0.0 0.0 -1.0
outer loop
vertex 430.6296666616635 57.864387471947495 0.0
vertex 430.4231857262506 3.1012249375897536 0.0
vertex 429.3355714361508 58.03475834050186 0.0
endloop
endfacet
facet normal 0.0 0.0 -1.0
outer loop
vertex 429.3355714361508 58.03475834050186 0.0
vertex 430.4231857262506 3.1012249375897536 0.0
vertex 429.33557143616355 2.3745043026574617 0.0
endloop
endfacet
facet normal 0.0 0.0 -1.0
outer loop
vertex 429.3355714361508 58.03475834050186 0.0
vertex 429.33557143616355 2.3745043026574617 0.0
vertex 405.58557143616054 15.69982184995749 0.0
endloop
endfacet
facet normal 0.0 0.0 -1.0
outer loop
vertex 429.3355714361508 58.03475834050186 0.0
vertex 405.58557143616054 15.69982184995749 0.0
vertex 404.9826190489168 15.949572906218929 0.0
endloop
endfacet
facet normal 0.0 0.0 -1.0
outer loop
vertex 429.3355714361508 58.03475834050186 0.0
vertex 404.9826190489168 15.949572906218929 0.0
vertex 279.3355714361508 58.0347583404674 0.0
endloop
endfacet
facet normal 0.0 0.0 -1.0
outer loop
vertex 405.58557143616054 15.69982184995749 0.0
vertex 429.33557143616355 2.3745043026574617 0.0
vertex 428.1624057598146 1.795963015388705 0.0
endloop
endfacet
facet normal 0.0 0.0 -1.0
outer loop
vertex 405.58557143616054 15.69982184995749 0.0
vertex 428.1624057598146 1.795963015388705 0.0
vertex 426.923761887189 1.3755000776106139 0.0
endloop
endfacet
facet normal 0.0 0.0 -1.0
outer loop
vertex 405.58557143616054 15.69982184995749 0.0
vertex 426.923761887189 1.3755000776106139 0.0
vertex 425.6408333583643 1.1203097267629047 0.0
endloop
endfacet
facet normal 0.0 0.0 -1.0
outer loop
vertex 405.58557143616054 15.69982184995749 0.0
vertex 425.6408333583643 1.1203097267629047 0.0
vertex 406.103338389127 15.302525293462875 0.0
endloop
endfacet
facet normal 0.0 0.0 -1.0
outer loop
vertex 406.103338389127 15.302525293462875 0.0
vertex 425.6408333583643 1.1203097267629047 0.0
vertex 424.3355714361639 1.0347583405006986 0.0
endloop
endfacet
facet normal 0.0 0.0 -1.0
outer loop
vertex 406.103338389127 15.302525293462875 0.0
vertex 424.3355714361639 1.0347583405006986 0.0
vertex 406.5006349456218 14.784758340496602 0.0
endloop
endfacet
facet normal 0.0 0.0 -1.0
outer loop
vertex 406.5006349456218 14.784758340496602 0.0
vertex 424.3355714361639 1.0347583405006986 0.0
vertex 406.75038600188356 14.181805953252962 0.0
endloop
endfacet
facet normal 0.0 0.0 -1.0
outer loop
vertex 406.75038600188356 14.181805953252962 0.0
vertex 424.3355714361639 1.0347583405006986 0.0
vertex 406.835571436161 13.534758340496683 0.0
endloop
endfacet
facet normal 0.0 0.0 -1.0
outer loop
vertex 406.835571436161 13.534758340496683 0.0
vertex 424.3355714361639 1.0347583405006986 0.0
vertex 406.8355714361622 8.53475834049668 0.0
endloop
endfacet
facet normal 0.0 0.0 -1.0
outer loop
vertex 279.3355714361508 58.0347583404674 0.0
vertex 404.9826190489168 15.949572906218929 0.0
vertex 404.3355714361604 16.034758340496115 0.0
endloop
endfacet
facet normal 0.0 0.0 -1.0
outer loop
vertex 279.3355714361508 58.0347583404674 0.0
vertex 404.3355714361604 16.034758340496115 0.0
vertex 403.6885238234042 15.949572906218663 0.0
endloop
endfacet
facet normal 0.0 0.0 -1.0
outer loop
vertex 279.3355714361508 58.0347583404674 0.0
vertex 403.6885238234042 15.949572906218663 0.0
vertex 403.08557143616054 15.699821849956916 0.0
endloop
endfacet
facet normal 0.0 0.0 -1.0
outer loop
vertex 279.3355714361508 58.0347583404674 0.0
vertex 403.08557143616054 15.699821849956916 0.0
vertex 402.56780448319427 15.302525293462063 0.0
endloop
endfacet
facet normal 0.0 0.0 -1.0
outer loop
vertex 279.3355714361508 58.0347583404674 0.0
vertex 402.56780448319427 15.302525293462063 0.0
vertex 402.1705079266996 14.784758340495637 0.0
endloop
endfacet
facet normal 0.0 0.0 -1.0
outer loop
vertex 279.3355714361508 58.0347583404674 0.0
vertex 402.1705079266996 14.784758340495637 0.0
vertex 401.9207568704382 14.181805953251883 0.0
endloop
endfacet
facet normal 0.0 0.0 -1.0
outer loop
vertex 279.3355714361508 58.0347583404674 0.0
vertex 401.9207568704382 14.181805953251883 0.0
vertex 401.835571436161 13.534758340495532 0.0
endloop
endfacet
facet normal 0.0 0.0 -1.0
outer loop
vertex 279.3355714361508 58.0347583404674 0.0
vertex 401.835571436161 13.534758340495532 0.0
vertex 306.5006349456218 14.784758340473624 0.0
endloop
endfacet
facet normal 0.0 0.0 -1.0
outer loop
vertex 306.5006349456218 14.784758340473624 0.0
vertex 401.835571436161 13.534758340495532 0.0
vertex 306.7503860018835 14.181805953229984 0.0
endloop
endfacet
facet normal 0.0 0.0 -1.0
outer loop
vertex 306.7503860018835 14.181805953229984 0.0
vertex 401.835571436161 13.534758340495532 0.0
vertex 306.835571436161 13.534758340473733 0.0
endloop
endfacet
facet normal 0.0 0.0 -1.0
outer loop
vertex 306.835571436161 13.534758340473733 0.0
vertex 401.835571436161 13.534758340495532 0.0
vertex 306.8355714361622 8.534758340473731 0.0
endloop
endfacet
facet normal 0.0 0.0 -1.0
outer loop
vertex 279.3355714361508 58.0347583404674 0.0
vertex 306.5006349456218 14.784758340473624 0.0
vertex 306.103338389127 15.302525293439926 0.0
endloop
endfacet
facet normal 0.0 0.0 -1.0
outer loop
vertex 279.3355714361508 58.0347583404674 0.0
vertex 306.103338389127 15.302525293439926 0.0
vertex 305.5855714361606 15.699821849934507 0.0
endloop
endfacet
facet normal 0.0 0.0 -1.0
outer loop
vertex 279.3355714361508 58.0347583404674 0.0
vertex 305.5855714361606 15.699821849934507 0.0
vertex 304.9826190489167 15.949572906195952 0.0
endloop
endfacet
facet normal 0.0 0.0 -1.0
outer loop
vertex 279.3355714361508 58.0347583404674 0.0
vertex 304.9826190489167 15.949572906195952 0.0
vertex 304.3355714361605 16.034758340473154 0.0
endloop
endfacet
facet normal 0.0 0.0 -1.0
outer loop
vertex 279.3355714361508 58.0347583404674 0.0
vertex 304.3355714361605 16.034758340473154 0.0
vertex 303.6885238234041 15.949572906195675 0.0
endloop
endfacet
facet normal 0.0 0.0 -1.0
outer loop
vertex 279.3355714361508 58.0347583404674 0.0
vertex 303.6885238234041 15.949572906195675 0.0
vertex 303.0855714361605 15.699821849933931 0.0
endloop
endfacet
facet normal 0.0 0.0 -1.0
outer loop
vertex 279.3355714361508 58.0347583404674 0.0
vertex 303.0855714361605 15.699821849933931 0.0
vertex 302.56780448319427 15.302525293439114 0.0
endloop
endfacet
facet normal 0.0 0.0 -1.0
outer loop
vertex 279.3355714361508 58.0347583404674 0.0
vertex 302.56780448319427 15.302525293439114 0.0
vertex 302.1705079266996 14.78475834047266 0.0
endloop
endfacet
facet normal 0.0 0.0 -1.0
outer loop
vertex 279.3355714361508 58.0347583404674 0.0
vertex 302.1705079266996 14.78475834047266 0.0
vertex 301.9207568704382 14.181805953228906 0.0
endloop
endfacet
facet normal 0.0 0.0 -1.0
outer loop
vertex 279.3355714361508 58.0347583404674 0.0
vertex 301.9207568704382 14.181805953228906 0.0
vertex 301.83557143616105 13.534758340472555 0.0
endloop
endfacet
facet normal 0.0 0.0 -1.0
outer loop
vertex 279.3355714361508 58.0347583404674 0.0
vertex 301.83557143616105 13.534758340472555 0.0
vertex 284.3355714361639 1.0347583404685283 0.0
endloop
endfacet
facet normal 0.0 0.0 -1.0
outer loop
vertex 279.3355714361508 58.0347583404674 0.0
vertex 284.3355714361639 1.0347583404685283 0.0
vertex 283.03030951396335 1.1203097267301592 0.0
endloop
endfacet
facet normal 0.0 0.0 -1.0
outer loop
vertex 279.3355714361508 58.0347583404674 0.0
vertex 283.03030951396335 1.1203097267301592 0.0
vertex 281.7473809851386 1.3755000775772819 0.0
endloop
endfacet
facet normal 0.0 0.0 -1.0
outer loop
vertex 279.3355714361508 58.0347583404674 0.0
vertex 281.7473809851386 1.3755000775772819 0.0
vertex 280.50873711251285 1.7959630153547752 0.0
endloop
endfacet
facet normal 0.0 0.0 -1.0
outer loop
vertex 279.3355714361508 58.0347583404674 0.0
vertex 280.50873711251285 1.7959630153547752 0.0
vertex 279.3355714361636 2.37450430262299 0.0
endloop
endfacet
facet normal 0.0 0.0 -1.0
outer loop
vertex 279.3355714361508 58.0347583404674 0.0
vertex 279.3355714361636 2.37450430262299 0.0
vertex 278.0414762106383 57.86438747191245 0.0
endloop
endfacet
facet normal 0.0 0.0 -1.0
outer loop
vertex 278.0414762106383 57.86438747191245 0.0
vertex 279.3355714361636 2.37450430262299 0.0
vertex 278.2479571460762 3.1012249375547745 0.0
endloop
endfacet
facet normal 0.0 0.0 -1.0
outer loop
vertex 278.0414762106383 57.86438747191245 0.0
vertex 278.2479571460762 3.1012249375547745 0.0
vertex 277.26450362429773 3.963690528601427 0.0
endloop
endfacet
facet normal 0.0 0.0 -1.0
outer loop
vertex 278.0414762106383 57.86438747191245 0.0
vertex 277.26450362429773 3.963690528601427 0.0
vertex 276.83557143615104 57.36488535938902 0.0
endloop
endfacet
facet normal 0.0 0.0 -1.0
outer loop
vertex 276.83557143615104 57.36488535938902 0.0
vertex 277.26450362429773 3.963690528601427 0.0
vertex 276.4020380332506 4.947144050379534 0.0
endloop
endfacet
facet normal 0.0 0.0 -1.0
outer loop
vertex 276.83557143615104 57.36488535938902 0.0
vertex 276.4020380332506 4.947144050379534 0.0
vertex 275.80003753021845 56.570292246399326 0.0
endloop
endfacet
facet normal 0.0 0.0 -1.0
outer loop
vertex 275.80003753021845 56.570292246399326 0.0
vertex 276.4020380332506 4.947144050379534 0.0
vertex 275.6753173983183 6.034758340466545 0.0
endloop
endfacet
facet normal 0.0 0.0 -1.0
outer loop
vertex 275.80003753021845 56.570292246399326 0.0
vertex 275.6753173983183 6.034758340466545 0.0
vertex 275.00544441722917 55.5347583404664 0.0
endloop
endfacet
facet normal 0.0 0.0 -1.0
outer loop
vertex 275.00544441722917 55.5347583404664 0.0
vertex 275.6753173983183 6.034758340466545 0.0
vertex 275.09677611104956 7.2079240168155145 0.0
endloop
endfacet
facet normal 0.0 0.0 -1.0
outer loop
vertex 275.00544441722917 55.5347583404664 0.0
vertex 275.09677611104956 7.2079240168155145 0.0
vertex 274.6763131732715 8.446567889441111 0.0
endloop
endfacet
facet normal 0.0 0.0 -1.0
outer loop
vertex 275.00544441722917 55.5347583404664 0.0
vertex 274.6763131732715 8.446567889441111 0.0
vertex 274.50594230470637 54.32885356597888 0.0
endloop
endfacet
facet normal 0.0 0.0 -1.0
outer loop
vertex 274.50594230470637 54.32885356597888 0.0
vertex 274.6763131732715 8.446567889441111 0.0
vertex 274.42112282242385 9.729496418265741 0.0
endloop
endfacet
facet normal 0.0 0.0 -1.0
outer loop
vertex 274.50594230470637 54.32885356597888 0.0
vertex 274.42112282242385 9.729496418265741 0.0
vertex 274.33557143615195 53.03475834046625 0.0
endloop
endfacet
facet normal 0.0 0.0 -1.0
outer loop
vertex 274.33557143615195 53.03475834046625 0.0
vertex 274.42112282242385 9.729496418265741 0.0
vertex 274.33557143616156 11.03475834046627 0.0
endloop
endfacet
facet normal 0.9659258262890081 0.25881904510274517 0.0
outer loop
vertex 401.9207568704397 7.88771072773928 12.7
vertex 401.8355714361622 8.53475834049553 0.0
vertex 401.8355714361622 8.53475834049553 12.7
endloop
endfacet
facet normal 0.9914448613737799 0.13052619222028394 0.0
outer loop
vertex 401.8355714361622 8.53475834049553 0.0
vertex 401.9207568704397 7.88771072773928 12.7
vertex 401.9207568704397 7.88771072773928 0.0
endloop
endfacet
facet normal 0.5000000000002058 -0.8660254037843199 0.0
outer loop
vertex 403.08557143616054 15.699821849956916 12.7
vertex 402.56780448319427 15.302525293462063 0.0
vertex 403.08557143616054 15.699821849956916 0.0
endloop
endfacet
facet normal 0.7071067811867124 -0.7071067811863826 0.0
outer loop
vertex 402.56780448319427 15.302525293462063 0.0
vertex 403.08557143616054 15.699821849956916 12.7
vertex 402.56780448319427 15.302525293462063 12.7
endloop
endfacet
facet normal 0.8660254037845505 -0.49999999999980643 0.0
outer loop
vertex 402.1705079266996 14.784758340495637 12.7
vertex 402.56780448319427 15.302525293462063 0.0
vertex 402.56780448319427 15.302525293462063 12.7
endloop
endfacet
facet normal 0.7071067811867124 -0.7071067811863826 0.0
outer loop
vertex 402.56780448319427 15.302525293462063 0.0
vertex 402.1705079266996 14.784758340495637 12.7
vertex 402.1705079266996 14.784758340495637 0.0
endloop
endfacet
facet normal -0.2588190451023051 -0.9659258262891262 0.0
outer loop
vertex 404.9826190489168 15.949572906218929 12.7
vertex 404.3355714361604 16.034758340496115 0.0
vertex 404.9826190489168 15.949572906218929 0.0
endloop
endfacet
facet normal 2.297884105217918e-13 -1.0 0.0
outer loop
vertex 404.3355714361604 16.034758340496115 0.0
vertex 404.9826190489168 15.949572906218929 12.7
vertex 404.3355714361604 16.034758340496115 12.7
endloop
endfacet
facet normal -2.297884105217918e-13 1.0 0.0
outer loop
vertex 404.33557143616275 6.034758340496098 12.7
vertex 404.98261904891905 6.119943774773577 0.0
vertex 404.33557143616275 6.034758340496098 0.0
endloop
endfacet
facet normal -0.25881904510273973 0.9659258262890096 0.0
outer loop
vertex 404.98261904891905 6.119943774773577 0.0
vertex 404.33557143616275 6.034758340496098 12.7
vertex 404.98261904891905 6.119943774773577 12.7
endloop
endfacet
facet normal -0.8660254037845552 0.4999999999997984 0.0
outer loop
vertex 406.50063494562363 7.284758340496603 0.0
vertex 406.75038600188503 7.887710727740356 12.7
vertex 406.75038600188503 7.887710727740356 0.0
endloop
endfacet
facet normal -0.9659258262891272 0.25881904510230125 0.0
outer loop
vertex 406.75038600188503 7.887710727740356 12.7
vertex 406.50063494562363 7.284758340496603 0.0
vertex 406.50063494562363 7.284758340496603 12.7
endloop
endfacet
facet normal -0.4999999999998072 -0.8660254037845502 0.0
outer loop
vertex 405.58557143616054 15.69982184995749 12.7
vertex 404.9826190489168 15.949572906218929 0.0
vertex 405.58557143616054 15.69982184995749 0.0
endloop
endfacet
facet normal -0.2588190451023051 -0.9659258262891262 0.0
outer loop
vertex 404.9826190489168 15.949572906218929 0.0
vertex 405.58557143616054 15.69982184995749 12.7
vertex 404.9826190489168 15.949572906218929 12.7
endloop
endfacet
facet normal -0.7071067811867144 0.7071067811863806 0.0
outer loop
vertex 406.10333838912896 6.766991387530138 0.0
vertex 406.50063494562363 7.284758340496603 12.7
vertex 406.50063494562363 7.284758340496603 0.0
endloop
endfacet
facet normal -0.8660254037845552 0.4999999999997984 0.0
outer loop
vertex 406.50063494562363 7.284758340496603 12.7
vertex 406.10333838912896 6.766991387530138 0.0
vertex 406.10333838912896 6.766991387530138 12.7
endloop
endfacet
facet normal 0.7071067811863894 0.7071067811867057 0.0
outer loop
vertex 402.5678044831962 6.766991387529326 12.7
vertex 403.08557143616264 6.369694831034705 0.0
vertex 402.5678044831962 6.766991387529326 0.0
endloop
endfacet
facet normal 0.4999999999997987 0.866025403784555 0.0
outer loop
vertex 403.08557143616264 6.369694831034705 0.0
vertex 402.5678044831962 6.766991387529326 12.7
vertex 403.08557143616264 6.369694831034705 12.7
endloop
endfacet
facet normal 0.4999999999997987 0.866025403784555 0.0
outer loop
vertex 403.08557143616264 6.369694831034705 12.7
vertex 403.68852382340646 6.119943774773318 0.0
vertex 403.08557143616264 6.369694831034705 0.0
endloop
endfacet
facet normal 0.2588190451022958 0.9659258262891286 0.0
outer loop
vertex 403.68852382340646 6.119943774773318 0.0
vertex 403.08557143616264 6.369694831034705 12.7
vertex 403.68852382340646 6.119943774773318 12.7
endloop
endfacet
facet normal 0.9914448613737799 0.13052619222028344 0.0
outer loop
vertex 284.33557143615207 53.034758340468535 12.7
vertex 284.1652005675971 54.328853565981106 6.35
vertex 284.1652005675971 54.328853565981106 12.7
endloop
endfacet
facet normal 0.9659258262890096 0.2588190451027402 0.0
outer loop
vertex 284.1652005675971 54.328853565981106 6.35
vertex 284.33557143615207 53.034758340468535 12.7
vertex 284.33557143615207 53.034758340468535 6.35
endloop
endfacet
facet normal 1.0 2.313086431276717e-13 0.0
outer loop
vertex 284.3355714361538 45.134758340544494 12.7
vertex 284.33557143615207 53.034758340468535 6.35
vertex 284.33557143615207 53.034758340468535 12.7
endloop
endfacet
facet normal 1.0 2.313086431276717e-13 0.0
outer loop
vertex 284.33557143615207 53.034758340468535 6.35
vertex 284.3355714361538 45.134758340544494 12.7
vertex 284.3355714361538 45.134758340544494 6.35
endloop
endfacet
facet normal -0.5000000000001997 0.8660254037843236 0.0
outer loop
vertex 426.83557143615104 57.36488535942347 12.7
vertex 428.0414762106382 57.8643874719469 6.35
vertex 426.83557143615104 57.36488535942347 6.35
endloop
endfacet
facet normal -0.2588190451027435 0.9659258262890087 0.0
outer loop
vertex 428.0414762106382 57.8643874719469 6.35
vertex 426.83557143615104 57.36488535942347 12.7
vertex 428.0414762106382 57.8643874719469 12.7
endloop
endfacet
facet normal -1.0 -2.2845298086683646e-13 0.0
outer loop
vertex 424.33557143615377 45.13475834057667 6.35
vertex 424.33557143615207 53.0347583405007 12.7
vertex 424.33557143615207 53.0347583405007 6.35
endloop
endfacet
facet normal -1.0 -2.2845298086683646e-13 0.0
outer loop
vertex 424.33557143615207 53.0347583405007 12.7
vertex 424.33557143615377 45.13475834057667 6.35
vertex 424.33557143615377 45.13475834057667 12.7
endloop
endfacet
facet normal 0.25881904510229997 0.9659258262891276 0.0
outer loop
vertex 280.6296666616635 57.86438747191304 12.7
vertex 281.835571436151 57.36488535939017 6.35
vertex 280.6296666616635 57.86438747191304 6.35
endloop
endfacet
facet normal 0.49999999999979955 0.8660254037845544 0.0
outer loop
vertex 281.835571436151 57.36488535939017 6.35
vertex 280.6296666616635 57.86438747191304 12.7
vertex 281.835571436151 57.36488535939017 12.7
endloop
endfacet
facet normal -0.965925826289128 0.25881904510229764 0.0
outer loop
vertex 424.50594230470637 54.32885356601334 6.35
vertex 425.00544441722917 55.53475834050086 12.7
vertex 425.00544441722917 55.53475834050086 6.35
endloop
endfacet
facet normal -0.8660254037845541 0.49999999999980016 0.0
outer loop
vertex 425.00544441722917 55.53475834050086 12.7
vertex 424.50594230470637 54.32885356601334 6.35
vertex 424.50594230470637 54.32885356601334 12.7
endloop
endfacet
facet normal 0.49999999999979955 0.8660254037845544 0.0
outer loop
vertex 281.835571436151 57.36488535939017 12.7
vertex 282.8711053420839 56.570292246400946 6.35
vertex 281.835571436151 57.36488535939017 6.35
endloop
endfacet
facet normal 0.7071067811863814 0.7071067811867137 0.0
outer loop
vertex 282.8711053420839 56.570292246400946 6.35
vertex 281.835571436151 57.36488535939017 12.7
vertex 282.8711053420839 56.570292246400946 12.7
endloop
endfacet
facet normal -0.8660254037845541 0.49999999999980016 0.0
outer loop
vertex 425.00544441722917 55.53475834050086 6.35
vertex 425.8000375302185 56.57029224643378 12.7
vertex 425.8000375302185 56.57029224643378 6.35
endloop
endfacet
facet normal -0.7071067811867108 0.7071067811863843 0.0
outer loop
vertex 425.8000375302185 56.57029224643378 12.7
vertex 425.00544441722917 55.53475834050086 6.35
vertex 425.00544441722917 55.53475834050086 12.7
endloop
endfacet
facet normal -2.297869830921887e-13 1.0 0.0
outer loop
vertex 284.3355714361538 45.134758340544494 12.7
vertex 424.33557143615377 45.13475834057667 6.35
vertex 284.3355714361538 45.134758340544494 6.35
endloop
endfacet
facet normal -2.297869830921887e-13 1.0 0.0
outer loop
vertex 424.33557143615377 45.13475834057667 6.35
vertex 284.3355714361538 45.134758340544494 12.7
vertex 424.33557143615377 45.13475834057667 12.7
endloop
endfacet
facet normal 0.1305261922198246 0.9914448613738405 0.0
outer loop
vertex 279.3355714361508 58.0347583404674 12.7
vertex 280.6296666616635 57.86438747191304 6.35
vertex 279.3355714361508 58.0347583404674 6.35
endloop
endfacet
facet normal 0.25881904510229997 0.9659258262891276 0.0
outer loop
vertex 280.6296666616635 57.86438747191304 6.35
vertex 279.3355714361508 58.0347583404674 12.7
vertex 280.6296666616635 57.86438747191304 12.7
endloop
endfacet
facet normal -0.7071067811867124 0.7071067811863827 0.0
outer loop
vertex 306.10333838912896 6.766991387507206 0.0
vertex 306.5006349456236 7.284758340473626 12.7
vertex 306.5006349456236 7.284758340473626 0.0
endloop
endfacet
facet normal -0.8660254037845556 0.49999999999979755 0.0
outer loop
vertex 306.5006349456236 7.284758340473626 12.7
vertex 306.10333838912896 6.766991387507206 0.0
vertex 306.10333838912896 6.766991387507206 12.7
endloop
endfacet
facet normal -0.5000000000001914 0.8660254037843281 0.0
outer loop
vertex 305.58557143616264 6.369694831012315 12.7
vertex 306.10333838912896 6.766991387507206 0.0
vertex 305.58557143616264 6.369694831012315 0.0
endloop
endfacet
facet normal -0.7071067811867124 0.7071067811863827 0.0
outer loop
vertex 306.10333838912896 6.766991387507206 0.0
vertex 305.58557143616264 6.369694831012315 12.7
vertex 306.10333838912896 6.766991387507206 12.7
endloop
endfacet
facet normal -0.25881904510274234 0.965925826289009 0.0
outer loop
vertex 304.9826190489191 6.119943774750611 12.7
vertex 305.58557143616264 6.369694831012315 0.0
vertex 304.9826190489191 6.119943774750611 0.0
endloop
endfacet
facet normal -0.5000000000001914 0.8660254037843281 0.0
outer loop
vertex 305.58557143616264 6.369694831012315 0.0
vertex 304.9826190489191 6.119943774750611 12.7
vertex 305.58557143616264 6.369694831012315 12.7
endloop
endfacet
facet normal -2.297884105217918e-13 1.0 0.0
outer loop
vertex 304.33557143616275 6.034758340473166 12.7
vertex 304.9826190489191 6.119943774750611 0.0
vertex 304.33557143616275 6.034758340473166 0.0
endloop
endfacet
facet normal -0.25881904510274234 0.965925826289009 0.0
outer loop
vertex 304.9826190489191 6.119943774750611 0.0
vertex 304.33557143616275 6.034758340473166 12.7
vertex 304.9826190489191 6.119943774750611 12.7
endloop
endfacet
facet normal 0.25881904510229214 0.9659258262891297 0.0
outer loop
vertex 303.6885238234065 6.119943774750352 12.7
vertex 304.33557143616275 6.034758340473166 0.0
vertex 303.6885238234065 6.119943774750352 0.0
endloop
endfacet
facet normal -2.297884105217918e-13 1.0 0.0
outer loop
vertex 304.33557143616275 6.034758340473166 0.0
vertex 303.6885238234065 6.119943774750352 12.7
vertex 304.33557143616275 6.034758340473166 12.7
endloop
endfacet
facet normal 0.49999999999979683 0.8660254037845562 0.0
outer loop
vertex 303.0855714361627 6.369694831011739 12.7
vertex 303.6885238234065 6.119943774750352 0.0
vertex 303.0855714361627 6.369694831011739 0.0
endloop
endfacet
facet normal 0.25881904510229214 0.9659258262891297 0.0
outer loop
vertex 303.6885238234065 6.119943774750352 0.0
vertex 303.0855714361627 6.369694831011739 12.7
vertex 303.6885238234065 6.119943774750352 12.7
endloop
endfacet
facet normal 0.7071067811863947 0.7071067811867005 0.0
outer loop
vertex 302.5678044831962 6.766991387506394 12.7
vertex 303.0855714361627 6.369694831011739 0.0
vertex 302.5678044831962 6.766991387506394 0.0
endloop
endfacet
facet normal 0.49999999999979683 0.8660254037845562 0.0
outer loop
vertex 303.0855714361627 6.369694831011739 0.0
vertex 302.5678044831962 6.766991387506394 12.7
vertex 303.0855714361627 6.369694831011739 12.7
endloop
endfacet
facet normal 0.7071067811863947 0.7071067811867005 0.0
outer loop
vertex 302.5678044831962 6.766991387506394 12.7
vertex 302.1705079267014 7.284758340472663 0.0
vertex 302.1705079267014 7.284758340472663 12.7
endloop
endfacet
facet normal 0.8660254037843258 0.5000000000001955 0.0
outer loop
vertex 302.1705079267014 7.284758340472663 0.0
vertex 302.5678044831962 6.766991387506394 12.7
vertex 302.5678044831962 6.766991387506394 0.0
endloop
endfacet
facet normal 0.8660254037843258 0.5000000000001955 0.0
outer loop
vertex 302.1705079267014 7.284758340472663 12.7
vertex 301.9207568704397 7.8877107277163026 0.0
vertex 301.9207568704397 7.8877107277163026 12.7
endloop
endfacet
facet normal 0.9659258262890071 0.258819045102749 0.0
outer loop
vertex 301.9207568704397 7.8877107277163026 0.0
vertex 302.1705079267014 7.284758340472663 12.7
vertex 302.1705079267014 7.284758340472663 0.0
endloop
endfacet
facet normal 0.9659258262890071 0.258819045102749 0.0
outer loop
vertex 301.9207568704397 7.8877107277163026 12.7
vertex 301.8355714361622 8.534758340472553 0.0
vertex 301.8355714361622 8.534758340472553 12.7
endloop
endfacet
facet normal 0.9914448613737799 0.13052619222028394 0.0
outer loop
vertex 301.8355714361622 8.534758340472553 0.0
vertex 301.9207568704397 7.8877107277163026 12.7
vertex 301.9207568704397 7.8877107277163026 0.0
endloop
endfacet
facet normal 1.0 2.297884105217918e-13 0.0
outer loop
vertex 301.8355714361622 8.534758340472553 12.7
vertex 301.83557143616105 13.534758340472555 0.0
vertex 301.83557143616105 13.534758340472555 12.7
endloop
endfacet
facet normal 1.0 2.297884105217918e-13 0.0
outer loop
vertex 301.83557143616105 13.534758340472555 0.0
vertex 301.8355714361622 8.534758340472553 12.7
vertex 301.8355714361622 8.534758340472553 0.0
endloop
endfacet
facet normal -0.7071067811867069 0.7071067811863881 0.0
outer loop
vertex 275.80003753021845 56.570292246399326 12.7
vertex 276.83557143615104 57.36488535938902 0.0
vertex 275.80003753021845 56.570292246399326 0.0
endloop
endfacet
facet normal -0.5000000000001982 0.8660254037843242 0.0
outer loop
vertex 276.83557143615104 57.36488535938902 0.0
vertex 275.80003753021845 56.570292246399326 12.7
vertex 276.83557143615104 57.36488535938902 12.7
endloop
endfacet
facet normal -0.8660254037845548 0.4999999999997991 0.0
outer loop
vertex 275.00544441722917 55.5347583404664 0.0
vertex 275.80003753021845 56.570292246399326 12.7
vertex 275.80003753021845 56.570292246399326 0.0
endloop
endfacet
facet normal -0.7071067811867069 0.7071067811863881 0.0
outer loop
vertex 275.80003753021845 56.570292246399326 12.7
vertex 275.00544441722917 55.5347583404664 0.0
vertex 275.00544441722917 55.5347583404664 12.7
endloop
endfacet
facet normal -0.5000000000001982 0.8660254037843242 0.0
outer loop
vertex 276.83557143615104 57.36488535938902 12.7
vertex 278.0414762106383 57.86438747191245 0.0
vertex 276.83557143615104 57.36488535938902 0.0
endloop
endfacet
facet normal -0.25881904510274356 0.9659258262890088 0.0
outer loop
vertex 278.0414762106383 57.86438747191245 0.0
vertex 276.83557143615104 57.36488535938902 12.7
vertex 278.0414762106383 57.86438747191245 12.7
endloop
endfacet
facet normal -0.9659258262891286 0.2588190451022962 0.0
outer loop
vertex 274.50594230470637 54.32885356597888 0.0
vertex 275.00544441722917 55.5347583404664 12.7
vertex 275.00544441722917 55.5347583404664 0.0
endloop
endfacet
facet normal -0.8660254037845548 0.4999999999997991 0.0
outer loop
vertex 275.00544441722917 55.5347583404664 12.7
vertex 274.50594230470637 54.32885356597888 0.0
vertex 274.50594230470637 54.32885356597888 12.7
endloop
endfacet
facet normal -0.49999999999980255 -0.8660254037845526 0.0
outer loop
vertex 279.3355714361636 2.37450430262299 12.7
vertex 278.2479571460762 3.1012249375547745 0.0
vertex 279.3355714361636 2.37450430262299 0.0
endloop
endfacet
facet normal -0.6087614290085411 -0.7933533402913728 0.0
outer loop
vertex 278.2479571460762 3.1012249375547745 0.0
vertex 279.3355714361636 2.37450430262299 12.7
vertex 278.2479571460762 3.1012249375547745 12.7
endloop
endfacet
facet normal 0.8660254037845536 -0.4999999999998012 0.0
outer loop
vertex 432.9958254740071 6.034758340502731 12.7
vertex 433.57436676127526 7.207924016851925 0.0
vertex 433.57436676127526 7.207924016851925 12.7
endloop
endfacet
facet normal 0.9238795325113746 -0.3826834323648778 0.0
outer loop
vertex 433.57436676127526 7.207924016851925 0.0
vertex 432.9958254740071 6.034758340502731 12.7
vertex 432.9958254740071 6.034758340502731 0.0
endloop
endfacet
facet normal 0.7071067811867101 -0.707106781186385 0.0
outer loop
vertex 431.4066392480286 3.9636905286368456 12.7
vertex 432.2691048390753 4.947144050415325 0.0
vertex 432.2691048390753 4.947144050415325 12.7
endloop
endfacet
facet normal 0.7933533402913759 -0.6087614290085371 0.0
outer loop
vertex 432.2691048390753 4.947144050415325 0.0
vertex 431.4066392480286 3.9636905286368456 12.7
vertex 431.4066392480286 3.9636905286368456 0.0
endloop
endfacet
facet normal -0.707106781186385 -0.7071067811867101 0.0
outer loop
vertex 277.26450362429773 3.963690528601427 0.0
vertex 276.4020380332506 4.947144050379534 12.7
vertex 276.4020380332506 4.947144050379534 0.0
endloop
endfacet
facet normal -0.7933533402910916 -0.6087614290089077 0.0
outer loop
vertex 276.4020380332506 4.947144050379534 12.7
vertex 277.26450362429773 3.963690528601427 0.0
vertex 277.26450362429773 3.963690528601427 12.7
endloop
endfacet
facet normal -0.9914448613737811 -0.13052619222027573 0.0
outer loop
vertex 274.42112282242385 9.729496418265741 0.0
vertex 274.33557143616156 11.03475834046627 12.7
vertex 274.33557143616156 11.03475834046627 0.0
endloop
endfacet
facet normal -0.9978589232385882 -0.0654031292303766 0.0
outer loop
vertex 274.33557143616156 11.03475834046627 12.7
vertex 274.42112282242385 9.729496418265741 0.0
vertex 274.42112282242385 9.729496418265741 12.7
endloop
endfacet
facet normal -0.7933533402910916 -0.6087614290089077 0.0
outer loop
vertex 276.4020380332506 4.947144050379534 0.0
vertex 275.6753173983183 6.034758340466545 12.7
vertex 275.6753173983183 6.034758340466545 0.0
endloop
endfacet
facet normal -0.8660254037843228 -0.500000000000201 0.0
outer loop
vertex 275.6753173983183 6.034758340466545 12.7
vertex 276.4020380332506 4.947144050379534 0.0
vertex 276.4020380332506 4.947144050379534 12.7
endloop
endfacet
facet normal -0.8660254037843228 -0.500000000000201 0.0
outer loop
vertex 275.6753173983183 6.034758340466545 0.0
vertex 275.09677611104956 7.2079240168155145 12.7
vertex 275.09677611104956 7.2079240168155145 0.0
endloop
endfacet
facet normal -0.9238795325111994 -0.3826834323653011 0.0
outer loop
vertex 275.09677611104956 7.2079240168155145 12.7
vertex 275.6753173983183 6.034758340466545 0.0
vertex 275.6753173983183 6.034758340466545 12.7
endloop
endfacet
facet normal -0.9238795325111994 -0.3826834323653011 0.0
outer loop
vertex 275.09677611104956 7.2079240168155145 0.0
vertex 274.6763131732715 8.446567889441111 12.7
vertex 274.6763131732715 8.446567889441111 0.0
endloop
endfacet
facet normal -0.9659258262890099 -0.2588190451027385 0.0
outer loop
vertex 274.6763131732715 8.446567889441111 12.7
vertex 275.09677611104956 7.2079240168155145 0.0
vertex 275.09677611104956 7.2079240168155145 12.7
endloop
endfacet
facet normal -0.9659258262890099 -0.2588190451027385 0.0
outer loop
vertex 274.6763131732715 8.446567889441111 0.0
vertex 274.42112282242385 9.729496418265741 12.7
vertex 274.42112282242385 9.729496418265741 0.0
endloop
endfacet
facet normal -0.9914448613737811 -0.13052619222027573 0.0
outer loop
vertex 274.42112282242385 9.729496418265741 12.7
vertex 274.6763131732715 8.446567889441111 0.0
vertex 274.6763131732715 8.446567889441111 12.7
endloop
endfacet
facet normal -0.6087614290085411 -0.7933533402913728 0.0
outer loop
vertex 278.2479571460762 3.1012249375547745 12.7
vertex 277.26450362429773 3.963690528601427 0.0
vertex 278.2479571460762 3.1012249375547745 0.0
endloop
endfacet
facet normal -0.707106781186385 -0.7071067811867101 0.0
outer loop
vertex 277.26450362429773 3.963690528601427 0.0
vertex 278.2479571460762 3.1012249375547745 12.7
vertex 277.26450362429773 3.963690528601427 12.7
endloop
endfacet
facet normal -0.06540312922991 -0.9978589232386188 0.0
outer loop
vertex 284.3355714361639 1.0347583404685283 12.7
vertex 283.03030951396335 1.1203097267301592 0.0
vertex 284.3355714361639 1.0347583404685283 0.0
endloop
endfacet
facet normal -0.13052619221981945 -0.991444861373841 0.0
outer loop
vertex 283.03030951396335 1.1203097267301592 0.0
vertex 284.3355714361639 1.0347583404685283 12.7
vertex 283.03030951396335 1.1203097267301592 12.7
endloop
endfacet
facet normal -0.38268343236487834 -0.9238795325113744 0.0
outer loop
vertex 280.50873711251285 1.7959630153547752 12.7
vertex 279.3355714361636 2.37450430262299 0.0
vertex 280.50873711251285 1.7959630153547752 0.0
endloop
endfacet
facet normal -0.49999999999980255 -0.8660254037845526 0.0
outer loop
vertex 279.3355714361636 2.37450430262299 0.0
vertex 280.50873711251285 1.7959630153547752 12.7
vertex 279.3355714361636 2.37450430262299 12.7
endloop
endfacet
facet normal -0.13052619221981945 -0.991444861373841 0.0
outer loop
vertex 283.03030951396335 1.1203097267301592 12.7
vertex 281.7473809851386 1.3755000775772819 0.0
vertex 283.03030951396335 1.1203097267301592 0.0
endloop
endfacet
facet normal -0.258819045102298 -0.9659258262891282 0.0
outer loop
vertex 281.7473809851386 1.3755000775772819 0.0
vertex 283.03030951396335 1.1203097267301592 12.7
vertex 281.7473809851386 1.3755000775772819 12.7
endloop
endfacet
facet normal -0.258819045102298 -0.9659258262891282 0.0
outer loop
vertex 281.7473809851386 1.3755000775772819 12.7
vertex 280.50873711251285 1.7959630153547752 0.0
vertex 281.7473809851386 1.3755000775772819 0.0
endloop
endfacet
facet normal -0.38268343236487834 -0.9238795325113744 0.0
outer loop
vertex 280.50873711251285 1.7959630153547752 0.0
vertex 281.7473809851386 1.3755000775772819 12.7
vertex 280.50873711251285 1.7959630153547752 12.7
endloop
endfacet
facet normal 0.9914448613738405 -0.1305261922198234 0.0
outer loop
vertex 434.2500200499 9.72949641830247 12.7
vertex 434.3355714361615 11.034758340503004 0.0
vertex 434.3355714361615 11.034758340503004 12.7
endloop
endfacet
facet normal 0.9978589232386186 -0.06540312922991372 0.0
outer loop
vertex 434.3355714361615 11.034758340503004 0.0
vertex 434.2500200499 9.72949641830247 12.7
vertex 434.2500200499 9.72949641830247 0.0
endloop
endfacet
facet normal 0.9659258262891277 -0.2588190451022994 0.0
outer loop
vertex 433.9948296990529 8.44656788947771 12.7
vertex 434.2500200499 9.72949641830247 0.0
vertex 434.2500200499 9.72949641830247 12.7
endloop
endfacet
facet normal 0.9914448613738405 -0.1305261922198234 0.0
outer loop
vertex 434.2500200499 9.72949641830247 0.0
vertex 433.9948296990529 8.44656788947771 12.7
vertex 433.9948296990529 8.44656788947771 0.0
endloop
endfacet
facet normal 0.7071067811867101 -0.707106781186385 0.0
outer loop
vertex 431.4066392480286 3.9636905286368456 12.7
vertex 430.4231857262506 3.1012249375897536 0.0
vertex 431.4066392480286 3.9636905286368456 0.0
endloop
endfacet
facet normal 0.6087614290089031 -0.7933533402910953 0.0
outer loop
vertex 430.4231857262506 3.1012249375897536 0.0
vertex 431.4066392480286 3.9636905286368456 12.7
vertex 430.4231857262506 3.1012249375897536 12.7
endloop
endfacet
facet normal 0.6087614290089031 -0.7933533402910953 0.0
outer loop
vertex 430.4231857262506 3.1012249375897536 12.7
vertex 429.33557143616355 2.3745043026574617 0.0
vertex 430.4231857262506 3.1012249375897536 0.0
endloop
endfacet
facet normal 0.5000000000002026 -0.8660254037843218 0.0
outer loop
vertex 429.33557143616355 2.3745043026574617 0.0
vertex 430.4231857262506 3.1012249375897536 12.7
vertex 429.33557143616355 2.3745043026574617 12.7
endloop
endfacet
facet normal 0.5000000000002026 -0.8660254037843218 0.0
outer loop
vertex 429.33557143616355 2.3745043026574617 12.7
vertex 428.1624057598146 1.795963015388705 0.0
vertex 429.33557143616355 2.3745043026574617 0.0
endloop
endfacet
facet normal 0.3826834323653014 -0.9238795325111993 0.0
outer loop
vertex 428.1624057598146 1.795963015388705 0.0
vertex 429.33557143616355 2.3745043026574617 12.7
vertex 428.1624057598146 1.795963015388705 12.7
endloop
endfacet
facet normal 0.2588190451027385 -0.9659258262890099 0.0
outer loop
vertex 426.923761887189 1.3755000776106139 12.7
vertex 425.6408333583643 1.1203097267629047 0.0
vertex 426.923761887189 1.3755000776106139 0.0
endloop
endfacet
facet normal 0.13052619222027953 -0.9914448613737804 0.0
outer loop
vertex 425.6408333583643 1.1203097267629047 0.0
vertex 426.923761887189 1.3755000776106139 12.7
vertex 425.6408333583643 1.1203097267629047 12.7
endloop
endfacet
facet normal 0.13052619222027953 -0.9914448613737804 0.0
outer loop
vertex 425.6408333583643 1.1203097267629047 12.7
vertex 424.3355714361639 1.0347583405006986 0.0
vertex 425.6408333583643 1.1203097267629047 0.0
endloop
endfacet
facet normal 0.06540312923037675 -0.9978589232385882 0.0
outer loop
vertex 424.3355714361639 1.0347583405006986 0.0
vertex 425.6408333583643 1.1203097267629047 12.7
vertex 424.3355714361639 1.0347583405006986 12.7
endloop
endfacet
facet normal 0.9238795325113746 -0.3826834323648778 0.0
outer loop
vertex 433.57436676127526 7.207924016851925 12.7
vertex 433.9948296990529 8.44656788947771 0.0
vertex 433.9948296990529 8.44656788947771 12.7
endloop
endfacet
facet normal 0.9659258262891277 -0.2588190451022994 0.0
outer loop
vertex 433.9948296990529 8.44656788947771 0.0
vertex 433.57436676127526 7.207924016851925 12.7
vertex 433.57436676127526 7.207924016851925 0.0
endloop
endfacet
facet normal 0.7933533402913759 -0.6087614290085371 0.0
outer loop
vertex 432.2691048390753 4.947144050415325 12.7
vertex 432.9958254740071 6.034758340502731 0.0
vertex 432.9958254740071 6.034758340502731 12.7
endloop
endfacet
facet normal 0.8660254037845536 -0.4999999999998012 0.0
outer loop
vertex 432.9958254740071 6.034758340502731 0.0
vertex 432.2691048390753 4.947144050415325 12.7
vertex 432.2691048390753 4.947144050415325 0.0
endloop
endfacet
facet normal 0.3826834323653014 -0.9238795325111993 0.0
outer loop
vertex 428.1624057598146 1.795963015388705 12.7
vertex 426.923761887189 1.3755000776106139 0.0
vertex 428.1624057598146 1.795963015388705 0.0
endloop
endfacet
facet normal 0.2588190451027385 -0.9659258262890099 0.0
outer loop
vertex 426.923761887189 1.3755000776106139 0.0
vertex 428.1624057598146 1.795963015388705 12.7
vertex 426.923761887189 1.3755000776106139 12.7
endloop
endfacet
facet normal -0.9914448613738408 0.13052619221982187 0.0
outer loop
vertex 424.33557143615207 53.0347583405007 6.35
vertex 424.50594230470637 54.32885356601334 12.7
vertex 424.50594230470637 54.32885356601334 6.35
endloop
endfacet
facet normal -0.965925826289128 0.25881904510229764 0.0
outer loop
vertex 424.50594230470637 54.32885356601334 12.7
vertex 424.33557143615207 53.0347583405007 6.35
vertex 424.33557143615207 53.0347583405007 12.7
endloop
endfacet
facet normal 0.8660254037843248 0.5000000000001973 0.0
outer loop
vertex 283.6656984550736 55.53475834046839 12.7
vertex 282.8711053420839 56.570292246400946 6.35
vertex 282.8711053420839 56.570292246400946 12.7
endloop
endfacet
facet normal 0.7071067811863814 0.7071067811867137 0.0
outer loop
vertex 282.8711053420839 56.570292246400946 6.35
vertex 283.6656984550736 55.53475834046839 12.7
vertex 283.6656984550736 55.53475834046839 6.35
endloop
endfacet
facet normal -0.7071067811867108 0.7071067811863843 0.0
outer loop
vertex 425.8000375302185 56.57029224643378 12.7
vertex 426.83557143615104 57.36488535942347 6.35
vertex 425.8000375302185 56.57029224643378 6.35
endloop
endfacet
facet normal -0.5000000000001997 0.8660254037843236 0.0
outer loop
vertex 426.83557143615104 57.36488535942347 6.35
vertex 425.8000375302185 56.57029224643378 12.7
vertex 426.83557143615104 57.36488535942347 12.7
endloop
endfacet
facet normal 0.9659258262890096 0.2588190451027402 0.0
outer loop
vertex 284.1652005675971 54.328853565981106 12.7
vertex 283.6656984550736 55.53475834046839 6.35
vertex 283.6656984550736 55.53475834046839 12.7
endloop
endfacet
facet normal 0.8660254037843248 0.5000000000001973 0.0
outer loop
vertex 283.6656984550736 55.53475834046839 6.35
vertex 284.1652005675971 54.328853565981106 12.7
vertex 284.1652005675971 54.328853565981106 6.35
endloop
endfacet
facet normal -0.2588190451027435 0.9659258262890087 0.0
outer loop
vertex 428.0414762106382 57.8643874719469 12.7
vertex 429.3355714361508 58.03475834050186 6.35
vertex 428.0414762106382 57.8643874719469 6.35
endloop
endfacet
facet normal -0.1305261922202803 0.9914448613737804 0.0
outer loop
vertex 429.3355714361508 58.03475834050186 6.35
vertex 428.0414762106382 57.8643874719469 12.7
vertex 429.3355714361508 58.03475834050186 12.7
endloop
endfacet
facet normal 0.130526192219823 0.9914448613738407 0.0
outer loop
vertex 429.3355714361508 58.03475834050186 6.35
vertex 430.6296666616635 57.864387471947495 0.0
vertex 429.3355714361508 58.03475834050186 0.0
endloop
endfacet
facet normal 0.2588190451022979 0.9659258262891282 0.0
outer loop
vertex 430.6296666616635 57.864387471947495 0.0
vertex 429.3355714361508 58.03475834050186 6.35
vertex 430.6296666616635 57.864387471947495 12.7
endloop
endfacet
facet normal 0.2588190451022979 0.9659258262891282 0.0
outer loop
vertex 430.6296666616635 57.864387471947495 12.7
vertex 429.3355714361508 58.03475834050186 6.35
vertex 429.3355714361508 58.03475834050186 12.7
endloop
endfacet
facet normal 0.4999999999998001 0.8660254037845541 0.0
outer loop
vertex 431.835571436151 57.36488535942462 12.7
vertex 432.87110534208387 56.5702922464354 0.0
vertex 431.835571436151 57.36488535942462 0.0
endloop
endfacet
facet normal 0.7071067811863843 0.7071067811867108 0.0
outer loop
vertex 432.87110534208387 56.5702922464354 0.0
vertex 431.835571436151 57.36488535942462 12.7
vertex 432.87110534208387 56.5702922464354 12.7
endloop
endfacet
facet normal 0.8660254037843232 0.5000000000002001 0.0
outer loop
vertex 433.6656984550736 55.534758340502854 12.7
vertex 432.87110534208387 56.5702922464354 0.0
vertex 432.87110534208387 56.5702922464354 12.7
endloop
endfacet
facet normal 0.7071067811863843 0.7071067811867108 0.0
outer loop
vertex 432.87110534208387 56.5702922464354 0.0
vertex 433.6656984550736 55.534758340502854 12.7
vertex 433.6656984550736 55.534758340502854 0.0
endloop
endfacet
facet normal 0.2588190451022979 0.9659258262891282 0.0
outer loop
vertex 430.6296666616635 57.864387471947495 12.7
vertex 431.835571436151 57.36488535942462 0.0
vertex 430.6296666616635 57.864387471947495 0.0
endloop
endfacet
facet normal 0.4999999999998001 0.8660254037845541 0.0
outer loop
vertex 431.835571436151 57.36488535942462 0.0
vertex 430.6296666616635 57.864387471947495 12.7
vertex 431.835571436151 57.36488535942462 12.7
endloop
endfacet
endsolid Buildlog 2
